<mxfile host="app.diagrams.net" agent="Mozilla/5.0 (Windows NT 10.0; Win64; x64) AppleWebKit/537.36 (KHTML, like Gecko) Chrome/137.0.0.0 Safari/537.36" version="27.1.5">
  <diagram name="페이지-1" id="XvDX0VvGAzy2CjpBe-x5">
    <mxGraphModel dx="2852" dy="1486" grid="1" gridSize="10" guides="1" tooltips="1" connect="1" arrows="1" fold="1" page="1" pageScale="1" pageWidth="827" pageHeight="1169" math="0" shadow="0">
      <root>
        <mxCell id="0" />
        <mxCell id="1" parent="0" />
        <mxCell id="Fj4VQZkK3p1aDtsN9PMZ-1" value="App.jsx" style="rounded=0;whiteSpace=wrap;html=1;" vertex="1" parent="1">
          <mxGeometry x="690" y="60" width="190" height="100" as="geometry" />
        </mxCell>
        <mxCell id="Fj4VQZkK3p1aDtsN9PMZ-3" value="" style="swimlane;startSize=0;" vertex="1" parent="1">
          <mxGeometry x="60" y="440" width="300" height="580" as="geometry" />
        </mxCell>
        <mxCell id="Fj4VQZkK3p1aDtsN9PMZ-2" value="" style="shape=image;verticalLabelPosition=bottom;labelBackgroundColor=default;verticalAlign=top;aspect=fixed;imageAspect=0;image=data:image/png,iVBORw0KGgoAAAANSUhEUgAAAX4AAALcCAYAAADg5tuEAAAAAXNSR0IArs4c6QAAAARnQU1BAACxjwv8YQUAAAAJcEhZcwAAGdYAABnWARjRyu0AAHRySURBVHhe7d0NYBTlnT/w7+4mm9eFQJCXAGp8IRRb1BbEgnpHagtqxdoitpV6FfWK9P8X7FXkf6K9Cl4Vexa8K9JT8apoK3BV8KrgaWipoWKoL1go8S0gEAUSCNm8bvbl//xmZ5LJZDfZ3WzIbub7wcd53dnJBr7zzDPPzDr8h2pCICIi23DqQyIisgkGPxGRzTD4iYhshsFPRGQzDH4iIpth8BMR2QyDn4jIZhj8REQ2c8pu4AqFeJ8YEVF3HA6HPta3+rTGL2FvFCIi6t6pysykBr95p/t6x4mIBrK+zNOkBH9f7BgREXVIZs72uo0/nh3hwYGIKLJ42vd7ey2gVzX+noLcOEIZhYiIIosnL3ubpwnV+HuzU73dYSKigaa7GnxPtftEav9xB3+8od6bgwQR0UCUSJj35uBgFVfwRwtp6/xEDgBCneDoY0REA4tD/elJLIEfLeTjCf+Ygz+R0He4M+DMy4Ez2w1HpkufS0REkYTaAgi2+BBsbEbI59fnJj/8exX85nnW8Yyhg+Dy5OhziIgoHgFvM/zH6zuFebRxQ6zBH1OvnnhDP3P4EIY+EVEvSIZKlnaXtVaR5kXSY/D3tHFjXIZSpKbvzHFr84iIKHGSpZKpRr4KYyjM44ZI86y6Df6eNmqMG0NHVgZr+kRESSSZKtkqrJkrzOOGSPPMEr6By7oD0iPHlcfQJyJKNslWo9ejNXsTETX4I2002hsZOyS9d4iIKLmMbDWy1iqevBYJ1fiNDZo3LOOOjPDpCBERJY9kqzVvzcN4xRz81jdqH8ofNa5NxtaTiIiI4qGyVTJWy1q91h8tk2ORcBu/MEKfiIhODXP4Jypi8FvDvOfprvOIiCh5tMC3xGy8WW2Iq8Zv3ghr+0RE/UOy11zrjzeLe9XUI+T9tJ3gQYCIqM8YOZuMqO0S/D0FOAOeiCh1JJLZPdb4I71IO8kwzZfxnt6ciIgSZ81ZbdrU3GOIJYtjbuqJtDGZFcubEBFRcmiBHyF248niXrfxExFRekla8LPmT0TUd5KZsUkJfoY+EVHfS1bW9jr4GfpERKdOMjI3ruBnyBMRpZ54s7lXNX4eCIiITr3eZm/cwa/1HGXgExH1O8niSH35e5Jwjd+a/TwYEBH1HWvG9iZye31xl4iI0osNgr8a6747CZMmSVmKcn1unzi4Djdo76PKvX3xTon/LD5vLWprw8XbpM/sTp//LPHx1Zn236fP7M72pfrnNAk3PFWtz+xD72/CsvuXaWXT+/o80z4s3a7PI0oBqR/8TVWoeLUMZXGWiv2xpENPyrFU/4fblweNiodnYdYsKQuxPpkZFfBi98aluGH6JEydPgMzZoTL9MvU9LW3YeWr1UjGp9RnfNUoe/g2zJqq9vdy0/6r6ek3LsX6d7z6iingswpsen6TVio+0+cRpajUD/7acqxcshiL4ywrt9foG0h9vrpqVFdLqYEvoM/sLW85ll09HfMe2ILKCPnoO1iBdUtm4e9vWYeqZL1nd+oqUR7PQXn/Osz7+1lY/GwFqiOs7t27BStumY4Z95cjqfHf5G0/s+hU6nzwRVkW0xkUUQphG/9AFKjCuh8uxKaj4Un32XNwz1ObsXXrVlU245kH5mHa8PAy3zsrMf+nSQ5PQ8CH2r1lWHfvDZg+4wYsjPWgrA5aS3+wErv1wC+8bB5WPSf7LmUDHl0yB8Xu8LLa5xdi/lNV4YkkqN44v/3MolNZsB4VUZbN33gKmpKIkij1g3/sXDyzaxd2dSqbsWicvhwlWPS8dfkuPHNjkb48WWpRU6uPJlU1qvbro2q8Ognv4dv2KFbuDY97ZqzA1mcX45oJRSgsLFSlCCWXL8CqF9Zi7tjwOrUvPYinjXbpZNmxDJOmTMWMG1XQv1QJbxxnFZXPPIgt+udQMn8DXnx4AaadLfsupRiTZy/GhpfuQakrvE7lLx9FGWvdRDEbADX+SlQd1EeTbe+72K2PAhWo2KOPJlUNqtv334uqqt4nf8X2Mn2sCNfdUAqPHpCduCdiwfxSfaIa5buSXGv1t+oj8apW+2/sSym+991i6JX7zgquwc3GwT1QhvJ3wqO9VTR7jX5msVy9e1jxTWuxdfUcdcBRyx6fh2J9ful94bOQNbOTXckg6lvpGfxNu7HbVEPd92GsobUb6/SeF1p5vlKfH1nl9i0qhjpseXFL8ptE9r6O100brfj9a+rcIhZbsLD9wrMq7T1vfPA266OYiPMn6KMRuHNMkerXh8ly8V16gIbL8sv1+T3yot7Y/3ETMTFXH4/A4/HoY0BrsvY/16OfWXjaDzhuzzAUFrjh1pYN6pifHz4L8XSzj0SpKC2D37ejDEadVlQ+/wIqY2pKULVJveeFVt7upq3ZuwVPPGk5oGz7BR7cntzor9i8odPBBe88gSd6VXt1w1Ogj6oD3bt6k08kvmbTVdMMfZgsbiNA9XCMWG2PxINBRp6/rw7w3TTheL0dv4usZO8/0QCWfsEfqMTjvzTHvnJwLe57JpYLfCoUi4pQZBRVi4tIuzi6FGXawcSDmUsWYbLWXFKLLXfOx7r2Nvle2rsayzbq4TVlWvt7rL9rKcp7PL5MxNwHVmCFUb49Xp8PTJ7S0YSz9oEovXa85bjv4Y4moWmTUqW5ogiTpxr7UoZfPBDlwvP+dbjP6J/vKsW0C8KjRNSzNAt+L8p/ejvW6m3iE3+0HHMKw+OVj8zH0h5r46VYvnkzNhvlR5P1+SYBFe53z2+/OIpJi3DH7Lm4Z2FJeFodeFZ+dx5W97YPufRcuWOtXtsvwrwfrup4j9otWHjTClR0+xYqIC8vRalRJugfhOK+fBEWGU08e1fiuuuXYt2rlaiW7ofVlSjfuALXzVjYfgG18Nq7cEv7xfL+V3LjXbhG/3FqX1qI2TetxPpdVeHukx9VYMuahZhx/cr2s7yShYtQmuzmliZv+z0O5jMLHKxC9w2ERKkvjYLfi92/nI+FLxlpNQeLrp+J2+6eiXBGSG18NpZuTvymJN/+Miy7fgaWvmq8x0yseugabftF312DVVfqaeTbjbXSh/xHq1GewI1ivo/WY+FsU/BevxwLVFAXqWF7YO9fj9tmXIcVCd1kVYS5v1yLeRfoZzT7t2DlkhswS7ofzroBCx9Yjyp9o4UzluPZJdMiX0DtL7nTcM/TyzFT73Ja+946rJh/Xbj75PW3Yenj5ajVQt+NibesxZrv9sHZSm0NDuuj1UdMTYKmi9ZV+y1NgbotP9Kvu/xoiz6HKLWkRfD7aiuw7vbZmPekXtdylWDRrxZjogvwXLYca243auMq/O+bhb+/fgU27a2NPTB9lVh703RMnb0Ym4xmnEIVPr9ajmnt1w89mHbfRhX4E9tDsnb7Wiy84/EYry/Iz1GJTQ9cp+1fuXEFd8IirPnRxPC4qxhzH9+ARUZg+6qwfsksTL18GcrjTX/PRCz41R+w4YG5mHxmx0XQMDc8X5iJxWu24sX71YEzUq+f/jZ8Jpa/sBWPLpmJidYmOZcHxVPmYsXGP2Dt/InqN9MHzDX7ozXtF9yrD3U0KXY6IBClkRQPfml2UUE+4zas3KH/01PhOOeXazD3zPCkKL7xSWxQtVajsUNq1MseeBmHYwxkuEsw/bKOWmPhZYuwduMqXGN6jzAPJs5fiz88vwJzJkjcFGLOTxagJKbg9KJi1e1YtrGq/YBUOHUxNjw+F8Xm17tV+P9qK1aZujGW3rkI0xKpkrvcKL58ER7duA27du3ANulh8+qO8PiTyzFnUmH0mr567bCeroX0NXchJs9ejrWyzzv1/d8m49uw4ZeLUHpmN/uVNaz9Ws6wBJqBqio7OvKisrK99l9V1dHQ431vd+cL87qJN+rXXW7UD+hEKSbFg78QM2+YiWH6lNyBuuLFDVg8qWsNtnj2KrzYHsglWHCfJVB7UHzjvbjn2nmqFrkDWx+ei4ndVCPdY0ux+Klt2LH9RSyO+aKiOmNYcm+47VqF+5wHNuPFRzruQO1E1Win/WgD/rD1Gdxz76O4Z0Yy6rSqli89bGIN8aI5WNXdtZBTTR2ItP2PtXvQlEXt13JWxd3Pvha7d5o6C3jfxW7tulIl3t2pzQnbW44K41TApOgC/brLBX3QBEWUBA7/oZpOT3Xu+szn8LT2wH8p+hexyOz2eaoEg0EMHne6tm6y7X52GfaNW4BvdFdDNfE1+eDONdaUJ1rOwkqt3/9MrNq1HNO0+X1AHii3oyrcC6Xo/E4XXA3ylEmVYHAn1LxSi/LHV6PsiIxPxJy7r1GHuJ7Ig+YWoletzVeuwq77evepld87CQtfCo+X3L459jur5Smh167s1QXVuN5PHF2PeVeuwG6oM4ax1doNdkW3PIPNpa9h1nflgrycScizldRvYclWrJ2tfs/yJE69TX/mw7uw/DI1EmkeUYJOvv8JnE4nHA6HqagQl6H80ecJY2iwTqdFG//E797TfbOERUfoiyLMWW3cSHQXYqu7+lC1s/PTPmMqRuh3w12gh37AB6/pQV+xFWD8tQuwYL6U0vY7SCmZfCj/j0fDd2yPnYm7bgz/jal+bj1WbtDvuZh0M+6aET6Q7H7sCeyOtUmRKEWkRY3fUPn8Mqzv5oaknsVaSzafJSSop1pyr2uysZ69yAGmo2tizA4+h/m3rIXW4NGfNX45QNYlsP87H8SMe8P3KcTzfl5VS5+taunSgqPV5qe/joVXLkO5KdxLH9iBFac/rtf+gUL1+Wy8/GVMZ42f+pDtavyGmrdNd90mVCpgv34Yett43KXj0QT9ymjbj7fkJ7D3R9dj8Z3h0Ne6C19bqIbX4GZpyjGo+XOnq22PuwV3yXKl9qU7sfi5yF07iVJRWtX45QtLlv1Bn4hZK7xHavWnQ8ZaS07wuoC5Fh9PjX/cImx+di56rpMmsl/m6wJx8O5D2auV4aar/qzxq09o0/3rTQ/Li1F1BTbtDIdx3DX+O6vwveee6eg5JjfbafddFOKaR17EPVP1g4p858H1C/H6JNb4qe8ls8afVsGfmETCciAFv/k1CerX4O/9xen43k/leZ0XngJLT6qjW7Du7cmYO8Nywd7rhTfXA085L+5S32Lwx4XB3/Eaeb7PXPX/OEXpoRRVbTnWrilr7/suqndtQoX+qA3PhFKUlnQE6+jpCzBvarTtm4K/aCYW317a3r03Vp5zLsHk7vr8J0OkkGfwUxLZto2fesvyfJ9YSzyhL5qq8Jrl+ooR+sK7t6zTstc+jPHZ/fnjcUmk/euh9HnoE6UZ1vgjSrCWXFuGlQ/pz/CPp8Yfc022BmWPrMAW7Q1OYY1fiavWbP7ZYtB9U0zva/xi9MRSlOjP/ukTrPFTH2NTT1x6G/wJiif4E3IKfxYl3nby5EnCDWhKnwcvg5/6GJt6iFLNZcvbv++ZAU+pzgY1/vBjEsLdOaVPeMdX6hH1KZ8Xtd7wrWduTzzfQkbUFZt6iIhshk09RESUMAY/EZHNMPiJiGyGwU9EZDMMfiIim2HwExHZDIOfiMhmGPxERDbD4CcishkGPxGRzTD4iYhshsFPRGQzDH4iIpth8BMR2QyDn4jIZhj8REQ2w+AnIrIZBj8Rkc0w+ImIbIbBT0RkMwx+IiKbYfATEdkMg5+IyGYY/ERENsPgJyKyGQY/EZHNMPiJiGyGwU9EZDMMfiIim2HwExHZDIOfiMhmGPxERDbD4CcishkGPxGRzTD4iYhshsFPRGQzDH4iIpth8BMR2QyDn4jIZhj8REQ2w+AnIrIZBj8Rkc0w+ImIbIbBT0RkMwx+IiKbYfATEdkMg5+IyGYY/ERENsPgJyKyGQY/EZHNMPiJiGyGwU9EZDMMfiIim2HwExHZDIOfiMhmGPxERDbD4CcishkGPxGRzTD4iYhshsFPRGQzDH4iIpth8BMR2QyDn4jIZhj8REQ24/Afqgnp45pQqNNk+7QMtSJ/tHHTPFWCwSAGjztdW7evbPj4TzgRbNCneuZ3BjEybyi+OeLL+pz05PPWwgsPCj1ufU4ifPDWegFPIXq1mVg0VaFiRw2GTZ2M4lx9nuYU7gPRAHPy/U/gdDrhcDhMRYW4DOWPPk8YQ0OX6XQJ/lu3PoyTg3zIH1Ogz+lZhsuJzCw3RjXlYenY6/S5sQgHlE+fgruH0D24Djdc+zKueP4ZzB2rz4tXkxe1zT64c1QodgpLoPzeSViIVdh13zR9ThR1lSh/9TWUVdaisKQUX7l8GkraP65yLJ20EHh4F5Zfps/SaQeW9h82OnesgR3184i+D7U71mL1tsP6VDSjUTp/HqYV6pNENmLL4P/q2h8h/+whyB01SJ/TM/lZs/NykFEXxJoJ8/W53Qh4sfuZZVi6pgzVWYUo8mSpma3wHqlFa1EpFvzkHsy9wBNe16w3wV9XjpW3L8W6vaomrPNMmIvljyzCND20Ywl+7/ZlmL3kdZx11fdwzZRhqNm5CU///mNc8sBG3HOZ7HP00NW2/5I+0Y2ZEV4bVovyx1ej7Ig+6d2HslerUXR5KcYbH9eEObjn2pqo+1D91A2YtbEYi28vxTB9Xie1ZVj5UBXm9ObgSpTGkhn8adPGHwpKUQeYQDCu4m9tQ6CpTd9Kd2qxZclszNvswaJnd2DXtq3YvHmzKluxbccOPPNDDzb9YDaWbu8I6F4L7MaK6xfi5YLb8Mz2Xdi1S5VX1+Lmgpex8KbVqAzo6/VoNx79ySac/5ONePTuuZh5+UzMvftRbPzJ+dj0k0fV0u5Nu09/76hlFWbq60bmQdEXpmHaFL1cfjPueeAe3KzOONrnlUSM887yx+MSdbAojVSmjlfvQkTJkEYXd7VTjJjLBVnFKM48LTwtr+3JO0/gwW2jsXj1PSg909Ke4XKj+PJ7sObO0dgSNUgr8cQPZmHWrG7KwxX6ujpVK19fW4o7HpiDEqN5p2Ai5j5wB0oPbsCm9/R5PfKi3luM8SWdo9FTMh7F3nq1tK+pz2eKBPRkFDftw5ZnVmLlIyvx6PPlqM7Vw3xCR/uMr6EWtbW18DbpM4jolBqQvXq+mn8BfnzaN3CNJ/aLurWV++AdV4pLhuszIihU4Vbi3Yd9R/UZhqI5WLN1KzY+/hDuun0RFkUrM8/SX6Dzt6p0HoYiS5s+cj0qSlWY1+vTPRqPyZOq8NyaTag22up91di05jlUTZqslnaofqcMZa+WoWJ/R6N+9caFkQ9U7WUpyvR1o/Oh/P7ZuO6pWky7cw2efPJJrLihEBU/nYWbnq3W1wkru3cGZsyYgfkbO8/HR0/gpojvr8oPnlCHViJKhrRp47/88TuQV1yAnJHdn/Bf7jkfNw35Co7563H/sedQ72qF+0QQj026XV8jindWYPot+3DbS2sxJ0r4ezcvxPRfjMbabYsxUZ/nq1M115ibZIQbngIV7C41enQ95l35BIoe3ojlWjt8mHfbUsy6s7p9X2K6uOvdjXX3LcXqbTXIKspCa3Urhk1fgOX3zsVEbdPhNv6ygiIMUwea4hvXYNXsIu2lWvv676dh7errMVqbE1n3F3dl+0sx6PFtWHyBPkvxbV2Mqb+eiM3PzkVRN9cZjIvb7XY+iBn3Asu33oXJ+qxOnx2Rzdjy4m44+AejaPRIXJBzFv7Q8FdtX8zCoX85jrTVYdnR51AXbIA7Kyu24EctNt1+NZZVX4EVP7+rc3NPwIeqbQ9i8d2vo/i+Z7FihtFsUY31t8/Huv36ZEyKMXfNKswJZy6qnp2HGx7eh9HTr8BEuZhbtxsvbzuM8T96Bmu/W6ytE3OvHrF/La6b/TKu2LgB887U52mih64W/Fuu0MM5UbuxcsY8VHx7A565Kbzf0gRVfu9sLDy6AFvXXIPC7oLfavtSTPoRsGrXcsTwUxMNeLYO/uvOLcV3hlyGPzXuwZqaLfpSPfSHXo5P/Sdw/2frcSLQoH5YVUfMVsF/XAX/5J6CX0m0V08v+Q5W4IXfb0FlrZooLMHMq76ByWM7DjzdB786KO18HVVGQ77W+2U3Rs+ajCKpGTdVY/d7bly3Zg52z0qwR42h6PxObfVW3vdWq22sxbuu8FlFq7catTkzsfy/lmOmdhYVIfir12Ph/HWo0ifbNdWgug6qhq+2W2fpazpuUS8PUkTpx57B/1g4+AeNLMCdw7+J83JOR5l3N56o/d9w6BdKTf8kfvrZszgZCF81lJ9VC36p8ccS/O2kH/8+PL1gHrZdthZrbhwfQz/+lT23QV8ZY63dovvgr0XZI79AuVcOUmYeFF84EUVuGY7H6ILduG9K5OA3+tB7K8tQdrAIpZcbPWi82PdqGbwTrsFkSVmtS2aJtiQ68z0QbngK5XqFIULwq7Mpb53pnolYuDwoLOjm90E0ANk2+HNV8OeMyEemw4XFw7+lhf87TVW4ILcYh9tqsfyz59pDX8gP6852a8H/+GQVOHGpxrrvzsLLMzfjmRt7qFtGCi9LOMXUXGNq5249sg/7qr3wlMyE77HYmnp8ah8gbeD6dGc9N7N0bfIJfwb75kd/TSTGGcyunRXYJ2cxyrCSyZg0ZSa+IWciXXbQctbSjdETS1HSzQV4ooHKvsF/Zjj4hRb+I8LhX912HD+t/g28wWZtmcHhVMGfpQf/RX0Y/LXlWLumDN3dd1q9axMqvmAK70AZlk5ZjI7Gqg6e4UXwZAzD+CkTMe26BRi2bmoMwd/T/lZg5axlwN2bsWiKPssiGcFf/dw8zH74MM6//mZcd/H5GF8yDFmtNdi3911UbHwC66rOx/KnV+hNP4ZYrpV4UaMOhKXdHLiIBjIbB/8g5AwPB7/IdGTgqoJJeO3ku11CX3QEfwiPSzNHFBUPz8KyP+gT7cJt+95co62/M3OvmHBTz3oU37kIpdGbwHtsI48mtou7cRyoDJYDVo9NPcI1GXOXzIRx+baz8D6UfX0z1n430j5UYe311+G1q+LYx3ZxXBgmGoBsGfylv1qI3LGDkDc6jkc2xBj8tXvL8K6lS3lPPOdcgslGz59kPKunG/EE/6Zpa7Hm2910yjQ3QWkPU6tS8R4HTzEumVIcpTnJh7IlU7G4eh7WPrIg3EupnQ+1ux7H7T9ci9H378CKyyNvIToGP9mbPYP/0duRMSQLuaM8cGVl6HN7oII/SwV/fmMm/nNqPBd34xTrxV3MTKh7YjzBv/J9fTKavu4R46tG2cN3YtnzlaazJePsqQRz7n4Iiy4vinLg6A6Dn+zNlsH/jxtXoPLIAWTmu+GMMfjlZ3W5XPj62RdjwYXf0Oemn+Q8lvnUM9/cFumpo/EJ9xbiI53JrmwZ/EREdpbM4Oc3cBER2QyDn4jIZhj8REQ2w+AnIrIZBj8Rkc0w+ImIbIbBT0RkMwx+IiKbYfATEdkMg5+IyGYY/ERENsPgJyKymbR+SJu8LxFRf7A++Kyv2fohbeaDDRFRf0nnLEqLGr9sPxaxrkdEFC9rrTmaWNeLl21q/MZBJRJjmbkQEfWVWDOnu2WpIqVr/LJdK+u8SOsQEfWlnmrUItK83rDNN3DJds1Dg3nausyqp+VERFbWoLQyL48Wsj1tI162Cn4pxrhBxh11x+F4/29wHDwAx/EaoLFRLQjqaxARJZnDCeTlITR0GEJjz0Bo3OcQKhjaKVTNwWsN296yTfDLNoVs3xhqgb9jO5yVe7R5RET9JVhyHkJTL+t0ADCGEtLJZKvunOaDi+O9t+H6r18x9IkoJUgWSSZJNpmzKtWlRa8eKY6dr8P16ktqJptziCiFqEySbJKMMmdWKkuL4Ndq+jv+qM8lIko9klHmmn8qS/ngx4laZJRt1ecQEaUuLatUZjH4e0E+PNcbr7N5h4jSgzT7qMxi8PeGOnLyQi4RpRMts1R2pbKUDn7nB/v0MSKi9JHq2ZXawX/oE32MiCh9pHp2pXTwa3fkEhGlmVTPrtQO/qYmfYyIKH2kenal9sVd9uYhonSU4tmV2sFPRERJx+AnIrIZBj8Rkc0w+ImIbCa1v2z9oZ/qI/GpOWcPhvpPh3O/R5s+mZGFb4z5Nrbt/7U2nYjgl76GQGGWPmXhPYDMP4+B7/aJ6tOpheuRx5ChL9KMOBvBzBo4D53UZ3wNvvlq3ZYDyDhUAP+EQuBQGbJ+96a+PFYXoe0HpQhmRXjPbiX6OiKK2Z0/0UeSw1bP40+E6/1iBD7J0aeA3Y5CjGgOh25LnUsbxit0xgQEx58XuZwzRl/LajAC3/i/aL3+OrR98za03nAlwtf6VdS6VcnqKXK/iLbv/xit87sW39Vf1NeJ4KJr4bvh1gjlWgT0VYjIvgZM8Dd86oT/b8PUiBMFm85CZksW/pQ5BjfnfhVrcs7HlMZD2nonK/IROJSvjcfD+ebLyHzlRVV2q9MkmeOH812ZVuX1v2jrdHHRNfCfnqdOF1qAVjVdOBH+GWeElyUqQz9oaBuMIq8AIc/gzqWwUJVh6oyEiOxuwAR/RraKYpcK2HxVp3arem1VDlbjfBT6G1ERHI7Zze9r64346km4xjRo4/FwHKqEc98eOApUeGoV9QwERxTCoeY5q45o61j5zxwu/4dz10pkvaxeq6ZCo76o1/pj8RYy/+vnyFrTUVxHtaMO0NTNw+u2PdnpNVlr9mrvDV83Bwsiso0BE/zZQ4LIHqcH+vAmhGpDmNX8IT5tzccYdzZyQ360nnThk9fcaH15DALlRQgcV0eLeBSXwj+xSI2o8PWpwciL0Pa186LUos9AKFeOECfheEMNPjkCh+Ru/jAEx0e5VtCjixAaIttshONweE5MLtZr+i1eXs0nooGVA5+c+S68Ja+g0X0ArTkn8J2MSjzteAWTT3yEvJoWfLp5ME5rGAnX6U3AsCY4/J0veER3NgJX3YrWqy5CUI4Vh7bDXXFAjWQgNP5q+P7xVvjP01Y0GQFEyndnIQJfK0moySV08XgEZZtNn8HV6eF/apu3L0HrD74ToQ1/MPyny5mHOms58haDn4gGVg4cb2jEiaMn4No/GF53Fd44bS8eG34RHgy9ivrcLHx8xWC8d10A3vNb4Sqpg3N4s/7KntQglDdYfVp+OA69iczfvQnHX34D91YVpA2q9t94GM4uLS9qfsR0b4RzX3W46SUeBRfpZxsqwPe/afnFqf2qrVVFnV3ocwyhL12JwEh1lhA8Auef5WBFRHY3YIL/s4AfHxwOIvP4WGQ1DELT+CqEGvbjwLF3cGvrOMweehWWfv5aLPHMxazhC/H9MbfioHuo/uqenETGKxuQ+dxjyHjvCDD+bC3THZWvIHPtz5H1zEvqg9wD1xs74HrzL/qH+hYcjTLMVmcF4aGWyi01cL4S55P7Cs5D29WXhc826iuR8ao1wE/C+cxjcG+U/egQKrkabVPCF5Md729HRp02SkQ2N2CC/502Hyqavoy/tfpRc+2f4fWcwFv1JXir8Vx8NnI87vLtw47PHkZZ7YP46acv4cIjx1AY0JI5NnUH4DxSgkCpCtOvlUZoUhmB4IVTEbjoS+0Xb5010oU0D8Hzvwb/Vech6FaTxw8gng6loZJStM2+GkFp2289Atcfn4/hlzYYwek3wffV88IXog9tR+YrH4UXEZHtDZjgz3MdREXD3+GjlvNxGH40Z52OLYFZGFEYwsLaG3HRqPX6msDFrp1Y2PYCcgOJ9nLR29Q7FbkhSl+sc+5Utf8WNTLiiwicPRjw18L1lx3hhTHQwnvGRQjmqommarheeRIZVeFl0U1F2z/ehrYvjFA74IfjwHa4f7cj/qYlIhqwBkzwf+gbjFsGP4tnTv4DXmmYhWGfFGBlyfO4O/8RuEMt8GeGe/ycCNQjY/xxbTxx0k6/x1I+gkN6+pjVvYnMTa/AdegIHNWVcL22Pobg7uB8W223qQWOfa/A/fhTMb52B1wH1ZlG0xE4//g03JsY+kTU2YAJ/u0NU3HSPwpLh/wHKlq+iHtrl2HfrokY/sG5mDy0FMOPfEFbb4hrENx/HaWNnxJH3kLG756Ee+PzyKg0HtkQIzlwPL4S7lfeiiu8nS8/iqzHn0Tmu5HvLyAiexswwX9F/v9i3cmbscV7NX42+N+xYNCz+DRUjOqs8cg5WQRXY8cjHHovr+tjG+SCr7Thx6Quai8cIqK+NmAe0nag7QDea/Tgfxu/iesK/oZL8vqitjsYwXPHoPurs9I081HsgS4PcBuSDTQcMj3ELVbG/sT5ngm/johilsIPaRuQT+ckIup3fDonERGlCgY/EZHNpHbwO3hcIqI0lOLZldJ7F8qVO5eIiNJLqmdXSgd/cEihPkZElD5SPbtSOvj9RdG+0pCIKHWlenaldvCfPU4fIyJKH6meXandxl8wFG3naM80JiJKC5JZkl2pLKWDX7ROupi9e4goPais0jIrxaV0osrdZnLkbL60VJ9DRJS6JKsks6x3yqaalA9+KW2f+wJaJk/V5xIRpR7JKMkqI7dSWVoEv5TWCy9C06VfYbMPEaUWlUmSTb4vTumUWaks5VPU+BDl4URyNK2/bi58Z5foS4mI+o9kkWSSuaaf6qEvUvrpnC0tLe3bNg+lOE+eQObHHyCj+hBcdcfhbG5WO2R82y0RUZKpmn0wJweBgqFaP/22s85FcPCQTpVT8zA7O1t/YXLY5rHMra2tnbYfaVxYh5F0t4yISFgD0swaqjKUYg5j83hWluVLuHvJNsHv8/m6vId5WoqwDoV5nIgoXtawFNZwNRdrKLvdMX8lX0xsE/xtbW2d3iNaEcbQYJ0mIopXtACVYU8lMzNTWzdZbBP8fr+/03sYRUSaNrNOExHFK1qAytAo1mmjZGRkaMuSxTbBHwgEOr2HiDRtHhqs00RE8YoWoOahUazTLle3X84dN9sEv7lNX0QbF+ZxQ6R5RESxsIalMM+TcWM60riEdDLZKviFbN86NMaFeVxYp4mIEtVdiMq4MW0dMvgTZGzbGDdEmies00REyRItTM3zzfOs6/eWrYLfPBTmcWGdNkSbT0QUK2tgGroLVmM82msTZbvgN1inRaR5RER9yRqkoqew7S3bBL+QbUcSbT4R0aliDVRDtPm9kczgT4uHtEVi/JDmQkTUV2LNnGjzU0nK1/jN5H2IiFJRXwe+rWr8ZsYPZhQiov6SznmUVjV+IiK7sm2Nn4iIeo/BT0RkMwx+IiKbYfATEdkMg5+IyGYY/ERENsPgJyKyGQY/EZHNMPiJiGyGwU9EZDMMfiIim2HwExHZDIOfiMhmGPxERDbD4CcishkGPxGRzTD4iYhshsFPRGQzDH4iIpth8BMR2QyDn4jIZhj8REQ2w+AnIrIZBj8Rkc0w+ImIbIbBT0RkMwx+IiKbYfATEdkMg5+IyGYY/ERENsPgJyKyGQY/EZHNMPiJiGyGwU9EZDMMfiIim2HwExHZDIOfiMhmGPxERDbD4CcishkGPxGRzTD4iYhsJu2DP3T8DSDQoE+lrtoda7Hs/k2o1Kf7WvXGhZg1ayHWV+szkqF6PRbOmoWFG3vaqA/e2lp4m/TJLqqx/vZZmPVwhT6dCH0bt69XY91o8qJW7UttrRe+gD7PaufK5H9WRCksbYM/eOIvaN76dwh8dDfw4Rzg8Aqg5SN9ad/w7a/A+jXLsPSH16mgUKFz02Ise3gdyvbWqqjrXuuHr2HT8xWo0ad7w9iPZferEu39m2pQXV0TPex0lc/r2+muPK8frgI+1FRXoyZqoBsq8OCMGZjfzQHCV1ON6rruP7Xqp27ApEk3YN1BfYaFto2aKNuo2411P5qBSZdNxwy1LzNmTMfUqTNw25pyeK2fSWtsnxXRQJG2wd/y1r/A6Q4gI+hS1ekWVbYCJ/9VHREa9TWSyLsbq+er4Jh9G1ZurIKvaCImT5mMyee4Ub3zCSy9cQamXqlqjB/1FP+9FKjCJhVmsh8rnipDxc4KVLy0GovV+//99StR4dXXS5gX+17dhE2v7lNjvecLtOpjp1hTOZZdPw8r94zHojWbsW3HLuzYthmP/nA8Pn58IWY/UN7jgZpoIEvL4A96Vc3+5GGE6psRCvpx7G9/RehorQrGZqBxj75WkgR2Y8XseVhbNRGLn92BHa+uxYq778E9WlmOR5/bps2bV1SBFd+9Cev266+zqDnS+3aEyjULsWw7UHrvZuzYsQ2bN2/G5ld3YNvj81C8fx1uu29L3IFdcq3xs0hZhCtGqZmjrsCi9nmqXFsSXjlW1VWoUoOqD+X/veWLuyZevXE1NtWWYMGvVmHupCJ43IDbU4TJN67Cmh+WoPb51WzWIVtLy+Bvev0OBEMhOFxtcDRV47TxI+EYOxb49DCQNUZfKzlqNz+K9bVFmPeLVZgzTiVIJAUTVciswZyCSqxcUxaxNun1SSSXYak0EfVYIrU3l2P9U2rm5Xdh+awimPfEc8EC3HtTEbBtE8rU8S9xXtTL5ZKP9qGqm7D1Vr6OslfLVKlEpLfzvbc7fC1jRxnKe2wWisaH3e/JVqrw+q5ufqhPX8ZKvUlq0/vhWVUfqted/RVMPzM8bVY8ZRqK1N7t+1CfQWRDaRn8oZY2ZPvccDdnqVp/LnBC/Ri1J4Cc8apqpwIwifa9XaFC5Bu4YoI+IxrXREybooY7d2FfeE4nRRfOwTXXXoFSaSLqsZyP0Vn6C01aVRiXTBjfKfQNJRMmqv/Xd3NBNQZ7X8MWOeAEtmDTtuiNIdVbV2DxksWqPN31Zw1U4nF18IMK2MlNW/Dgkwlezj76AtZvAwoLC7H7sdXRDyDqwP+uNHmpUqX+CohhI9TfgY/exe4Ipz9edVCoVtFfNEyfQWRDaRf8wZMfIxCohz8nCO+JIwicOQ+BMfMRGrkEmPArfa3k8Xg8KoRqUBNDc4MEM4YPg3pFF8VXLjY1qfRU5mFaof7Cdh4MUhuu3Lsv4hlF5d7d6v+D4FHHwYQEqrDugbWoHjcP8y5X5yYP3YfyKO1GJbdvxq5du1RZjmn6vDAvyn96O9ZWl2DRklVY/MMSVD95OxY+H2+TjxdbHlqB3YVz8NBzd6C0bhPuu28LaiP9Ds6+GU9Kk5cqi+TAq5TMmoMSVzkevGM1dteF5wnvO6ux8IFy9fdkDr7R04GcaABLu+Bv3bcOblcrslUwDpo6Dq7M3XBdMB+Os76ur6F88hxQ/g1g+2UI7LgSbRULEDi2S18Yn4nTr4DHux4rn+khvPavwxOvqpr99Gko1meJiocjNeXEWlaio8PjRFwzW9VkX30Qd26sNLV7+1C7fQWWPinNQNfhii4HjBgEvCj76Xys3FuIOYsXYMHdqzATW7DwphUoNwVnt6QXze2zsfAlYNqS5Zg7Vh3sblyDVdeqX8X912HGj9ahojaGS6q+amxaMhtLtxVi5t23YWLBTNzz0DXAtqW4+rsrUHYwhm2MnYs1v5yL0XvXqoPYVExXn+WM6ZMw/Za12KeWPaqWJfe8kCi9pF3w+4/sRIZL/eN3Z6rihiP3iAqLo+GFwTYEX5sK7F2mwuxTIDcDrsEOZA45AlfDCjRsXxxeLx6TbsPyawtR+cgNuO6BTag82jl4fN4qlK9ZiBnXr0RlySKsurXzhdBBxZGacmItxaoO36Fk/jNYIUH6wA2Yeul07eAwY/pUFarrcfgL87D27tKIzUDRqYPG3k1Ydv10LJbAvnsNFl+gZnumYfmv7sE0dcBbOGM6bniovPuLxu+vxXUz5mHlzkG45qFnVdgbhz6P2uaL2PzAHAx6YyWWPvZuxLOVMB+qX12B6/5+FpapA2jp/c9i+WXhcyfPZfdg4+OLMFntz+LZ82O6MOuZtAgb/rQDW596CPfcvgh3qYPZMy/twI7n1HYinZIR2YjDf6gmpI9rQqFOk+3TMtSK/NHGTfNUCQaDGDzudG3dvhJsrIb35W/Bk1MH58hhwJChWviH6j1wTFiLwEsXqB+oEc6cXCAvv6PkqukMdaDwt8H7wQh4/u7n+hZjJaG0Gst+uR4VkWqc7iKUzl+Oe26YCI9Ln9eHfLWVqNj2Gsoqa+EZOxnTLivF5DM7R770gZ/1CLDo+We02ndEqqa/acl0LNszDYv+VdXSL7Akoqp9l/3HMmwZfQ9WXK/qyAfX4YZrVwK3b8YzN5rrzD5UbqtQx4tpKIp25An41FpudbYmE9VY991ZWHnOKuy6z9RYtHc1bnigATffvwilYyNsSO1v5X4fSs6W0xp9G1iEzc9Gq8HLjWRe9f9YuOEp8Oj7R5R6Tr7/CZxOJxwOh6moEJeh/NHnCWNo6DKdTsHf9OYDCB76HfJzTgIjRgJDJfizEKytUf/GSxD46H/gys6CMzcPyNdDP1+FmYxrwe9H6GQDgqc9oM4EzA0ysfN5a1Hz9mrM/9EmDFM18OXXFmFYoQoMfXlkPpTdNxsro7Q2eWvUAa1TOs3Eqi7t5/GJKfiFTwWyOnjGdKZQW461cuF2+gLMm5pIm1Jy+epq1ZmIB4UF0fa+HEsnLcQWfap7JT1/VkT9yLbBf2LTtcgKHkRudoMK/hGqxj8EyFQh31qP4J6PEGzyqdB3qhp/TjjwtRq/Wp6jSma4xo+mJngPjIandJW+1QToNd/ih3dh+WX6vG75ULXzdVTF0Mm+ZttKrNg6MfHgb/LCm+GB97cxBr8m9v0TnnMu6XKGYQgfcGLsyXOlpcZv0D/fmLYyLgk1/p0PYsa9hxn8lNJsGvxBHPnt1+DJOoHcLAn+4UCBCn73IKDuoPpUPkPgswy1nh+ufBXyEvhS85dmn6xswKXO4QMBdZBoQcOBQci/4tnwZhMRd/DHLhycxZbgr0bZI09Yetm0onr3bhxu1iflEQ36IxBKfrQZD/nvjCP45bk386PefNbO70X1Ua/Wq6dzU0+H8P6PxvKtd2GyPq+rw3huwTysLek++L0zFmPR9Gj9LmvUZ7ICW/K7C36LgDoQ1EU4EDD4KQ3YMvjbDv4Rda/fr2r7x5GXVQ8MU4EweLAKdBXyx/Te5AEHgkdUwKv/nJ4sIFvV/LNV6Geq2qn6wNROqg21wVs9FJ6rN4Rfk4gEgr/83klaj5fYWJt6arFlyU1YvVcdw8ZOxMQicyd/D4ovnKi1rXuKz8dZwz0o9Lhjb+qJh/5zd23j7xD5wGUVpY3fEMP7tG+j2zZ+NvXQwGHL4PftL0P9n36B7Kw65GSfgGuoqsl7VPAfb1SB3tHBO9QSRLCpCc6cEBw5KiDdqmSoMwEj+P1+eOvPh+eqHvr86+GT4O1HXWrFWvBXqlru6usxWp8XnRueHq8bdI/BL8LBX9XtdojSQzKDP226c7rP+Du0NeehrdUDX+sQBE5mIPip+mEaPUBzQXtxhIbC4RqMYIsfoWZ5dk8D0NCI0MkmBE/40XokG7mX/kTfajeK5mDN1q3YmmBZI33urVyDMKywULsbtfvSu9AnIupOWl3cPfrMAgTr61QlvglZbh8yIW36UThqEXKp4HdkIhR0q4p+Ntp82UD+WAy5frW+0qkTX1OPEu3CZ4z6t8afKhd342nqUbrdFlH/sm2vHrlB6/Cj/wfB1gCyHfXqR+28r1byxOZAe+jnIr/Ih+HfT/5jHWIh3UA7d9nsgTvcVp8o+eKX1duA0vmRHv+QoFi6c8oXnzTH+ING+xmjXYSNxNVdd854+vEr3W6LqH/ZN/g1QRz73QNo+vgIAk0q+mVHDLJP2gcQDB8UnH64crzIzMtAYelcZJVcrq9IRJRebB78RET2Y8uLu0RElBwMfiIim2HwExHZDIOfiMhmGPxERDbD4CcishkGPxGRzTD4iYhshsFPRGQzDH4iIpth8BMR2QyDn4jIZhj8REQ2k9ZP55T3JSLqD9YnXvY1Wz+d03ywISLqL+mcRWlR45ftxyLW9YiI4mWtNUcT63rxsk2N3zioRGIsMxcior4Sa+Z0tyxVpGyNX7ZpFes8IqK+ZK1Bi1jnJWrAf/WibM+su2nrMrPulhERdccalmbmZT2GbDfbiceADX7ZjpUxz7xMxh11x+F4/29wHDwAx/EaoLFRLQjqaxARJZnDCeTlITR0GEJjz0Bo3OcQKhjaKVSjBa+INC8etgj+SOMy1AJ/x3Y4K/do84iI+kuw5DyEpl7W6QBgDtlo44kYkMEv2zBYx41px3tvw/XaFjWTNXsiShHqTCDwlZkIfeHC8KQpgEW08XgNuF49PYW+FMfO1+F69SWGPhGlFpVJkk2SUebMkqIt1ofCPN6f+j34o30QxgcnRavp7/ijvoSIKPVIRklWGbkVTXfLTpWU6sdvfCDGB6dNn6hFRtlWbT4RUSrTskplVqcMU4xhqujX4Dd/GOYPyFxcb7yuZrJ5h4jSgDT7qMyy5pi2SB8K83h/SMkav9DG1ZGTvXeIKJ1omaWyy6y/g94qJS/uGtPOD/ZpQyKidCLZZWSZNd9SQb8Ff3cfgPFhOQ99os8hIkofkl1GjkXT3bK+ljJNPcaHZHwYMtTuyCUiSjOSXeYsM2dbKuj34Ld+GOYPydHUpM8lIkofkl3mLDOzTveHfrlzV9Y3GOPGNszDnP9YoS0jogGqYAhwdgkw9gxg2HDAMwjIyNAXJonfD3jrgZqjwMEDwEeVQN0JfWHfaf4/i7U7Zo27bY2hMN9Ja72rNpq0f2SDrG8wb8Mosi0pub98SF+LiAaUMSorJn0ZOHe8PuMUk44ju/4M9OF1xKYf3qkFddew7ghoYR7vzoB7ZIOZBD8RDWBfuQL4zk39F/pC3lv2Qfalj6VipqVc8Auj5k9EA4g068y9BfjiRfqMFCD7Ivsk+5ZkqZxj/Rr81g+FYU80QEmwzp4LjBqtz0ghsk+yb30Q/oZUyzo29RBR3/v6t4AhQ/WJFCT7JvvYB1Ix01KyqUfwAEA0QEg7eirW9K1kH5PY5p/KGZaybfxENABI751UatPvieyr7HOSpGqWpUzwM+yJBiDpsplu+mifUynj+rUfv3lo3LRl9OGXkv/ov2nLe6umvB6Bj33wXJCD3C/k6XOT7SK0/aAUwaxauB55DMYtKMEvfQ2Bwix9Koq2I3Bte7PLUdh//Y8RGNII558fRea7+kxcCd/tExFqPYCMX/0GLn1ujy78DlovPQM4sRtZT7+kzyTqQ3Kx9Nbb9YlkqMSm+8sxbP48TCvUZ/WVxx7p9U1eDbf9U3s/fqP/vTEU0frcRzNgbuAyXiv6Mvj3/PpDDEEesrNcyJ2Qj+yJufqSOBjBGYkWwh8hGCH4A99cBP+YbH0qiigh7v/eEhX8LXD+aSUy39ZnRgn+wFW3IlCgT5jV7YH79zsY/HTqfelioHSGPhE7766VmL9kE2pyPeofQRbO//Y9uOfGifCgHEsnrcb455/B3LH6ykrFw7Ow7A/6RBfFmLtmFeYU6ZOxki9U+csb+kRiUjn4U/bibjLVq78/x1rq1FGuDaHPAvD9tUFfkoBgCxy1tZZyUn3skTnffBmZr7wYufylOryS6VgrYd96e7gEtN5l2QheasxbhLbw9zl3EcofjJDHVAYXIlSoytBIRwOiU0AewxCv2k1YencNbn5+G7Zu3oytL67FtPfmY9mrPn2Frs6/9Uk8+WSkshwzc2rgC+grxiORfU8jAz74y7d/jNqsFjTkO3Ck2Qv/MRXUJ13w767T14iTvxGOY591Ks6qPVE/SMehSjj3qeWRSlNbeKXmk+01d8eHEdZrL3vh7Pz9Du0ynvs5staYSqW+YmsvDnJEvSHP3olXkxc1BWehWFXWNC4Pxp85DIePRn9Sr9tTiEJVyelahmFQzG2hFonsexoZcMH/2b4APlC1g+N/DuD11z5CnbcJecFMZOZnoTHHieOtzfAfOKxqFg4E/xYlRbvjLkRw/HmdSuCMEfrCOGVl6iMdXH+WswFp7x+C0JklCJ51NkKnZcNxYLua/wpcMT5axF84WBs6vAe0IdEpJw9ci9fYUlzjeRqL71+Pir2VKN+4DEt/PxELrjbaaqrx8i+XYdnj5TD+9ZbfOwlTL5+FWbOsZT7WNwyDO5HwT2Tf08iACv7j7/twYvdJDDoSROjTNpzbOAIFgWzkh9zID2YgPzcPR91OeH2tanm1qmkncA4obeuPPIAsc/ndm/pCs8EIntv5AGEtgdPC4YxWv5pWIa+1ygxG4JvfgX98EdRuKxkIFZ6NwFfmwF8s07qsM+Cf/2O0fv86dPkpCi5DaKhcZTgJxx4GP/WThJ6yWYQ5v9qKFTOATUvuxMuBmVj1wnJMM84AMAzTvr0AC2ZPhvn6bum9m7F5c6SSQPu+SPYTQlPMgAr+oePccDW3oqnNC1Wfx+Bhebhw6JkoCGXDpX7UBjXPOzwXmZeMgePiUXB+MYHTOQlcvQ2+vfzgO13DFyUIlF6Ntq9FL/5ivYfRyC+q6SsQkGAvmIaAXAz2VcO1Ltxsk/nBSfUXsRCBL00Nr98tdeAo/SKCctA49hEy+CVm1F/kcchx8aFqZxnKtr2OqvaWWC/2bV6NZfcvxfr3ZNqNQdKMU6DVitpVv6Ne92rkUrE/+vWBqOLe9/Qy4Jp6xv3DKAScbfDW1yOgDgK5Iwtw5ulFCKqftD7PgamXFmHIOYORcVacFz2bT8JpXMw1/h41dHdx9wic70dqp49W9Pb7MwaHr/U2nYBL/8vvPKqP5Jj2Wc48pC3/vzaYegOps4yvqTMDOXAE1f6+8UrUi85EfU6egR8XL6rfK0f5TimVKLpxEUqlWl8wGXPn34ErSsJrWQ278BoUVz+BZUtWYoP2WlWeX4nFv9ygjb9X7dXXjEPc+55eBmR3Tq86nh145iAGtQVx2umFyBoxGP7GeoTOdSFrSOeaQiK6drNUYV1QAv/1XbtzYsJlaBszGI76j5Hxxh59ZndK4VtwEUIZavtv/AaZ7w+D/wp1NnBaBhxVL8L94hmR+/EXnAf/jK8iMEK6juqvffNIeJlgd0461b5xfWKPXm6qQoWq3Z8/pVjV780id+fUHFyHG67dhwW7lmOaTG9fikmvXoFd92lT8ZPn9b/wnD6RGHbnPIVa1A+4oS0X20rHoy3LidpPjqCl6iAcAR8yalv0teI1FW033AqfXoJaC002gl/+MVoXSHPPbfCVDtPW7KKoJNyeXxTrjWNlyHhfqv5q+xffhNYbr9ZCH00H4PpTlAPHZBXqc9V6Evp+qelbQp+oP8i3XSWithwrV5Wjaz+eybhr6xpTm30tKo0mnR375HwBFcb0O9VAdUXizT2J7nuaGFDB3+Zw4vnQYLS1ZuM7pzXh7O+Mhj8nAydqGhBqPglHdmxH1q78QJapj7xM+1RpUds8WQvngT1wHUhet0nnq4/BvXWH2mY1HEcOwPnuK3A/rmr30XqgVrwJZ71frbsHGf/9KEOfUoN8xWGiAvWoqa1FbafihU/9aW3V11GHhn1G086HWZh8bTG8xrS3GNcUe8PjqsTd3NObfU8DA6apJ6Bq+i/mjEJjixOzAtXwOIL6EuDw5kMYdFomPF9OsNtlTCI/sgGX34rWCYXAiY/gPBLtjKMVzn2xdtXkIxsojSTS3FO9Hgvnr0OVPmlVfOMarJqdSFedGCWhmUewqecU2OoZBb8zB98Mftop9MXoWWP6OPRjMOTsTl05O5cJCPb1s0eI+oN8r228iuZgVcSumeHSp6EvEtnnNDNgavy/9Q3DNe4TyInQsfLUkH77YwBXCxz7PurD3jQj1IFimDrFaYDjgwOxv0/BGQiOzFcnFzVwVrEpiE4hecZ9ujya+a03gdde1id6hzX+U+Db7pp+DH1xEs4PpFtmX4a+OBLu/hlP6Iu6A+HXMfTpVJMg/fSwPpHCZB+TFPqpbsD16iGiFPQ//w2cOK5PpCDZN9lHm2DwE1Hfk2fbb1yXmjV/2SfZt14+fz+dMPiJ6NSQYF33eLgdPVXIvsg+2Sj0Rb8Hv/WiAxENcNKO/psnw90m+4u8t+yDTdr0rWzx1YtElKLk6xnPLgl/8Yk8A18eh5zsJ2PKA9fk2Ts1R8N35MrNWaeghs+vXrSQ9a3DiMG/5hdqYec++UREKc/hRMP8O1I2+FOmjd+8Y8Z4KDeB78YlIupnRnZFyrVUkLIXd+VDCg7h7axElH4ku4ygT6XAN6Rc8Js/JH/RGH2MiCh9pHp29WvwW4+E1mn/2eP0MSKi9GHNrp6y7lRLyaYe+VCkhAqGou2cBL7IgYion0hmSXYZOZaKUrqpR7ROuljNTNlLEUREHVRWaZllkorhnxKJGunIaMyTI2fzpaX6XCKi1CVZFa22H2lef+mX4I/2wxvzzUMpbZ/7AlomT9XmERGlIskoySojt4R1aBVtfl/r9xq/9QeX6UjF98UpaLr0K2oFNvsQUQpRmSTZJBkVKbukmFmn+0PKpKj1QzIPjSJH0/rr5sInt3gTEfUzySLJJHNNX4owD83zU0G/PLLBIK+zDs3F/BgH81CK8+QJZH78ATKqD8FVdxzO5ma1AT7egYj6iKrZB3NyECgYqvXTbzvrXAQHD2kPdetjGbo+XqHrASEeaf+sHoO8zmCMW7cZaTxSMV5LRNQXzKEarViD2Zg2v85gHo+FbYLfWiKFv/Ea89BgnSYiilW08DQPzSVSDd9cjNcYzOOxGDDBL+S1BmPcvN2eirG+eWiwThMRxSpaeJqHsRZjfYN5PFYDNviFMW3etrVYlxvTVpHmERHFwhqWwhysRrFOW4ux3Mw6HYsBFfxCXm9mbNM8HmnaOt8q0jwiolhYw1KYg1VC2Bg3z480bWadjtWAC34h2zAzpo3tG+PyPsZ4pKFVtPlERNFYg9JgDVZjaASykKF1ucE6HY8BGfxCtmNmTPcU9tGGRES9ZQ3TnobmMwEz63S8bBX8xjzzsu7mExH1BXN4mgM2lvnCOh2vZAZ/Sj3/wLzjRoh394NEm2cuRETx6ilLos0zD80ZZl23v6XVg2/i/fB4BkBEiYg3O1It2HuS0k09wtq+L7Txpmo4j/4ZjuPvwdF4EI62erWAj2wgoj7icCKUOQihvLEIDf0CgsO/DOQWdQp9Y9xo5zfr7cHBFm385nFz+DuaP4Xzo+fgPPInbR4RUX8JjrgUwbOvRyhnVHu4mkPfHLjW8I3XgGzjjxb65nFn9avI+PPtDH0iSgmSRVomqWwyxJJl/S0lgr+7D8oojqqNcP3tUTWTzTlElEJUJkk2SUaZM0uKtlgfCvN4f+r34I/2QRgfnBTH4f+F66Nn9SVERKlHMkqyysitaLpbdqqkTFOPMD4Q44PTppuqkVH5n9p8IqJUpmWVyqxOGaYYw1TRr8Fv/jDMH5C5uD5er2ayeYeI0oA0+6jMsuaYtkgfCvN4f0jJGr/QxqXLJi/kElEa0TJLZZdZfwe9VUpe3DWmpZ8+EVG6kewyssyab6mg34K/uw/A+LCcJ/6qzyEiSh+SXUaORdPdsr6WMk09xodkfBgylDtyiYjSjWSXOcvM2ZYK+j34rR+G+UPSHsNARJRmJLvMWWZmne4P/fLIBlnfYIwb2zAPc/54vbaMiAao3JHA8IuAIecBnjOBrELA5dYXJknAB7TWAt79wIk9wNE3gabP9IV9p/nvntMelWA8ZsEYCvMjFKyPU4gm7Z/VI+sbzNswimxLSu72b+trEdGAMmQCcOY1wIgv6zNOsSN/BvZvUgeCvfqM5Gu67LdaUHcN646AFubx7gzY5/ELCX4iGsAm/ACY8kD/hb6Q95Z9kH3pY6mYaSkX/MKo+RPRACLNOl/+OXD6VfqMFCD7Ivsk+5ZkqZxj/Rr81g+FYU80QEmwTvopMHicPiOFyD7JvvVB+BtSLevY1ENEfe/8H6tgHaVPpCDZN9nHPpCKmZaSTT2CBwCiAULa0VOxpm8l+5jENv9UzrCUbeMnogFAeu+kUpt+T2RfZZ+TJFWzLGWCn2FPNABJl81000f7nEoZl7JNPclU89wQHFl8BprKBulzUod/yga0Tv8vtI3VZ2huhu+yZ9B6yU8Q0Of02tifqPdR7zXlNn0GUR+Ti6VJ7bJZiU33r0V5rT7ZV2Sf+/BCbyro1xu4jNcK425d4+YtKfmvf1db1lt7/l8uhrQVIDvLhdy/a0D2107oS+IjIR3I1SeiaSpD1s5HtdHAhf8Ff0GeNt5J3VPIevtFbTS8zUY4P/w+MtsfTXQbfNNLEWr7KzJe/ylc+tzuBD7/i8j71vQ63H/973Dwn/P5TvtH1KfOnAWMv0WfiJ1310rMX7IJNbke9Q8kC+d/+x7cc+NEeFCOpZNWY/zzz2CuqaJU8fAsLPuDPtFFMeauWYU5RfpkrPY9DuzfrE8kpuGSZ9tv4DJuvDKGItrNVtEM6Bu4+kJ9ngPHWk6oo1wbQu+dBt/WofqSBDUfgqMxWjmqr6Q+7KbDnZe1+vQlyRfKGo5QtqnkjEEoT8pwfQ2iU0wewxCv2k1YencNbn5+G7Zu3oytL67FtPfmY9mr0f/tnH/rk3jyyUhlOWbm1MCXyGlzIvueRgZ88JevzUJthh8N+U4caa6H/1gtHFUj4X95sL5GvFTt/PAdcL8ZpUjtWuesvLvzshMdB4WYZH4efmmeiVg6Nw9l/OUGZG03lc8OhRf4Ezu7Ieo1efZOvJq8qCk4C8Wqsq9xeTD+zGE4fLRGn9GV21OIwsJIZRgGxXK6HEki+55GBlzwf1ZWhA8e+RyOP3cGXl+dgzqVtXnBTGTmZ6Exx4Xjrc3wHzgMfHAagtuT/DAoi+DpN6Ntwu0dJTdfX6KWDb8UwRGXIhTxLO9o5zOFiEWdTXRzAuHPD9f0HS38TgPqJ/LAtXiNLcU1nqex+P71qNhbifKNy7D09xOx4GqjraYaL/9yGZY9Xg6jqb/83kmYevkszJplLfOxvmEY3ImEfyL7nkYGVPAf3zEEJ7ZlYVC1E6F9+Tj3xFgUBLKRH3IjP5iB/Nw8HHU74fW1IvRpNVCXob+yb4QKw+HeXgYV6EvGIDAufDAI5uizdMGS++G76BJ0vtISSS6CZ/wCbSWX6tMmOd9GKE8OauoAUs3gp36S0FM2izDnV1uxYgawacmdeDkwE6teWI5pxhkAhmHatxdgwezJMEdz6b2bsXlzpJJA+75I9hNCU8yACv6hU0/A5WtEU5sXDgQxeFg+Lhx6BgpC2XCpH7VBzfOOciPz20E4ZrfCOatJf2U88hA8J1LTi14i9ZqRi7nbrusob/83XO8/gsy9j8DZrK+jC+WO1tvmYyvBXONgYhiOwPiZCEotx/sWMtjSQ/1FHoccFx+qdpahbNvrqKrTZ8GLfZtXY9n9S7H+PZl2Y5A04xR0Dubqd9TrXo1cKvYncG0t7n1PLwOuqWfcg0cRcDfDW1+PQHMrckcOwZmnj0JQ/aT1gwKYelM9hkz2IeNL8V/xidzkYi2xtOMfhfPon7QvZXZYqvaut7+vDg6LtYNC5p6fwq0OFBl1jdoyx2dy4Pihmi8HjZ9py4zeQWHDEZzw/8I9iULqPfY/oQ6ARP1EnoEfFy+q3ytH+U4plSi6cRFKpVpfMBlz59+BK0rCa1kNu/AaFFc/gWVLVmKD9lpVnl+Jxb/coI2/V+3V14xD3PueXgZkd05vWw4O3DMIg9pCOO30QmSNGAx/40mEvrYfWWMtVew+1N6ds+ktOL3h8EbGCISyc4HGrXDv2RJTd05Hyf3wD86F4+gdyNx/NdouuRHBzENwbbsD7Y1VOZfCP+FmBAZJ91G1vaqfqnWrwssEu3PSqXbh/0usH39TFSpU7f78KcWqfm8WuTun5uA63HDtPizYtRzTZHr7Ukx69Qrsuk+bip88r//tn+kTiWF3zlOoJeDGhj1fwrbLx6EtL4jaT46gpeogHIE2ZHzQcXH1lMr9Ykc7f+G4cDNNtrWJJgLp1XPZM2gbcabWRTN4+jNovezbKvT15YYzVKhPuT0c+kFV07eGPlF/kG+7SkRtOVauKkfXfjyTcdfWNaY2+1pUGk06O/bJ+QIqjOl3qoHqisSbexLd9zQxoGr8baFMbHx/CurrsvGt897AsPwG7L+vAJknpebvRsYlLXB+KYHTPu1OWlUD16d6dhiu7YvhKpiCUJblIlHzn+A0fZVwtzX+UCMcTdZGejdCucPVb85c4/8i2i7+J3WGsBOuDx6BK9JXFbPGT6ea3P162X/qE3GQ2vuP63HX6usxWp9l5s4phEe7WVHu5F2P3drc7o2evgDzpsbRU2f7P6p/K737esZUrvEPmOAPhFx48fB0NDa6MevMMniyWvQlKob/zYNBI1zwzG2/YhSnb6Etpp42BhX8b/48pjtuuw3+wCE4a6w19zyEhn0RIZelqacnDH7qD4k091Svx8L56xDtnLX4xjVYNTuRrjoxSkIzj2DwW8j6xtAY723wv3T0K2hq9eCqUS8jJ6NVn5v6ug1+fSoyBj+lAXnSpXzFYTrZuSQp38XL4LeQ9Y2hMd7b4P/t3ktxzbgKFfodNf10EBp2qaq9+4D6naauncUIjhijj0fTCMeRt9SvO0Y5n0dw0BB1ahTpLIKoD8kz7tPl0cyf/B7Y+yt9oncY/BayvjE0xnsb/ESUwuR7bVP9y1hOvg/8OXnfwsVePURkb++q4G/6VJ9IQbJvso82weAnor4nPWR2/SRcq041sk+yb73sxZNOGPxEdGpIsEpTirSjpwrZF9knG4W+6Pfgt7Y9EdEAJxdPpeeMdJvsL/Lesg9JupCbbvr94q4x5MVdIhuSm7yGXxT+4hN5Br48DjnZT8aUB67Js3e8+8N35B5985TU8Nmrx0LWtw4jBn/5XLUwqK1DRJQ2HE40TFuXssGfMm385h0zxkOZqffl6EREPTGyK1KupYKUvbgrH1Iwt6ebmIiIUo9klxH0qRT4hpQLfvOH5B88QR8jIkofqZ5d/Rr81iOhddo/bIo+RkSUPqzZ1VPWnWop2dQjH4qUUM4otA2bqs8lIkp9klmSXUaOpaKUbuoRrad/U81M2UsRREQdVFZpmWWSiuGfEoka6chozJMjZ/NZN+lziYhSl2RVtNp+pHn9pV+CP9oPb8w3D6W0jZiOltOv0+YREaUiySjJKiO3hHVoFW1+X+v3Gr/1B5fpSMU35ho0nTVPrcBmHyJKISqTJJskoyJllxQz63R/SJkUtX5I5qFR5Ghaf/4D8BUm8M39RERJJlkkmWSu6UsR5qF5firol0c2GOR11qG5mB/jYB5KcbZ8hszaN5Fxci9czYfh9HvVBvh4ByLqI6pmH8zwIJAzWuun31Z4EYLZI9tD3fpYhq6PV+h6QIhH2j+rxyCvMxjj1m1GGo9UjNcSEfUFc6hGK9ZgNqbNrzOYx2Nhm+C3lkjhb7zGPDRYp4mIYhUtPM1Dc4lUwzcX4zUG83gsBkzwC3mtwRg3b7enYqxvHhqs00REsYoWnuZhrMVY32Aej9WADX5hTJu3bS3W5ca0VaR5RESxsIalMAerUazT1mIsN7NOx2JABb+Q15sZ2zSPdzdtHppFmkdEFAtrWApzsHY3HmmZwTodqwEX/EK2YWZMG9uPNB5paBVtPhFRNNagNFiD1TyMNm5mnY7HgAx+IdsxM6ZjHRqs00REiYoWorEODdbpeNkm+IUxz7wslnEiomQyh2dP49agFZHmxWPABr9BtmfW3bR1mVVPy4mIrKxBaWVe3mPI9rCtWA344BeyzUis86OtR0TUV3oKVkO0+YmwRfAbZNuRRJtPRHSqWAPVEG1+byQz+FP+UZfWHTYYP6S1EBElW6SskRJJtPmpJOVr/FbyXkREqeRUhL2tavxWxg9n/UGIiE6ldM6itKvxExHZka1r/ERE1DsMfiIim2HwExHZDIOfiMhmGPxERDbD4CcishkGPxGRzTD4iYhshsFPRGQzDH4iIpth8BMR2QyDn4jIZhj8REQ2w+AnIrIZBj8Rkc0w+ImIbIbBT0RkMwx+IiKbYfATEdkMg5+IyGYY/ERENsPgJyKyGQY/EZHNMPiJiGyGwU9EZDMMfiIim2HwExHZDIOfiMhmGPxERDbD4CcishkGPxGRzTD4iYhshsFPRGQzDH4iIpth8BMR2QyDn4jIZhj8REQ2w+AnIrIZBj8Rkc0w+ImIbIbBT0RkMwx+IiKbYfATEdkMg5+IyGYY/ERENsPgJyKyGQY/EZHNMPiJiGyGwU9EZDMMfiIim2HwExHZDIOfiMhmGPxERDbD4CcishkGPxGRzTD4iYhshsFPRGQzDH4iIpth8BMR2QyDn4jIZhj8REQ2w+AnIrIZBj8Rkc0w+ImIbIbBT0RkMwx+IiKbYfATEdkMg5+IyGYY/ERENsPgJyKyGQY/EZHNMPiJiGyGwU9EZDMMfiIim2HwExHZDIOfiMhmGPxERDbD4CcishkGPxGRzTD4iYhshsFPRGQzDH4iIpth8BMR2QyDn4jIZhj8REQ2w+AnIrIZBj8Rkc0w+ImIbIbBT0RkMwx+IiKbYfATEdkMg5+IyGYY/ERENsPgJyKyGQY/EZHNMPiJiGyGwU9EZDMMfiIim2HwExHZDIOfiMhmGPxERDbD4CcishkGPxGRzTD4iYhshsFPRGQzDH4iIpth8BMR2QyDn4jIZhj8REQ2w+AnIrIZBj8Rkc0w+ImIbIbBT0RkMwx+IiKbYfATEdkMg5+IyGYY/ERENsPgJyKyGQY/EZHNMPiJiGyGwU9EZDMMfiIim2HwExHZDIOfiMhmGPxERDbD4CcishkGPxGRzTD4iYhshsFPRGQzDH4iIpth8BMR2QyDn4jIZhj8REQ2w+AnIrIZBj8Rkc0w+ImIbIbBT0RkMwx+IiKbYfATEdkMg5+IyGYY/ERENsPgJyKyGQY/EZHNMPiJiGyGwU9EZDMMfiIim2HwExHZDIOfiMhmGPxERDbD4CcishkGPxGRzTD4iYhshsFPRGQzDH4iIpth8BMR2QyDn4jIZhj8REQ2w+AnIrIZBj8Rkc0w+ImIbIbBT0RkMwx+IiKbYfATEdkMg5+IyGYY/ERENsPgJyKyGQY/EZHNMPiJiGyGwU9EZDMMfiIim2HwExHZDIOfiMhmGPxERDbD4CcishkGPxGRzTD4iYhshsFPRGQzDH4iIpth8BMR2QyDn4jIZhj8REQ2w+AnIrIZBj8Rkc0w+ImIbIbBT0RkMwx+IiKbYfATEdkMg5+IyGYY/ERENsPgJyKyGQY/EZHNMPiJiGyGwU9EZDMMfiIim2HwExHZDIOfiMhmGPxERDbD4CcishkGPxGRzTD4iYhshsFPRGQzDH4iIpth8BMR2QyDn4jIZhj8REQ2w+AnIrIZBj8Rkc0w+ImIbIbBT0RkMwx+IiKbYfATEdkMg5+IyGYc/kM1IX1cEwp1mmyflqFW5I82bpqnSjAYxOBxp2vrGmQ+ERHFz+Fw6GNhJ9//BE6nU5vfUcLraX/0ecIYGqzTSavxmw8CRiEiosT0Zab2qsYvtXxjvrXGL/OIiChx5pq6tcYfHk+sxp9Q8IcD3zRPlUAg0G3wW6eJiKiz7gJbgt/lcmnzOgrCB4C+DH4t8E01/vZ5amgEv3l9g3lcWKeJiOyqu5A2B7k5+Dtq/uFl8seYZ6xv1mU61uBvb9bRgz8YNIZBBEOqqOGgc8aG19GLsA6FeZyIyM7MoWwNbhkapf7Dg1q4Ox2q6CHvdOrL9Rq/zDdeZ9ZlOpbgNxcJeW2ogj8c+OHwlxr/oHPGaOPW10gxtmVmnSYisoto4SxDa5FAr//wkFbj18JfBX74AKAvV+PW15h1me4p+CXIhcxvr923B35H6AcCfuSfNVqblh2THTQX6xsTEVFnkrPhPO0oRqY2fHxYZWmGlqft4W8cAExnAULGzaz5G7U7p+yA+SBgTBtFQt8IfL/fj7Y2v7bx3NxceDwebZiVlYWMjAyGPhFRDCQrJTMlO81ZKvMlYyVrJXPDB4TOmSzFYJ22iljjj7QBrWYfVG+mxuVN/X554/Aw05OLgqLhcOfm6K8iIqJk8jU1o676KNq8TergILV+lzbUzgDUgcGlpo1av7mybZ0WPQa/BL5MS+gHAuHw98sRRwV+mzr6FIwZCc/wQn1tIiLqS96jtag79Bky1ZmBSwV/hjT/qNB3uZzaUELe3NQTKfi7NPWYQ984CBht+lpNX5p21ClHACGcdu4ZDH0iolNIMleyVzJYsliriOtNP0bnG2uOW3UKflmhy9FBGw1Pa/PVNlyZGRh+7pnI9uRr84mI6NSR7JUMliyWTO7IbDU0RhUjz63h3x781iOEUTou4krTTpt2gWHQ2FHIzMnW1yYiolNNMliyWDJZstnIaetFX4N5PGJTj1HCTTzh7ppG6HuKTlNHmzx9bSIi6i+SxZLJ5vCXzDY3+Uix0oLfukBbWf3p1K7vDyAjP4dt+kREKUQyWbJZMtrc3q/9iZDtoksbvzX0tV48aoO+Np/WZZOIiFKLZLNktGR1uAdm5/C3HgCiNvVopwuqaDdnqVOI7IJB7KdPRJSCJJsloyWrJbON/I4U+sJpzDRWkD9ypJAXGbX9trY2dToxVFuPiIhSj2S0ZLVR6w+HfzjTzQcAGUZu6lFFa9tXRw5pM3JmZiB3kEdfi4iIUo1ktGR1+JpsuK3fnOlm7Rd3jQUy0I4UIenNE27qyR7E/vqU+ryNTVjy4KO4ZcnPcOKkV5+buON19bh5yb9iyYpHtW0TpTrJ6nDohzM83NwTXmbOeUfbwWNqPDzDCHs5XZALBa0+H5pbWnDaWadjyMjTtBekgxOtDXj32CfaUJ4t1JP8zGx8vnAsRufH3pwVCqmjaksNAm11CAZawjdKuHKR4R6CjCzp+WS6i4JOiWPH63DbPQ+hToX+U/92L4pGDNOXJKb6SA1u/Kf7UDDYg0eX/RinDR2iLyFKTSc+O4ZjH3+CnOxsZLndcGe6kZmZqT3OodOjm43gN2r5Wpu+XwW/rw0trS1oam5G8YXnISdN7tKVsN/88V/gU6c78VAfCWaceQHG9BT+6jNqaz0KX8N+Ff5t+szOXBm5cOefDVfmYDXFA0DSBANQf0HDp6URHD1xEvP/5Reo8zbi6QeWYHQvux4fPlqL7y15AAWePKz5lzswfIj8PiNQ/5CQkaH+Ern0GZRU8ntvU2dwbY1Rf/e9Jr/DzDxVPGn9e2z2NqDq7T3IzclBdlY23O5MZGZkhh/qZnp0c6fgD6gipwkS/C2trWhRtf2m5iZMuHSKCjP1FzsN/OHQHnxQ95k+FZ/BWbmYfc4U7QOKJBT0w9d0EG0t1doBoDsOpxtZeWciI1u6wDL8k2LPW8CWDUBT5AA41hbCDz5x4IQaPl0cwpisyL/HWB1qDeJ7VQ4MyXTgV6eHcJoadiGBkasC44o5wIQL9ZmUNPLv7Nh7gHe/OgDEV5mLpqnVj9q6ZgwryEFOlinXnGp80JnAsM+r32t6hn9A5ffeP+1UwZ+LbFXrz87K0oNfHuTWEfxarx6tmK78hq8Ghw8EcoEgXUJfnGhVoZCg+tZmdaagahdR+FuPwN/yaY+hL0JBH1ob98PvO6nPoV7b8LhKYxUAx4+pX3RN13LyhPqbH9AOsw6v+twjrRNHkW1oUS9/J2TbEdbR9kX2af1jsiYlW6OqxJ38OGmhf+hYA+578g3883/+Cf/227+os0TTtRt5D3mvxiP6jPQjWR2+/yqc4VIiZXyP/filzT+dxNKm3x31k+tjnUmbvtT2Q6HoBwYrCf+2xo9kLDyDeqe+Th9JQam8b+mspVb9LzkZVHuyGT97+k1khqrxi1sdOHlyP/7jd++izW/avlTqtPdMX9qFXUvoW0Xszqn1/dSG4ReTfAnCIfV3InKbfncC/iZ1pnBcn6JeifAXuBNpdonSTNcrsk3Zdnd62jdKTHZhUn6nJ7wt+Nm6CvhajuCObw7CsEEuzL8qH3/98GM0NPv0tRRp4slJ73uWzKFvZLkUs/ZP1FigVtFfoB81YmjWsAN/qzqlT1Cg7YQ+Rn1GBbNraKH6NzsUOTnZcJ3zOfW3uxeBoV7rOmeCtq3cwkK4hgzrOfwp+fJGAoPPUr+PTH1G/KR5Z+ljO7D9pBsnXIPwQXWbyjU1vyaAnOwc9avWf68ut3qvYvWeReHpNGV04zTCX/4Ic/h3+pdhXqC9QC+2Fwqo/1r1ifgF/c36GPWl/JwczL1yuip/j4KCKD1w4lAwZDC+d1V4e57cLH0unVJS2y+cAIy+BBj15a5l2BcAt0dfuavqmgYs/6+d+NtpZ+PCJT9A65Sv4J9/04r12xvx6Bbgutnfhuesy8LbKpoWfq8074wRKbutOa4Fv3WFjmkGf5j6DHr1d4FnTX1O/T1111Tjik924TuNVcje+xc559UXJkC9NnvPLny78WPMPLALmTVyUZ//FvqF1Pazh6oju6qJW8uQcSq0pwBZXQ/0dQ2tWPHbt1A5/GxMXHQTsgo8GDn1AoQumIz7ftOMK7/+Lcya9XU4B41BMHcUvP4snFSvkUccp7NwZof/rnbOc2OZpcZvZrzA/CLbcmSos/zETzUdTtYWT4m2NuBvbwPvvAG0tugze0G28bbalmxTtk2pya1C39I8I711fvbsW3gnfwzGz/uW1krXWl+PE3s/QtvfqvCjBXNxw3Uq9J0OdYwPYfPLZZj/fxbhppu/j+U/fwxHj6XvdblYsrs9+GUdY0X1Em0oGPxhLnfiF3xc7gJ9jPqc9hc5iWdYsi3+G0h9mR1PDj58rAH/snYndrpHYvxN31InCwVoa2rC8fcqcfyl7fjh9V/HTd+9RrubVXrAPP3ci/jtb57GDy5vw0M3D0Lzp3/Efz7132huSbx5tz+ZM9vIcpln/mvcpcbfEf6dN2B37twx4fbGODnUaWpmVvo87iKV+bPzUrpQP5GDc1ONNnqsrhn/+nQF9g0/CxP/7/eQM2woAj4f6t7/GAeffhG3XFWK2VdfroW+1PSffnYzHnzk17h2Shsu+XwWzh6ViTtn56Py/Q9RU5u+nTK0oDeNW8WfZAOcI0pjvtOVg8zskWos9sZ+h8OFrLxiNcJb+ZOh+cTJlC6UDCqkgr7YSkAV6TghN101faa1z//bxnexZ+gZmPCD78CVnaVW8+HYW+9h778+ipv/7kxcX3ouMuCD39eM373wCl58eiPm5bvx9EuNqHi/Fce9Qax6oQFjRg3HsMG5kd9X69ad3pVih++ToyHp9mM8rsF4OJs8o6epqRHehgZccs0V+uqp75VPduNAfWJdL3My3PhOyTS4otTsQ8FWtHg/Vn/f5AaPHn7xKuwzc4qQlXu6GufxNRm8VR/qY6nJU3yOPkYJkZ5z3kPhG6jk+Tw9kTqYX73GV4fqo/VY8exf8M6gMRj//W8h57ShKp/bcOSNt3Fk/WbcdNFI3PC18aqmn4FA5iBs/MN+vPzcH3Cr24nzszPx65o6VAzyI2OwE1k5o/DPt16J0SMiPJRPLhbIox1yhwN5o6VGqC9IHa9vehme/Hzk5uZpz+wxHtbW6bENAy34Dzccx5b97yCYwBF56qhxOK9wrD4VmYR/W/Nh+JqjP7pBa97JHavOEEaovyfp87iLVOf19v5Ry33J44nerZB6IEFf9z5wQpU4H89QXdOI5b/eib2FxZhwy3XIGjJYbcKvavp/RfWvN+C2y8Zg9t+fq0IvfCH3qd/vxXOb3sO9Q/NxYU4Wjrc245CvDQ8ea8SZU87EP39vMgoH9/Btg9Ln/7QL1C+9+7zoD7EE/4CrisqjleUpm/LANWm2ieVPdkYmphb1HPpCeui4885C3tAvaU0/8jA2rRYgW3LlqGWnI3foJLhzRjP0+5E0a8rjOwLqH7q1mB/r0d06xmoyLoHR3TrUS4FmoFFVpuIMfWnekZq+hP6Fd96ihb606df+9W/424O/wvenjMR1ptBf/2olnvjvd/DI8MGYnJuF1oAfzYEAnq1rwcgLRmPpP1zUc+gLaWY68YE+kX4GXI3fIHevyQPX1D9PfU5kEvyZ6vQvWvNOLOQ5PtqW2Jbfp+Kp8csFrcM1Dervc9cgkUfUnj58kDb+ydF69fe+a7OCOzMDo4flq9+pA7X1zTjZ2Bo+mpjIsqJhHmRlhn/vrPH3gq8BOPIm0BL7BVW5kCtt+m9kDMfnbpkDtycPPm8Dat7Zg8NPP4+bLhmLeVedp4W+/H14ftuHeP537+L2vGytpu9XGfFhUzP+s7YBreNH4p7vT8GY4XH8DuXegdMv1ydShy1r/AZ5tLLU5HMysrot2RnuXoW+kJo9Qz+1SERHrc2rYohUk9fWUa+VtbTtyLRWObKsowp7viVJRnZcz+UJd9l8A392Dce5371ae1nz8ePahdza57fi/371rPbQl9/Ts1v34b9VTf9WFfgTs7O03+v+Fp8K/Ua4Jo7BvfMuji/05Q3l8Q5pasAGPxGlEblgOrREhenZarz7myXl5qz7n6rAXwePwTnXz1AhrM7uGxrQ+Ek1qp/ZhFu/PLKjTV8dmJ96aS9++Zu/4J/yc3Gxqu27HEBtmw+PHqtHzoUq9G/+snZ2FzM5SMmjHTxn6DPSD4OfiFKDSwXqaROBs2cB535LlW8CZ1wO5Jwmp9XaKtpjGJ57G+/mDMdZ130NDumP7w+g/qOD2CNdNi89Hdd/ZRwyM5zwB4L4XdkHeP7Fv+LJoqGYmOOGbOWoz4cVn51E6+dG4I4bJmGIR7+zXt5D3kveU95b24cIpfgqYIg6SMnBKk0x+GlAkn/gqsKn3ZLfpYQzRCPj0daR1aQ4VSBoxbKO9hV2eiBRX1CfrTyOYcSXgKyh+LS2Eff9ugJ/DgzCWdd+Ba4sN0LBIOr2fYyjv30Ri77xeXz/ygna70pq+i/84UP8zwvvYfGgPJydlanNq2puxYOf1aFZhf7d/zAFI4eabryT5wGNmBR+T+03P3AN2Iu7WvcwfzN6+uIUh8OJkCtL1Rzc+pzuhdRnE2qSb+3pvm3X4XLBIV/Jp4aUHHFd3FVFbseP1AQvWZ2haopCaoXR1pG7O+Wfv9Ge34VsRz8ACF7c7SOhIKor38SylU/j3ezTcPbsGdoD14TU9I9t+D3mXzpa670jB2T5XUnzjtT0JfQn5Uqbfgj7m1vwaI0XOV8cix+pmv7wIbnaNtrJA9/kaxfTPPRt2Y9fBI++h9Y9zyDUHL6Nu0eZeXCf83VkFH9VnxFZy4svoPl3GxBsbNDndM81fDjybrkNmRd8UZ9DvWEO/nBYRwhj9Y82nMNqmXafReR15AY70fN2YltHMPj7Rt3Jetyz/N/xlsqn8fO+2X6gbT5ai7/97FdYNGtC+OYsFfpysV0u5Eqb/tqioTjbnYnGQBtOtLbiF7VNCH1+FJbdOg0FRvOOWcG5wGlfUCOmX2oasmXwB46p0N/1SLjGHxcH3BO+HTX8m1XoN/36CSMFYufKwKB//okKf34Rd28Zwe/3B1HrVWdz2lQH+eeaq07pPbnq7C3kh7tuC5z+rl+jF3J50Dr0m9p4zckm+CPU5jNVbX+oJ0cLdm+T+vfQ2hbx/QrVOhkZ4bMHBn/ynairx4O/fBp/OnYM51x/BTI9eVrzzskPDuDwr5/HvL8/o1PvHWne2bDxHSzMy8b4LBca2/w4qsqTdc3wjR+BpTddjDGnRbmQK90zh6tKmjT5pDFbduf0H9iWQOiLENo+/B/12q6P35XmHanpxx36IuBHyxa1XUoav/qHL1+X521s7VxUQLf6wv32HQggo3kPMhsqupSMpt3aOqKxua3rdlRpbJGgD/++ZZuybes6sg+yL5QguQmq+RjQcFj9Iqq7FjX/qXXP4YXXyjHq0i9poS//Bk9W7sfxF7bi9pnn4GZT6D/3v5V4buPbuD7DgZGOAI6rWv7htjasPRGu6Xcb+qL1pKoJqL8bdR+a9ulTwCcVjgT+7aewARf8webEvyg51NaoXRewCqmzn1CMzTuRBI4d1ccoaSL+O+zoe9/xPwlma+l4ccdYZLI8vE6ENXt6MUUnz+U5+hbw6U7giBp+9pcuJXjkL/jd/5RhQtFgHH5tJ3z1jSqPj+DI+v/B/EvHYPb0jjb9X/9+D/792V2Y63LgPFXTlwu5TWr+0yeakfel07XmnW5D3yD5UbsnvG+yH0d2qX18Q532HdRXGBgGXPD3tnUu4g05UZ7JEysHA4KoM3kmj9Sq5QAQ8QmYPnx88BhqTzbjwX+ahQsyWlH5xEZUrngM86bJs3fOae+yubHsffzmhd342ZBsnJedAbl606L+Ha+ta4H/vFHahdyIbfrRyGMj5GxE9kOGvvrw/mo1/4FhwAU/DXwOObzLf9Yif7ShOlbLiESAPC/JWrRoCJO1Om3DKOHFHcvlj7FML7JQ2xeKX+Nn+khkUlfate8IcnPc2LDlbbT5fDiz+TgWXvN5/MMVHV02N/0x/BiG23IzMVZ/dEatOhisqW1C0/jh+OcbL+raeycREvqBJHyrW4pg8FPayVCn84WDcruWwTnIyza65TrRNugytA65ukvxDf6Kvg4wxJMdcVuD87PbI122KduOtJ7sCyUgs/swPlHfgj//9VN8ddJYjCt04h+vHIeHFlyqQv9z7c07T/9+L37927cwW01/PksO6Op1KvSfOtGsddn8l5u/jLHxPIahO9rDGMPvMRAMuF49LX/6CYL1CbbHOZzI+cq/wWH54uZg3Qmc+MfvqyN+IheNVVCdUYzBD/+7PkWJiv+xzFJvjNTOplfXk4y9euLQchw4XB5uTolAavNy4T3bnaHdc6GdYemkOVb66T+6/i+4X9Xmz1Q1fVksDbIraxvhPj/8GIaC/CR917W8+eCzgGFfUOMdZ4upytYPaaOBSy7DSDBIrc9ajGs0WuTLekGpHXYu+ioaWT/adkyrUbJlDwFGTwsHqmc0kF/UqTjVPM9pZyIzr1Blbedn9xw82oCX3jyAc1TcD5E+6WreSfU7e0SFvv9zI/FjadNPNPTlOUHSnVO+vF32RZ63L8/dT5PQjxWDn9JOmz+g/vHX45OjJzuVg6qc8OrtsCq4Pz3e0GUdKYdrOs4cZDzSOvLaTkcISjIV1xKwwy8ERl4MjPpy11Kkyti/A4Z+DtoXn+g+O94Iz6B8eCadi9XHm/Beix9PqGHw80VY+v2LURTPA9fM5D3kvUZfFn5v2YeRF4UPTgPs6bs9Bj+fRUKpRmr7chNXm7UEwo9O1mr7qvgDoa7rqCLzDd2tw9hPARK4g88EcuX7rsPH4k+OeHH2GSNwx03TUXf6cNx/rAGDJkuXzamxddmMRt5D3isFv04xHrFkdkw1/ohdHImITgV5CqY7HOjSffPtD47h+f99B99c8J84VncSN8y+AHd+b4p2ob5X5D3S+ImbItas7hL8xtFC/m+MB/zxfR1av4rxixyiinBKJw9c642Q/kAwIkqEyqFMCeVMtPj8aGhuwz/NuRCbfnY1tq2ajYWzL+x4tHKipJnHLRfne64tpzIjqyW7jZ8k0hlAeyLJso7Q71hR5rU0db2bNVXJRaFEOXJPgyOj6/dtylM25YFrico4XZ0+UtJof6nVX9H2xyXrJTw//LdXKxHWCa+nbUYj49HWMa1G/S1vhNYMk5fjxk9umoI5XxmHs0cXaL+rXpPK4iD1bzQn8X/jqUKy2shxEf7XIH/PLX/vje6c8h218t2jWnfOVh+aW5rR1NyEhsZGFE+cgJGnj9FfktpCDZ+iuXx5xEcvdEud4mVPXgjnsPP0GZ21vfMW6v/1Pjmk6nNi48jLw+AH/g2uovT4/FKZ0Z1T2vilHd56Wit/yeW5LfLQNFkiF4Glh46VhIVbv9nH16bWiXB6LH3FMzPC3QRjxe6cfUwesS7fzZvsO2ilpi/NPAPgAu5nnxxC1e69yFe5k5uTi5zsHGRlGd05XervvunpnPIPKBAMaMHf5m/Tgl9CX/ryNzY1YkjRCJRcOFHfdOqT8G/76CUEvYfURPePW5B/886cQmQUfwWuKKFvaHvnbe2Ba/LsnZ4ewyDNO1LTz509B85RiZ+FUIeGhoaUvd4kNar8/F5cWCRKgsq3d+NE9RHk6X34Jfwl+DMzMrXgdzlVZUZq/+bgly+u6FzjDwd/UNV+vjyz425Hov7g8/m0kmrhL/+Q3HKTjCpE/enPW16DU53lGsFvrvHLFwt1CX6jqaetTdX41T+ultaWcPA3NqJBhf/5l16MocNP0zdPRESp5PjRY3j3T28gX4V+ntbUk4PsrGztzt3MzHCNX5p6JPg7dTfRjgQyU9Xww0P99l618sEPq/S1iIgo1UhGG234Wju+KculmHXpZ2isZLxYOz1Q5dP9n6D+RJ2+FhERpQrJZsloI6/N4W8NfeE0Fmh/9PH20NeC36U93EfKvrc7vrmIiIhSg2SzkdOS2e0PY1MlYsbrr9Oo6fYFchFA24BLno4X3uCx6k/x0d8q9bWJiKi/SSZLNmvBr7JaMjsc/vqFXK3oK+tMN3DpRwI5SmjtRCr822v7LmSqoXQJ2v3nChz7tPsvUSAior4nWSyZLNksGS1ZbdT6JcPb++3r+W7oXOPXTwW0Zh79iJGhhX+m1h0o3GUtE2+UbUdd7XH9VUREdKpJBksWSyZr2azdpJWpZbbRYtMe+uqPmRb85qOBDIxav1wkkKOHdAXKzMxQG85EljsLwTY//vjSKziqTi+IiOjUkuyVDJYslkyWbJaMDnfblBq/0XIjwR9+jTnnLW384QVS2pt5XNLEIxt0a28gfUKzs8Lh/+oLv0fle3v0VxMRUV+TzJXslQyWLJZMlmyWjNaae/RrspLh5kw3c/gP1Wg3cAntRi79uT1yF6/5qxhbWlvR0tKM5pYWNDe3oKmlSRvK/FGnj8H5UyZh6GnDtO0QEVFyHT9Wg3d37sKnnxzSAj8nJxu52bnaMCc7G9nZcsNW+EDQ/lWLnWr+RquOOhBYg18LfxX88nArCX5/QIW/T+7mVcGvQr61VQW/hL9WmtXBQM1Ty+TgUFxyLsad9zmMHMNn0xARJcNnhw7j/T1/Q1XlB+21++xsFfwq6CXwpWRlqeDXQj9La/M3av3GBV5zrb9L8Ast+FWtX75/yKj1y4Pb2tRphTn8w2cAMh0elzMDOUDIunmDPCg6fSyGjxqJocMKka+m3WqnjDcmIqLOJHt9Kksb6r04XlOLo59+hupPDqJRTUuvHe0irqrJS8DLoxgk/LWwN4W+1s4vF3j12r6K+E61fdEe/DJhhL8MjWJu8jGHv9Tufe0HgfDQHPyyXvihb+ES3lZ4m8Z7WEWaR0Q0kESq/BrzZBj+LojwNVajZ6UR5ubgz9LCX2r34aadSKFvrumb30MbWoNfyLhRAqr2bwS4EepGu7/xtEQ5GPja2rRxYx1pIpLXaNcMguGDiLFNg3mciMhOjBAWRjiH2+M7utRrnWvag1/a7sM9K42nwRrt+cY6HQeMrqEvjPH24BfWUJZitPebw9/4wpb2sFfjxgGhTa4L6MV41LPWdKRvT/tjeR8iIjuxhrH2Rw/pcOirIvdRqdq7FOmt0x7wamgcBMIXceUG247Qj9SuLzqNm4NfWENZijX8pTZvfGmLPMZZwl6Gfv2gEF4uNX71Ou21ncPf2DYRkZ0ZYWyEtIS+VlRwS/hrwa9dqA3fSKvdUyUHAm0ozTrhs4J4Ql90CX5hDmUjrI3wlwDXDgDaN3aFDwBG0PvloKAFfriZx6jtm5t5jGJmnSYiGqi6hLAe0kYJN/fotX4t0MO1/vBTFMwHAhX4pjt0Yw190WPwCyOsjQA3av/aQUA/AEjIG+Ph+R01fSnhbUYOfiIiu+oIaj34jVq/hL8+7Aj5jnFtuV7L114XIfSFdVo4qip2h8aOKtInO1jD2Qhsrag/Ru1fC3k5CKiDQvhgIBeEjYu6xoHCCP6O7TL6icjujEg2wlkLcBXoxjAc/uFw10JeawIyavhSVNCbrg8Y2zFYp8OA/w/tWO6Fi2CWbgAAAABJRU5ErkJggg==;" vertex="1" parent="Fj4VQZkK3p1aDtsN9PMZ-3">
          <mxGeometry x="3.3599999999999994" y="10" width="293.28" height="562" as="geometry" />
        </mxCell>
        <mxCell id="Fj4VQZkK3p1aDtsN9PMZ-4" value="&lt;font style=&quot;font-size: 14px;&quot;&gt;MainPage.jsx&lt;/font&gt;" style="text;html=1;align=center;verticalAlign=middle;resizable=0;points=[];autosize=1;strokeColor=none;fillColor=none;" vertex="1" parent="1">
          <mxGeometry x="155" y="410" width="110" height="30" as="geometry" />
        </mxCell>
        <mxCell id="Fj4VQZkK3p1aDtsN9PMZ-7" value="" style="swimlane;startSize=0;" vertex="1" parent="1">
          <mxGeometry x="450" y="440" width="300" height="580" as="geometry" />
        </mxCell>
        <mxCell id="Fj4VQZkK3p1aDtsN9PMZ-10" value="" style="shape=image;verticalLabelPosition=bottom;labelBackgroundColor=default;verticalAlign=top;aspect=fixed;imageAspect=0;image=data:image/png,iVBORw0KGgoAAAANSUhEUgAAAXsAAALeCAYAAABLB7HLAAAAAXNSR0IArs4c6QAAAARnQU1BAACxjwv8YQUAAAAJcEhZcwAAGdYAABnWARjRyu0AAJCuSURBVHhe7d0HgBzlfT7+Z3evSqfeQQIkBOaEIAgXbOIGhGIJ4RhMHKRATHFM4sR2LKEf4Y/txCHYFpIT23FMYsCxiEQMNtiARIuxjRu46LAROoq4A9RP7aTrd1v+73fmfXdn52bb3ZbZm+cjXqbu7rvtmXfemZ0LRXcdTICIiMa0sB4SEdEYxrAnIgoAhj0RUQAw7ImIAoBhT0QUAAx7IqIAYNgTEQUAw56IKAB896OqRIK/8SKisSEUCumxyvNFy14C3hQiorHCT9lWkbB3vgB+eBGIiEqt0rlX1rCv1JMkIvKbcudhyfvsR/JkuEEgomo3kv76Uvbxl6xlX8hWy6xbyG2IiPxsJLlWyLqFKknLPp/KZlunVE+WiKhcsrXS82nBF7uVX9SwzxXSmZaPduNARFRJownvXLctVugXJexHEvL5zvOidnT0GBFRZYTUv3x4hXW+85xGG/qjDvtsAZ1PoDunQzURhOtrEZJSW2NNhyJheZZ6DSIin1JZlojFkYjGkBiKIjEwhLgqMm24A7vQ0B9N4I8q7AsJeud0WsCHwwg3NSA8ThUV8kREY4kEfry3H/HufiTicT03Pbjz2QgYIw38EYd9pqDPN+RRE0bNxPGITBinZxARjW2xrl5Ej/UA0dGF/kgCf0RhX2jQpwW++lczqQk1k5v0HCKiYIl2diN6tDut398EeKkCv2hhnxboHuMS8uG6WtRMncjuGiIKPOneiR4+hvjgUDL0nQGeadwoNOwL/lHVSIM+Mr4RdXOmMeiJiBTJQslEyUZzhmGuLHXympdNQWGf6wHNuAytov9Jv3zt9EnWMiIiSpFslIxMJqbOT2GGwjlueM3LJO+wz/VAZjw5VP+EFfRTJ1rjREQ0nGSkOVnFZKc7U4Vz3PCa52XE18bxqkByKP/UeHh8A4OeiCgPkpWSmZKdhQZ+PvIK+2x37q5MMujralE3fbI1j4iIcpPMlOyUDM0W+G7Zlhk5w97rTjLdsQl6UTuNffRERIUy2SlZagLfrZBcNgruxnHeoRl3V0rOo+dZN0REhZPslAw1rHR1ZK3hHM9H1rDPdmcZHzwSQe2UCXoOEREVyspQlaXD8tUx9JJtWUEte/cdJR9cb3lksnbSeGseERGNnGSpZKqVreqfyJTB+Si4G0c4H8BUQsgVKuV6N0RENDqSpdZVfzVn1hYS8kbGsM+1BUkLfDUuk/JLMCIiKg7r17UqW91565Rr2vAM+0wri7QHlX9q2syqaWqwR4iIaNRMpkrGWlmbZ+vea1le3TjuG3o+iNrdCNfX6QkiIhotK1MdXTlGXpnsklfYG847dLbqZRhuYNATERWbZKsza+Wf4czkXAoK+2wiPK+eiKjoipWtBYd9pi2J/MSXiIiKK1O2FtKqF8PC3n0HZto539qRUNMyyx4mrD8OTkRExSXZanI2mbkeXTlmaLini9aNE4ow7ImIiq1Y2TriA7ROMj8ULuxPZBERUW6SrdmyN19pYV/IDYWsX+htiIiocCPJW+f6WVv2ZkXnDazeIutB9QwiIiobyV4rg/Pot3cqSp99tgcgIqLRKUbGFu0ALRER+deow56teiKi0htt1rJlT0QUAHmHvddWha16IqLyGU0Oj7hlz6AnIiq/kWYvu3GIiAKgoLA359i7sZVPRFQ6mXLXea59LiNq2TPbiYgqZyQZzG4cIqIAYNgTEQUAw56IKAAY9kRu0X507utEf1RPl1q5H48CiWFPgdJ/cB86u/VEJq9/A+fOORffeF1Pj0onfvX1lTh73hSEQiFVGjGn+QKsfmifXq4U9fGIvDHsqcS2YKUVcqYswvodepFD+x2Lsq/zyErHclXOWI92vchIvw9TVqoaGO34xnlzcO43XbfsbsXTDzyIB015bCuO6EXZtWP9GZkey7bvW1fg3M8Bt/5qr32qXKIP7fctRcuKZtzwWL9ei6j0GPZUQhL0y7Dp6s066BJoWwusPiU9zCWkF6xZgs1p6ziCU4L+sk1Y8bC9PJFowzqsxgJX4Le+0Ao4HssuG7FUL8/o4NNY/5lP4BOm3P4gHO3uDCToF6harEObfqzNV2/CMlfgt7/wS+DCK7B0boOeAzSctRTnn9SJrS/t1XOISo9hT6XzyEaoiMbmDam4nX/TZqxb3IrVXzCRuAW3rmlF89rbkqFsr7MJq++wo3zLA5usEN+43JpU5mPVQ+vQvG01bn1Ez1Lh29oCNJ/RrKcLcNInsHnnXuw15We3Iee9PHIrVm9Tz+2FVao2tqUbNqtnuwkbk3UC3rXmblz+syswZcky3PBXN6iyEhfMW4RbsQrrrjW3JCo9hj2VzvKNHi3r+WheokfFjla0qGi9/kPO4JuPy69pRuuGB62W+9INquXs2GBYFjbDeTeqXY+t29z3k6d9W/AvVhDrcsvGtD0GL/YGaKXruS3FRtXCT22UlLkr8P29fdj70G24/MKlWHrhSqz7VR8Sretw/mSgv59dOVQewQ57qx9Ydyk4x31N94Ff4+4drhZbsPFeRwu8dauK6SVoXmhPptkmyzKw9hqacbZpglvTao/hlOx96MWR2otIP07gfLx+bPmrOZgzT4rawL1nKa63uomux9JTGu31p8zB/E8+rdasJlX0+dPHeVbKnlbVfL9LJ8Bhrz60Vj/wdqxa6BzXi31qyzXLsGnxOrS5W7pVov2O1VZIj6gFntSO9beolvXi63G5fr/aX1Lpq6T69b370D3NXopVa2/Duq/chbv+S5XbVya7ZrzJXoT6/5oFWIbUMYL0x2vA+Wtb0PIbUx7E9U37MOVvnsbePll/L7b+1zfwjQvVRiHvA8J+oPZeXl2H5nuX2SHqZ2rPsm1tMzZdpt4Ta9x1LChgAhr2cnDNDs3bljvH9WK/Uq2TZfc2Y91DqX7iqqLqv8Dqn988qo3qlmsWYPW29Ndh/k3brcB1dqGYPnTT92+0fu5c3eJWZYrdKm9UrexmFc4FuXoztt+Ueifcj9cweTZmz06VKTVqZo05UKvC/qkt2CLlZ63o1HOrwsJV2GxCVM/yK3P8Z5naE3GOB1Egw779jmXJsIBj3N8Bau99jDYoK0Z2o636t6UFZKG2XBOyN3iv5rMX1oyzF6twl7N0LHOw9Cvfx/c3qBb1V76BjY+pFnfrXuw90GdtKPZ+If0oQC7DDwa7H0/r7sS+fcCSz/w7Vr0NanyfKnOw7Au34TYpqk5bW76PlXP1+lXAfRDdv/TBfLUnsugOOMb9Xu/iC2TYJ88I+dB6wDHu77df7T4/vAKta5ZVX79jtqBvPltFZAtavZ7TYlmWUljQe2lA84WX4/Irz7U27FNMy3t66rTI/Nihnq/2e1diydvPxcrP3YZbrzlXjS9xlUVYtOQKbNylb1AFrAYT1mHzKDbc5aH23D+0Gq3WXhgc436vdwlEdx1MmDK080BaGXyzwyoDb+xP9L++L9H3+t5Eb/ueRE/bnkT3a7sTXTt2JY69ujPR+fIbqmFUZV5dl1BBkljxsExsTqxIjvvb5quRwOJ1iTY97XsPr5CLsSZU0OsZbvZrn768LbFucfo863mjObHuVT3Dxft1yfS+5ni/925O3Pax2xKb9+ppD21rmzM+XubnmoH1Wcz83HyniuprvU9Yod6Z9PFqIxkrWSuZK9krGSxZLJks2SwZbfLaneMm34Mb9sIKIv2hdY77mh0ouLoKPrJ6g5or/OwvYeq1d38p3cs9DXsse4PhvWHMEfZ5cQe7fjyPMLHr35CYPXd2lrI08e/t+ga+VkWfP93QsN5n53gVKkbYh+R/0sIX6j71mM1My9Aq8s8ad8xTJR6PY9KpJ1jrEhl2t4uecJMzihw/SLJ/RWv6up1dNXKq3zJssuYPp8I2tUu+Yz0WnaJ20+2pYY+RYt9n/4a9+MaFepaXhsmYPTlbF4/+Fe02PZnh8azntuH6DHUhyu3oK28iHA7bp+wmC+yh/NPzhBkayfkMewqe7BsQo+Hvfom+r71LT42cvSFrx+y5k/WcDK7ciL1fOV9PEKUw7ImIAqAYYR/sX9ASEQUEw56IKAAY9kREAcCwJyIKAIY9EVEAMOyJiAKAYU9EFAAMeyKiAGDYExEFAMOeiCgAGPZERAHAsCciCgCGPRFRADDsiYgCgGFPRBQADHsiogBg2BMRBQDDnogoABj2REQBwLAnIgoAhj0RUQAw7ImIAoBhT0QUAAx7IqIAYNgTEQUAw56IKAAY9kREAcCwJyIKAIY9EVEAMOyJiAKAYU9EFAAMeyKiAGDYExEFAMOeiCgAGPZERAHAsCciCgCGPRFRADDsiYgCgGFPRBQADHsiogAIRXcdTOhxJBLJUYuZlqFV5J817pinSjwex6RTT7DW9bcB7Hzsa7j5G09hV4+aHH88Lv7EP2PVB+ai/uk1WHDjo7jszu34t/PttStt511X4H1rgVue+j5uOFHm7MJdH7wIt+Mm/PSH12KetZZf7MK9N1yHu/BR/M9dK3xWt4P4yTe+isf36km3ORdi1Sfeixl6snKqpZ7qm3TkII5F9YRbzQTMmFKvJyrrwC++jW9tego/6Z2Liy+9Fh/702ZMjKgF1vf9Ncd3y9+OvvImwuEwQqGQo6gAl6H80/OEGRpmOlgt+9Y78Ref+h4mXnMnvnf/JvzPjTNw/6euwO2/08t94Tncft5FeJ8qH76zVU234t+vtqff98Vn7FX8KLYbO57fhZ2/eA7be/U83+jHjie/j/sf346jeo7tGF58XM1/8jW1hh/0Y2fLc/iVeg3d5fEf+qmeasP+0ffinD/OUD66CTv1mpW089tX4Jxr78APu+bi7CkHcP+tV+DCzz+jmnzBFKyWfe8zuPnCG/HDcefg4nPmYuD5R/HEkUtxz1P/jPc/65eW/UG8+FiL+jopsWPoOAJMmj4RVjtp3kTs/P+u9WHLvgtb134UH75LbZxUq2nG8jvx1Nr3YqJeWnmZ9oj8vKeU7idrFuG6l/1Sz2p43XQd565F6zcutb4/O/7zUly0fhHueWUt3s+W/Vg2gGM9i7Dq/kdxz6cuxFvf0oxzb7wTT97/ccz47XPY4ZvW6HSc/oF3YuLzX8WnP/NZfP6fP4tPr7kDj8WW4OLFx+t1/GHg2EHseObb+PSl71VB34az/+FRPPlP7wV+cCPOuXQN7nqmDQeO+agd1XoH3nfqIixIFhUGsvPke7uw42U1mDQRDfYMfxj2euqyxg97oA2YOEkNXmnFi/IRjHXhtZcPqMaIP7qXKiFALftWrD/vCnxjt55U6qfMxcxxanjShbjlAwdw3a0+6bN/5rNYcMOTuOwrm/HlD9TjV5+/Atd9/xzc0/px7JDWyu5mXHzJRfjIpz6O91ewA3dAtY7OUXtDWHwpVv1/n8XVb51gzT/2/CZ87gtfxcPbunDxV57DNy+151fOAHb84hm8dkzGD+CxtbfhYVyKf1pzIWbKrIkn4/1/vMDee6qYVtx/6yZs1VPpDmDr95/Bjrnn4M/OuRRX33YFTtdLKkO3mmMfx/e+vXJ4y75+AmZM9EGotn0bH/7gHdhq2huR6fizb2zGl85Xn8cAtuwDdoBWcx6MPfnbWH7hHXhRL/JF2P/uNpx11SN412334QvnAT/+x6tw89MXpcL+FfVlmr0Ef/s/d+Lqijb2BzAwUI/6TN/rAbW8Ri2XA2IV4w5R6ad/Sr3fssFcBGn82c6qcIjKsZrP4gk9ldmF+NKPb8K79FRl6LC3Gh3O19Co9GvpEBvAgdbnsLV7Lt515gJMVI07S+v3cfPGg7ikwg2mfDHsR6K3CwfansXjLQcwc8lFOHuWnr+/xZo3770r8P6Kb+m7sPWuW/H3X30KO1WrpH6K+vJ89T9xyzuP+qiv9Bl8+tQbVQs5l0vtPlI9VX7ZWsxO/gio6jjLRZ959ZqM9+PoPlVnSANkku5m8sMGSXsjvTGXrpkte8NMJ4N9DIT9zk034i++1aanHGJHsXNflw9PvRzAJ+77b1wz+wBePHIMO3xzgHYAxw50Oc5s2IUN167AN+Deta/HxBkTKtxFUi2nNOoWc6bjCM1+PCDq84O1Awexo+2A43OqPftVLP/iAR6gHcvmLbkQ7/rjc4aXJXP9cfZI7CnVYrYPdL1vrXzr2/CNq96Lc85bgU/f8yw67LV8QEJ8OmY4yiTprolMTJs3o+JBn43fTr3UPrAWz/3imbTybx/QyypOzhZ7Ck8kyzPYJsdCjrXiJ2nzW3HAvkFl7XsEf//BK7DcXfx8GnOJBK8bx+qvfxbv//iNOM86Opdu5jlX4OJTKxlP7hazCtWpKjCtfm8/t6J83sLz5Lc66/qMuxbfvOYsPc/2uw2fwl29fqhnNR1bUHQ3zty1z+ALf6znOdSPn57qx/cxduMUYH9HB2bNnIn9D30S7/p//6fnerjkS2j72mV6ovyS9fQcDuJfl12Er9fchO9/axmWqPmVMrx+v8cjH7sKt0f/Gj/d/Heocy2vlOH1dA799nrq+ryqZ7o1+/F9zz6slGQ9tn4dN/z5NzP02QNv+Zv78Nin/0hP+Vcxwh4S9qYM7TyQVgbf7LDKwBv7E/2v70v0vb430du+J9HTtifR/druRNeOXYljr+5MdL78hsp8f5t/SnNBw0rJt35mWCn51s8MKyXf+plhpeRbPzOslHzrZ4aVkm/9zNDvJGMlayVzJXslgyWLJZMlmyWjTV67c9zke/Ba9nkOKyXf+plhpeRbPzOslHzrZ4aVkm/9zLBS8q2fGVZKvvUzQ79jNw4RUQDwbBwiIsoLw56IKAAY9kREAcCwJyIKAIY9EVEAMOyJiAKAYU9EFAAMeyKiAGDYExEFAMOeiCgAGPZERAHAsCciCgCGPRFRADDsiYgCgGFPRBQADHsiogBg2BMRBQDDnogoABj2REQBwLAnIgoAhj0RUQCEorsOJvQ4EonkqMVMy9Aq8s8ad8xTJR6PY9KpJ1jr+lML7llzH17SU1h0FdZ+dImeEB144svr8KNDehKn4aq118G5Rnlkqefz92DNpuQSh6m44DM34+LZerIscr2euZaXS2H1nHreatz8gZl6qpzSP3/D6+H6fFbs9cxVT8Neb/fFa3HdWXqWL7Sj/YwFiN6ewCnL9awqcfSVNxEOhxEKhRxFBbgM5Z+eJ8zQSE5L2JsytPNAWhl8s8MqA2/sT/S/vi/R9/reRG/7nkRP255E92u7E107diWOvboz0fnyGyrz/Wpr4u6bbkp8cct+Pb0/8fiXnNNqjW/flLjpS4+rJbb9W76YNl0eueuZzl5+07e36ulyyVVPd71yPY9SyVVPe7nz9ZPPQfnr6X697Hrd3aInFevzWfHXM3c9bXo9z2WV1JZoW4zE71U79ZWH9awqIhkrWSuZK9krGSxZLJks2SwZbfLaneMm38d+N87zLarldhouTrZAZuLii0/D4T+0qPaHsu8JPLFdtY7/8mK1xDbzAzdj7f9LTZdFrnq6dDx2j2phqT2QcrfwctZzN3arlt9pZ5l6zcSSM6fi8P7derpMctVTL3e+fksuuQD48aOqvV9G+1rQckh9/i4x9ViCJYuAl1T9LObzmVye/XNRMrnqqXQ89iWsWaNa/rNOU6+sf3TesQh/CC1A15IVaNTzgmjsh/1Z12Gtq0umY2/qa9LR0oLD09QHt6zdIB5y1DNdCx798WGctqICXU0563k8jp/mDIEOtPzhMKbOOl5Pl0k+r+c0VVc9mtKBjn16tBxmX4yb1zq74VSobndsLPftxmEV8DOdn8/Zx2PqIbWen+ppWYKr1q6tUBdTNtdjRiKBMzes1NPBFMADtDooL3a03GepMatVssYuX36ivK0mTx711DoeewIvTbsAl/qiP9RdT9Xy/H9rcRXu06+n3Xdbmb5wJ1c9VUidduhHuOex1Dvd8viPVLBWivRzy+t1H15adFV6X7d7ozRbhb8eLb/M9Zz5gYvL3/jIw+SbVmGOHg+ygIW9PiDn/jJtvw/3QFqCqlWiylWzfoR1FQ38DPW06JbymUsq+IU3vOop89bgiVmr9eu5Gsc/ocLhv8vaOeLiVc8luO4z0m2zTm+U1qDlrKsq2P1gbyTlNVs96wmfNDi8VEs9yS1AYZ/6wg/bzVTznC1P6bst+25yUpZ6Ct13umRJ5VvKnvX06iv/S/V6bn8CT/jt9bS6JuzgknLd7A4VXK4ukwqYuWRJ+ufv0G6kHfHYJ/WsvGH1JF8LRtjvewJfUl/4jvNUa9P1hZ85R4XSfn98ebLV0/DFMYY86ukLBdbTfm29+vFLSE6pXXOP2iRlIP3z6tOZdhxB+vHL/RnIVU/yvQCEvWrZfeVHQKZzgs+6FBfAo++27IGao57a7v2HrWMMlWvX53o9l6h2/Ut4Ivl6duCJ76jXc9HF5f8tQNbXU1r8a3DP83pSbRjuyXCMpKTk8zcty+ul9j4uXnQYP3o8dcD7iSdeKn83Xq56ku+N+R9Vyelg69SXeDjnD6fkoJPjRyvTLsDqMp96WUg9W87MvkEopfzqKUF6n4p8za+vp7T81QbBrFW5H1W5Xq9hXU6uz2emLr6Sy1VPw14PK/z2o6oteDW0DHg4mD+qCsgvaImIqlcxwj6Ap14SEQUPw56IKAAY9kREAcCwJyIKAIY9EVEAMOyJiAKAYU9EFAAMeyKiAGDYExEFAMOeiCgAGPZERAHAsCciCgCGPRFRADDsiYgCgGFPRBQADHsiogBg2BMRBQDDnogoABj2REQBwLAnIgoAhj0RUQAw7ImIAoBhT0QUAAx7IqIAYNgTEQUAw56IKAAY9kREARDQsN+ClaEQQqZcs0XP95t2rD8jVc9Fd7Tr+T72yEpV15XqFfahHeuxyPm+S/Hle5/+vvvy9VTv8x9U3YaXRWjfodfxjS141VlH337fSyuAYS9Bvwwta9uQSCRUacO6lmU+DFL5wi/A6iWbdT03Y8maBVj5iF7sS+q1vWyTHvef9ofuBpLvuy4bluql/rHlGvW+Yx3adB3b1rZg2Rnr1SfCR5ZvxJmqbqnShgmL1fyr12H+QnsVf2hH+xnL0Hf15lQ91ff9xWpoOBVZ8ML+kY3YhBVYd9N8PWM+Vt2+Aq0bHvTXl2nHg7h7WzPWfc6E0VKsvBrY9IB/WyVbrlmmvuwr9JT/tL7QiiWnmffdp9Tex+p71fv+0Cr1ybTNv2k7Ei+kpv2o845l6Nq2AjN8t/FsRXQb0Hilqdd8TLmmGTH1WQia4IW9apEkEhtVdKa0v9Six3xk4SpsT2zHqmQraQs23gusSH5ofUbt1i/DZmy8Uk/7TjtaW5rRcouje8SHu/Oy99G6+Hpc7qvWcS5bcGBNKxof3og5eo5/NKNG7XH0JRtJ7TiyoRWRM5r1dHDwAK36oN6qPqgrbvdry8n03y7DJrUrunG5nu0rqo63tDj2QvyoFVu3qdbcNendd77ss1+iguiORamNkt+6cFw671iNvsXrMMOXn835mP9CAjNUU8Tus1+A6O0JnJ7csw+OgIe93X/v3xAV87FKfVitvtszVvvyi9+uduHvvmazYy/Ej5Zio3oNtzu77x5ah+Z7V2O93w4o3rvM2ksyxxU2L1mNBb4NfN1SvuZyTNZz/MU+OHv4jLZkn32N2rsL4kHaAId9Kuj9eJDOy/wPXY/mbXfjQT+F0471WLbhemyuxpbSwmYs0aO+oj6TqY2S2kx9Tm2U/Pa+GzseRO+2Zoz7kE/f/0c2og8rMNWxkZ+vNvIRtZH331lDpRXMsLdOwdNn5Pg16P18CqOD1ce8TbU8TZeDdTbOJiwLLfJXi9nr9dzRihYV980+2iOZf5ra/LS0+rrbxqlTvf+xxddjSlUdYwimAIa9atGfsto6Bc/ZevKd5bdh3eJNWJ08Rawd6z+0Gq1Xr/NVd4l1pojubrDKw3I2zgpsTju47APLV6paDX89sfa2tIP1FSfvO1ZjmePUwC1fUO+7Tw/a9slZLUuafdqFo6j3vVG974cd73u7et9jvjtFtPQCF/btd6xWbz3QumZB6gCYVfzWipa+evvcert++pz7Kuly8h/psx/+evpvgy/vexuu35D6fC5rWYc2X5562Y7+Fvj8zJalOEW973XqfTcHaLvU5vSEAH6PQtFdBxN63GqZOZnpZKtN/lnjjnmqxONxTDr1BGtdIiIqrqOvvIlwOJxsANhFBbgM5Z+eJ8zQMNMBPxuHiCgYGPZERAHAsCciCgCGPRFRADDsiYgCgGFPRBQADHsiogBg2BMRBQDDnogoABj2REQBwLAnIgoAhj0RUQAw7ImIAoBXvSSqtPgxINZpDxM9atirhn2qxO3lIdUmCzWqptk4NRyvhhOByGR7WE6sZ8UU46qXDHuiSpDwie5TodShykE1HdUL8hSqUQE1XZWZQM1sNa3CqxRYT19g2BNVm7hqaUZ3q0Dao8pRPXOUIpNUQB2nhnPt1moxsJ7FrecoMeyJqkl0JzD0ugqlw3pGkUWmArUnqaCap2eMEOtpK1Y9i4B/vISoGsT7gIEXVflD6YJJyH3LY8hjSbdGoVjPdKOtp88w7IlKKdGtWp+tquxQ4wX2I4+EPIY81qB6zHiXnpkH1tPbSOvpQwx7olKRs0EGJJh26hllJI85+JJdh1xYz9wKqadPMeyJSmJIhYNqEUb36OkKkMeWOiQG9QwvrGfe8qqnfzHsiUph8DUVDhVogbpZBzHb9IQH1rMwuerpYwx7omKL7vVXIEhdpE5urOfIZKqnzzHsiYoqpoJAtf4SQ3raB6QuVp2cBzRZzxHzrKf/MeyJimlojwoCH7b6pE7OerGeo+OuZxVg2BMVU8zHAeCsG+s5en6umweGPVGxxI6o1t5+PeFDUjepI+tZHKaeVSKgYb8FK/XPi6UsuqNdz/eLdqw/I4SVj+jJJHu+qXfomi16fgU9shKhM9armnnItqysMr2e6Z+DUb+ecfni6ysrjkgn/ueGf8atv9STSfb8t73fLiv/t1PPL5Sqm9SxZPV0+OVDqq4P4Rd6sjAlrufuZ7FSv5bJcvsOvbAQup5VIoBhL1/wZdh09ebktX3WvbDAR4EvwbQAq7fpSYct16j5S0y927CuZVll6y1hftkmPeGSbVlZZXo97c9By9q24r2eo7oQlwTT1/FvwzJHz19wFX77k8+qchXm3/n17EGbjdSxJPV02oFbb/H4ABeihPXc87MXgBv/Tr+eutyyUC8t0KjqWF7BC/tHNmITVmDzhqV6BrD0c+uANbeqr39ltd+xSLUwJdBXqBq67FiP1fc2Y93nTL3nY9XtK9C64cEKtJx1i/iyFqy4ulnPM7ItK6+sr6f+HKy7ab6eUYTXU37KPwJ7/vdbqnUpgb4Yl+h5SbtfwmM7ZuPTf2nCaCE+cBHw+E9G0hJVpI6lqKfDL26/D7hosZ4aoRLWs71tH+afMFlPjdII61gJwezGWXw2hsdQC1pH+P0pnuuxWVqZG1bqaYfWrWjFEjQ7GyDN6nlsuxsPVqDeZ1st4u247Qw9wyHbsvLK8nou36jquBGpTb4KgZda9NgIyeV2R+QMfNVqXXq8YMe/Ext/8jH8xfF6WrWaH3sSuOT9I2yJSh1LUU/jlw/hU7gKt71fT49UyerZqcJ+NtrvGW0XjjbiOpZf8MJ++Uqs2LYayxy761u+sFoFaeXNv2lVWvgM495ILWxW8V8JS7Eq2SJ2y7asvHK+nmm24NY1rVhx+yrVxh8JuRz4yM67Pu7P34k/1uOZ2f3Pb3v/fXj8IhWm5+rZBZM6lqqeqo73HHTshYxGqep5EC/t2Af8ienG+Tt8uu2+UQT+yOpYCQFs2S/Fxlel22ZB8sDcxis3D9/NpwBJHcfZuFzP8p3J+Iu7JJw+i4cX/Bhvu+FZVPAqMZ72/O8DeOxPrnTshfjRQtymXsONf266cdTr+k8X4i1P/hj/s1vPGqOC2Y2zcBW2Wwfl7LKxuRUt7i4SP9omXTkOO6TeNDqOA/aO4ziFkz8QUWOPlthx7zkDb9nxAp4eUThJHUtQz93P4qb/OwN3JEN0tEpUTy/HTx/h3pwoUx2LIJhh79L+0N1o9ezH9xHpn3cfV5B+/MXX43K/b6T8asd6LDJn5Iwq6LXweD1SRKM6hdGD1LEE9ZQzXF7e8RQuM/3g1tk42/Cp939rZC3mEtXT8/XcfRDtUIE/kj2SUtSxRAIY9vbZIslzrtUXftmo+mrLRO2NrLu6Fau/YM4Zasf6Wzah+ZrL/V1v31Kfg1NWAyrotxfrGEOoSY8U0bnn4dMLt+E/kufWd+J/Pv8UXr7ovJF1l0gdS1DP4/78Y6nTGKXcLmfjLMZX0w4uF6BE9cS5Z+AStRFyv5648bw8jpt4KEUdSySwffYtl+kf0ugvvH/7alOWbrDPBbePNdjn3BctqAKm/Y7VkF8BtDqO3dhlpdoMjJD8oeqik756+9x6++wROaXwqpGfFy51LEk9i6xk9ZQ+++GvZ6oPv0DV8Fpq/IPjRMUiP53v+7kaGc2vPktJte0a322Psp5FoOsZmaKnS4d/cJzIT+RLXzNLT/iQ1E3qyHoWh6lnlWDYExVTZI4e8SFn3VjP0fNz3Tww7ImKqUYFgBS/kTrVHqcnFNZzdNz1rAIMe6JiCtWoIJinhrV6hg9IXaROiNjTgvUcOa96VgGGPVGxWa2+BXrCB6QuXq1j1nNkMtXT5xj2RKVgBYK0/ipM6lB3sp7wwHoWJlc9fYxhT1QKoToVCgtVOFSwX1ceW+qALF0grGf+8qmnjzHsiUolPFGFw2kqGyrQIpXHrG+265AL65lbIfX0KYY9USmFJ6iAUiFRq1qEcrCx1OQx5LFq1WMW8lN+1tPbSOvpQwx7olILNapW4emqnAlEpuqZJSD3LY8hjxVWj1ko1jPdaOvpM7xcAlE5xXuB2C4guqd4f7/Uuo7McUDN8SqUinQVRtazuPUcpWJcLoFhT1QJiT4VUPtUQHWoclBNF/gXj6R7ITJdlZkqlGar6RK1PFlPX2DYE40F8WMqoDrtYUL+9qpqrUp4JfQFwEJhVVT4hMepoWppykHCyGR7WE6sZ8Uw7ImIAoBXvSQiorww7ImIAoBhT0QUAAx7IqIAYNgTEQUAw56IKAAY9kREAcCwJyIKAIY9EVEAMOyJiAKAYU9EFAAMeyKiAGDYExEFQMDCvh3rzwhh5SN6Msmeb64cFwqtxBa9pDI86vnISkf9nGUR1u/Q65RdptdzC1Y663hNZV/NfOu56I52Pb/ccr1ers9nxV7PLXhVPf4fTMlYj3a0q/q+Ouz1Lpdc9cz3eYwtAQp7+cIswOptetJhyzVqPtahTV+yuW1tC5adsV7dohIy1HP5xrTLSicSbVi3WM2/eh1WLbRXKa9Mr6fMX4ZNV29O1bNlWQWDNFM9JWCd9Uxg3QsLKlBPux4ta9syvl7W53NJpV9PCchlGFT1PFPV40xVjwmqHi8Oq4cE/QJ0eXzPyiNXPfN9HmNPIMK+/Y5FqkUkX5gVWKHnJe1Yj9X3NmPdQ6swX8+af9N2JF5ITZdL1nq6tN+xTAXYCmzesFTPKZ/s9WzFVvVFX3Glqdd8XH5NM1pfaNXT5ZO1no9sxCY11/n6Lf3cOmDNrSoOykjXY91NyU8fVt2+Aq0bHlSxqZjP5+dSr2fa8nJR9exT9ZzqqOd8VY+YqkenntOpXu8/qNe7S73eFfs7T7nqmcfzGKsC0rK/HpulVbRhpZ5OaX/obrQuvh6XV6R17Ja5num24NY1rVjx8EaUP+pFtno242y1x7HpAROZ7XhwQyuaz2jW0+WU4/VcfLaqrVsLWsvZLWbtsaW/j+0vtegxpXWr2nwuQbPz89ms6r3tbjxY5nqeqeo5R0+KTmc9LddjhrSWc35+SyhXPfN6HmNTIMJ+/k2rsofiEvWVt1qBuk+0Ql04Oeuptd+xGpsWr8Nty/WMMsteT9XyfCGBzVimX88F2Hp7AtuTLanyyVrP5SuxYttqLHN2l3xhtQrWStMb8tsde5bujdLCZhX/lbYFB1Q9G1U9J+s5k9Xr7QxRfxhez3S5lo8dATtAm8G9y1Q0pfpuNy9ZjQUV67PPRbeUr7k8FQa+Yh9sXH1Gqg/67FsqeVAxk6XY+Kp02yxIbuQ3XrlZ7eBXUuo4wsYKbcjzY/d796l6nlLV9ayW51EcDHuh3mxny1P6bsu+m5yvHQ/i7m3NuP5D/ox6zz7oh9Tree/qCp41lMHCVdiuN/BSNja3osXdZVI2jgPG7uMw26Qrx2GH1LNSUgF5ZgWOF+UvVz2r5XkUT+DDfv5paoe4pdWnrfjh/HWMYWyxX1uvfvwS27Eei1TwWGfkuINH+ufdxxGkH78SnwFVzxdVPa0zWfwckLnqWS3Po8jYsl9+G9bBo+/Wp4FqndWypNmnXTiK9IWrtv3q5OvZjvUfUq9nxU4RzcTubkqee68CYJm7r7wsVD1OWQ2o4PE8rqH2PtZd3YrVX0gd8F5/y6YKdOOplrCu5+kVOP6Sv1z1rJbnUXwMe+lmeKEN129I9d0ua1mHtgqceplbO1rV/ntlzmzJ11JsTGzGkmRf+AL7Nwy+a0HZffYtl9nveUgHQLn7yq2D7WrY6jh2YJfUD/uWbrDPrU++nkvSux3LoVPVs08NY6qeyR8jWWUl9tqr+EKuelbL8yiFUHTXwYQet/otncy06dO0/lnjjnmqxONxTDr1BGtdIiIqrqOvvIlwOOxoDEhRAS5D+afnCTM0zDRb9kREAcCwJyIKAIY9EVEAMOyJiAKAYU9EFAAMeyKiAGDYExEFAMOeiCgAGPZERAHAsCciCgCGPRFRADDsiYgCgGFPRBQADHsiogBg2BMRBQDDnogoABj2REQBwLAnIgoAhj0RUQAw7ImIAoBhT0QUAAx7IqIAYNgTEQUAw56IKAAY9kREAcCwJyIKAIY9EVEABCTst2BlKISQKdds0fONdqw/I7V80R3ten655aqnwyMr1Tor1S0qIUc9d6zHIudyr3XKorD33Zevp/U+O5YlyyKs36HXKZsteFU99h9MGfZ65lpeLoXV88WKfd/LKwBhL1+kZWhZ24ZEIqFKG9a1LHMEunzhF2D1ks16+WYsWbMAKx/Ri8smVz2d1LqXbdLj5Za7nu0P3Q0kl+uyYaleWi6567nlGvW+Yx3adB3b1rZg2Rnr1SeinHLUc/lGPd8UtXyxmn/1OqxaaK9SHhKQyzCo6nmmqseZqh4TVD1TQdmO9jOWoe/qzRmWl0uuetrLU/VMYOoLC4IR+NFdBxOmDO08kFYG3+ywysAb+xP9r+9L9L2+N9HbvifR07Yn0f3a7kTXjl2JY6/uTHS+/Ib6HPrUwysSwIrEZj1pkXmL1yXUlzyReHVdohnNiXWvWkssm69GAlen3aL0ctXTQeq34mqP9cshj3pa9XtYT1RKrnp6vO8Vkcfr6dS2trli7/vv1ePu0ZMWmafqecSa2Jx4BUi84njfj6i6/r4C36Os9fRarj4L29zzfEYyVrJWMleyVzJYslgyWbJZMtrktTvHTb6P/Za91TLaCGe7sv2lFj2mLFyF7YntjlbSFmy8V32drixzSzRXPQ21W78Mm7HxSj1dbjnr2Y7Wlma03OLocqjE7nyOesreR+vi63F5WVvHHvJ93y1bcOuaVqx4OH39slD1PFPVc46eFJ1p9WxGjdrj6HvAvNftOLKhFZEzmvV0meSsp7L4bDTq0ZQW9Je9W6y8AniAVn9hbl+F+XqOzfTfLsMmtYu3cbmeXTFe9VR1vKUF6z5X9q96Fu56tmLrtlbgmvRuicr02Tt5vJ5LVBDdsSi1USp7F46XTJ9P9e7fsRqbFq/DbRX/bIotOKDq2ajqOdmano/5LyQwQzVF7L7wBYjensDpN7mfRbm56rl8JRq3rcZuR7fN3i+sRkyPj2UBC3u7f9Q7zOdjlfqwSkC1nbG6wl9873q237EMd1+zucx9tdl41XMpNqrXcHvyS65e14fWofne1RU4oGhkeN/vXWbtJdkbpQQ2L1mNBT58323teFC1lJuvuXzYRqD8Uv3epyTraR/0PHxGqq+8Ru3dVe4grfCq51Kc8uo6YM2C5AHa7is3e7T0x54AhX3qi5TrYOH8D12P5m1348GKhFOGeu5Yj2UbrsfmireUjPxfTyxsxhI9Wn5Z6qnmpTZKKgY+pzZKfnvfjR0P4u5tzbj+Q5VvKScPcDrr+chG9GEFpjo28vPVRj6iNvLtFXo9PespFq7C6dYGyS6nNLdiUH1CG3zTiCqNYIS9dSqgPuPB/cZX9BRGlyz1tPqY1e7nAulukGKdjbMJyypxCl6hr+eOVrSoL1Nzub9MWeo5/zS1+Wlp9UG3jZLt9dR8cYxB1fNFVU/rTJcM9fSFAuvZqV7bmGc//hgz5s/GSWxOrAASzWu9zm0QbYl1i53L7emyn42Ts54uD3ucxVEWuerpXu5+fcul0Pdd3ULOwspwFkzp5Pe+V+QMsTT22TbbMtbTvbwt0aZe37KfjZNnPZNnDVln4qSfReRHxTgbZ8yHvX2qmvqiDCvOoLS/cMllFfhS5VdPhwqF/dh6PfWG3Swre9AXVs/ybzBTrNMoVb2GF+cpi3aQJpclT8ssn7zqqQPeLMu8YfCPYoR9SP6nPlwWdZ96zGamZWgV+WeNO+apEo/HMenUE6x1iYiouI6+8ibC4XDqzDGrwB7KPz1PmKFhpgN46iURUfAw7ImIAoBhT0QUAAx7IqIAYNgTEQUAw56IKAAY9kREAcCwJyIKAIY9EVEAMOyJiAKAYU9EFAAMeyKiAGDYExEFAMOeiCgAGPZERAHAsCciCgCGPRFRADDsiYgCgGFPRBQADHsiogBg2BMRBQDDnogoABj2REQBwLAnIgoAhj0RUQAw7ImIAoBhT0QUAKHoroMJPY5EIjlqMdMytIr8s8Yd81SJx+OYdOoJ1rr+1I71ZyzA6m32VPPaNmy/ab49YUlfjqs3I7FhqZ7wgw488eV12H3xWlx3lp7lKy24Z819eElPYdFVWPvRJXrCT+zX8UeH7Kmp563GzR+YaU/41fP3YM0m4Kq118F3r+i+J/Clr/wIh/WkxZfvffr7Dpzmz9czi6OvvIlwOIxQKOQoKsBlKP/0PGGGhpkOQMteB/kSFeDWxmkzlqxZgJWP6MXKlmucy9uwrmUZFt3RrpdWmvuD6jd20Heo4Fy7dq0qq3HB/vvwpcc69HK/0K/jLBVGVj2vwswfr8M9z+vFvqRe203JTajvdLS0AMn3XRcfbuRb/lu977gAq3UdV5/Xgfu+/IT6RATL2A/7HQ/i7m3NWPc501JfipVXA5se2GJP7liP1fc6l8/HqttXoHXDg2ozUVkdj30Ja9ZIQJ2m2iI+9XyLatGfhouTLeSZuPji03D4Dy3++jLta0HLoam44BITRkuwZBHwkqq/X7X8932qpezbdx679x/GzDk+3zNSex9PbFfv+19erD6ZtpkfuBlr/19qOijGftgvXIXtie1YtVBPYws23gusuFKHe+tWtKovfnNyudJ8Npq33Y0Hd+jpilmidjf92VpKOus61VpK3yXu2OvDNtPsi3Hz2ptx8Ww9rVrNLdvVDv1ZPn1tn78H9+Eqn3bbiQ507J+KjifWqAaJLv/tvw2n7H0cnqY27Mn3PbgCdIBWunOkX2sZNl29GRuX69lisQp3PWpZ2OyL/ryZH7jYF/UoTAse/fFhnHaxX1tO0p0j4XQfXlrk1zBVdXyiw7EX4ke7sfvQYeDM9O47PwY+ZqlPorWXrDdKAezCEQEK+/lY9YJ9QLntjNUInbG+4t00Y48+UOvbEBUzcfH/0323s57w5Re/47F70HLmdY69ED9aguvUa5g6wK1e17+8AFO3P4En9ulZfrH9PtwD2QO13/erZv0I69hnHwzzP3R9ejfNNunKcdjRqmKLCpMKel93OznMXLIEUw+1oMVP4bTvCdzzBxWkfj9LyMvsmf7cm1OfSedZV0suURslv73vZTD2w/6RlQiFVkIfjh1O+udVULU6++elH3/x9bjc2Y9PmckpeOaMHL8GvZzCuEa1mPWkX1l9zIdUy9N0OVhn47yE+9Z8yV8tZq/Xc1+Hai2rwPfRHol1AHm/1IvGftgvvw3rFm/C6uSplO1Y/6HVaL16nX3QduEqrLu6Fau/YDYHavktm9B8zeVwnolPmagW/Vd+ZJ2C5+tz1s+6FBdMewlPJE8J7cAT3/kRDi+62FfdJdaZIrq7wSor5GwcOS/ceXDZB85aomo1/PXEeZf66ziTvO/4Ee5xnArc8rh63wN40DYgP6ragpVyYFZPDf/RlN9/VGV3kWCF/35UJaeHrvtx2s9qND/+cEV3Nekp//74y8HPP6qqmtdT/8bC/FZl2gVYXWWnXhbjR1UBCXsiourFX9ASEVFeGPZERAHAsCciCgCGPRFRADDsiYgCgGFPRBQADHsiogBg2BMRBQDDnogoABj2REQBwLAnIgoAhj0RUQAw7ImIAoBhT0QUAAx7IqIAKFrYJ+Lp18InIqLRK1a2jijsXdfGtyRiMT1GRETF4pWtXhmcS0Fhb/4iipvMiw9F9RQRERWLZGum3JV/+SpaN05sYEiPERFRsRQrW0cc9u4tTax/QI8REVGxuLPVq5Wfj7zDPtNuhBHrG9RjRERULM5szZXD2RStGycejSLax9Y9EVGxSKZKthbDqMPeuVUZ6urVY0RENFrOTM23BZ9J0Vr2YvBYtx4jIqLRKmamFiXszRYnEYtj4Mgxa5yIiEZOslQyVYy2VS+yhr15AOcDmXPt3Y9tzwuh/zDDnohotCRLTa46yaQ133GOvVnHva5TWthnW9GL9YCu2ySiMfQdPKKniIioUJKhkqVOXnmbi3P9grpxMj2Qe37/waM8M4eIaAQkOyVDnfLN3myKdoBWHtT5wL37D+kxIiLKlzM73bk6GsPC3n3HZto5X/qK7EoMr4yZjvUPontPh55LRES5SGZKdmbKVZllDfPor3dPF9yyd9+BYVVAF2PwWA962MInIspJslIy0/DKVKdM8zMpWjeOU7KS6p+cPsTAJyLKTDJSstJKzSwBPxojPkCbqlT6FshZjP7DR9G1m106RERuko2SkYZXltpFL1P/DJnOV15h775DrwewKzN8PeufGsovwTrbdmGor18vJSIKLslCyUTJRmdWOlnzXfOE13q5hKK7Dnr+zatEIn22c1rGzbQa09Op+Z4luV4CjdOnYPzMqdbtiYiCpqfjsHUuvQlzE/SZS6rxLMx8wzku3NMiY9gLCWYnM+0cyr/kuBq1hxmKI/DDtTVonDYZjVMnWbcnIhrr+g4fRd+hzuRfn7JKnkEv1FRq3DU03NPGiMJemNC2xpMhbk0ml3kWva5ZLxQOo37yBNRPakJtY4M1n4horJDumoGj3Rjo7EIiHk8LaRPemYq9Xmpdezq1TDjHhXvaKCjshTOo04aOwLeHqeXDivrnXGbGpbVfO67BCv1IQx0itbUI10SsDQIRkZ9JkMejMcSGhqxz5SXkh3r70/6GrDOorfjW085iLUtO63FH0HsNnbzmiaxhL0wYG85pZ1CnB7gZOuelF2u+/DPjrqHhniYi8it30HqFszO43SV9vuN28s+x3HCOC/e0U8FhL5zznCGdHt56nnO5x7Q1rv5ZQ8cyJ/c0EZHfZAre5NAV8s7x4dPWpD2eZ9ALr3lGzrAXXmHrDubk0CPw7XF7vnvajFtDHfrCzDPc00REfuEO2bRQdoS8GbrH06etUXvc47bOoZPXPKe8wl5kC99kWJuhK/DtYeagN+MibdwR/k7OdYiIKiFTuJqAFs51ZNxMZx63Bva8DEEvnOPCPe1lxGEvvEI6OdRBLdNmNec6w9Y3KymZxomI/CxTIJtx53D4PMd4AUEvvOa55R32wit4vYI5OXQEvj20Btb0sHXNQsU5bnjNIyLyg1wBbMadw9S4NUhNlyDoRUFhL3IFsdd4ttD3GgrnuJdcy4mISiVXwHoF9PChNUhNu0JeZBo3vOZlUnDYC6+gzRTUZjxT4It43P6jusJ93+5pIiK/coevczrs+L2QmW2WlzroRdHCXmQKaud8CX2ZTpvnuJn7PoxM84mIKi1T8KYHth5RZL5VdMgLs677vtzTRqb5mYwo7EW+oWymZehcZlr6Yvht9IiLez0iokrLHMZ6RHOu5w55s8x9X5nv23t+NiO+DkG2Sphl7nB2LpMnm/w37L7kdsPLsNWIiCrIziTvvHKyss/xLznPFWomM72WGZnm5zLilr2RqbUt872WmXnuoZNp9XstE5nmExGVS64wNqHulFzmGjrJPK/5ItP8fIz6CmPuB5cgNmHsrnSukE7eVlZTRV4sz3+u+yUiKheTP5n+mfxyZmEmzuXOXPO67WgzryiXkzSVzPXEDPcT9HpibmadeCKe1/pERKVQaBaZdZxhnes2hrmd87YjNepuHMNZeTPuNc9wnm4p1Muhx5y3twZERFXD5LIzoK0Wv4PzNEyRtq4e95o3GiXps5d5XkGfNk+He7ihDqH6WkTq1LCuBqFImNevJ6KqJ9e3T8RUGYwiNjiIxMAQ4v2D1jJn+GcKd6+AH03ojyrsMwW9IeOmGBLyodoaRJoaUTO+EaGaiF5CRDS2JaIxRHv6EOvuQ0L+qIkr9N0hX8zAL2rYu4M+bSj/VB1rJ09AzcTx1jwioqCKHuvBUGcXQioiTeibIM8W+GUP+0xB7xnyajzSNA61UyciFB5ZRYmIxppEPIGhw8dUS7/XCvFMoV+MwB9R53ihQV87dRLqpk9i0BMROUgmSjZKRkpWyj+RKVMN93Q+Cg77TA/qHCb/qfG6mVNQM3GctYyIiIaTjJSsdOencA8N93QuBYV9pgdzDuWfGZfKR8Y1WNNERJSZZKUJfFHswM877HM9iEw7g152Sxj0RET5k8w0XTrCGfhGrulMRn1CuzyQ88FkXA7GsuuGiKhwkp2Soe5cdU6PRF5h734QM51WGbMFCofVlmmCnktERIWyMlRlqWSq/DO8sle4p70Up2Wvg14er2ZyE38BS0Q0CpKhkqWSqc6MHY2CU9k8oB3uznFVwZoIavmDKSKiUZMslUyVbM2Uu4XIGfZed+icJ1sco2YC++mJiIrFmanOrM2Vy14Katmnhbwel6GMyrCmqdGaR0REoyeZ6sxYYYbCOZ5L1rDPdUfOLU24vrYkFzXb+Ytb0P/619WD9eg5RESlceyNx3Gg5R+R6H5Mz6ksyVTJVsOZuV6yZfaI++wNmZR5kcZ6Pad43vjF53Dk9ScR3/0dxA7erueW3s67rsCCUxfh00/rGV6eXmOts2DNM3pGyk/WqPlZb/8MPi239Sxr8BO9FhGV1/OP/SPiHY8idvhrQLxLz60syVbJWHeO52qMu+Ud9s47th5Y/jnmObc+xbLvpf/D9OkhROMh9aC/Uy9+t14yWiZsKxCs1kbiRjyMS3HPK9vRllbuxGV4FNepumXd0LiZDU+yXIG73tDLHMxGKPM6u3DXB53rqOLemL3xbSx3Ljflg9/GTr1KTu778Nhg2oZvFAt6XZSsG153PQp5DsXg8Vp61tP1/i6/a5dekJL+3qoy7Ll4vLdW8f6seMr7fRv+WF51ziqPxpS7FPrZcNvzmy9gysQYGscDAweOInrgX/SSykpr2Xtkr3M8m4Jb9m7Wg6sSrq3Rc4qj4/nbMHFSFI3jgJia7t/Xo178L9sLKyTtQ3bjo/bMH9yYmpdHWOxse80anr7mk3i/Neb0Xqxa02yNvdaW55dDvoCmLkmtuP1C55fY/vJd9wM9aXGvI8/vItzeqicMeX7OL9xrrXhRj46IfIkvvCP9PtyPIaxgkY3iCOmwSH/OTmpD4q5H6x14X9kaAB6Przx8Y3poWXuZrvf3xbUXpYWnrDPsecpzSfs8tmGb+70tRL7vm7WB9vgc5U1v4Id9po1d2PGyHi2yjlefwPQZIcTiYQz2RIHo83pJZUm2mpwdjYxh73XH7nnOyWL110e7XsGx1/4Dh1/fgqnTwuqFlxc/hP4jgwjh14gd/DIS/XZgjt5r2GGFXXpL5H1rvT+p71+baoXf86d6prOF/sNrMU/PzWTegpOt4Ytrv+YRKs9gvX7skxfMtYb5OHnNk8l6tb3yJG6xthet+OFTOhCe/pr+8jXjlqec9VeB/w3nl9W1t3HnpfbsHzw6rK6npz2mKnk8d+t1/qr+Ev/pnfbtnroJp8v0D76avnH6pA4Ws54u/3a+tUJ2EkwZw8Kh+Sb81Ny3qUfyM1EGrudmPlMPP27ek9TnIfl66/ck/fNzcvJ9tYp5Lq2P4gn3c3E+Z6t8HzecqJdllO/7Jg0GvYF2Pc4jN+TzeZagz3cDP3zPOK/PhoeB/Y/hzZ9ciaYJQ6ipU3mTsEv/kR7EOq5E7NiImxxF4cxWdyznk9NGXi17543NuHveaH5IdXjHA2j7vz/F7h+/Gx2/vRpdbd/B5Ilx9SwTiKqtrJSYerhjb3YjPvh/SHR/AokjH0Di0OVq/F59LwV4+lH9gVJh90lp/czFDT9MfWh+qlvXGalW53rVkjq9WdZ7FOsL2UU9f616DAlku7smuVdglVT3Tt4f3BOvxb+lfZHm4uLldv1ffKXNGv7kcfNF/VTyi/3+S4YH+fvXrk3f2zj/UlxmjaQC0OyZjMgbT+GHZqPzifdas3Dihfhgpo2TBMZavd4IXHan2fB5eS/+zbmBOvFkFZnlpB7f9dyS78nLr9kt8uTn9FKsMu9x8j15FD/QewDzblibHtiO13SbebveeE29iyOU7/umvxdWEOe18c9AbVAyfwdHuYeivf7TG/Hm0xdhz9PvxJHt/4Tw4JuYOFFCXjU4VZFh78EBDHUfRqLn34GupUgcXK4y50Z9D+Uj2ZpPBucyooSWPiMjnwfJ5cWffA1dB/egqXYADTVx1NWp+wwn9BbWfuGjalx2rY6+ehRHtx9G14sH0bV9F7p33KfvJV+q9SCtPmmhSCupwF13a7dadmfV7R/54fet+3DvVueWvnFJL67ALdguPPGIbg2eusCaNru9l13iCBePIB8mGTYnY6Gr9SfPObmRyth362K6gJovxcXJ+8u8cbrsUxfiCWffb76PY21QC2zpmeeaVrfySm6U33KyFZTJDeufXur4TLwXf6r3ADJ29TnCebF7C2Z93s1rmufnPs/3bedTj1rrSRclnF2eeR8LURtA+Q7ktYF3NpYKOO6gvP6r27Hr1d8hMtSJxtoYaiMqc+qBuOSN7kmQElfxeGxnN4692omjzx9Az8t70bXjeQztv1PfU3mlhbsjg/M1qj57ry3MSEyaOhf9vXEc7ZL7sv/AidxlXBUJeeuF19PyhsgTHRpSW97uOAZ7p1nr50fvJkrQywdKh8I9f2p/cLIGtj449b61sHeZzQdSt9Q/+IgdfpkOEpkzfAothR7YSvW7O1qDI+E4FuB9fMHBs+92pFIbp4dvdPX9qscp+EBfNuYgoBTruY6yRToKqX53R+t5RNRn3PStO/bkvMnnvnjHKF57xX6zpCGQdgxBNjBF+3x4GX78KZvjFl2JwX7g2DHJLZUnOlti6n/JwFdDmSfLZK24mtfXE0LP4Qgi40bXHBuJYmTtqMK+WBZfdhdq6ifjaKcK8Zi8uBL4cgaOfqFl0jxHNR6LqlZ+n4r82omY+na1i5UHO2xvxGvS9+nefdZ98Vn7FU+8Fo9YLW+vPs5USz1Ta3LeDWovwLq9Xez+2VQferIP1PSJ6pJfX6ewD2zZXzLpChr5HkJy70WNS1+xsw7u55Hc3Xb13RaFo9/XPI73sY5iUeGXdyjZr7fZWCQ38tYGpJCWpn28yD5OJJ+HfPrQM7AeW/d5mwaNkfz86pI8RlFgN2ReHP3pyeM+xfp86NZ/ssgZbMJ9/CmzukmnYPH7b8RRFfadKnOS8RmS1rzdk5Ccp0i+Dg0mMBirReO8ixCecJpeUl1GHPZmAzPaVr0I14zHkj/7AeomzEbnYTVD3aW03+XPLEoFpYTU/yTzZVksqgZ1EzDrPd9FqHaSzM3twq9aH4608HS27Bzlfa98ylrXGdyZTvcaVtQu6w59Gy+mhW+HsrRI9O1Ma0xayWq6oBas88wVKyBHHvTyPM0B6svuzL2xmXfDp/SXLWXYXkzeu/HpLvtUqpU978JLdThpw967EbRQ9Z5dWmjktfcgAZ1+IFHOorHqYe0hDO/28iYbjNSe2D15HSz1Zr3myT2x4Q2aYVT4r9LdQUnFeE2VtD3BZHehkb6RlDK6UyZTZ7AVYubi63Haez+D7h5gcMDOFimRUAIRlTVh+Svgep7kTTQWQdO88zF58eet+ZWQat1bg4KNOOyLLVzbhFMv+h9096kno1r3VtCrF7xGl7AOf9m3CtXXYea770G4foZ94zzMOzE9tKzwVl+OYWeVSIvHCtz0D7rzTByrmBaLqyUuZ6UstJd4creM3SXnweFhnLvtqi7DuiHmYuFb7LG0Pl6P/ngJjGRXgtrjGOnZDRmd3KzPEml1HCx0H2NI1be8UqFh+qAzsw8Spj47pnVpu+zOfDa2jg1Ghg20OXMrecDW8gx+oLtIkmdsqZAuZANdsLzeN7XaqYWHbiVNPmUFmma93erOkWiRvJE/kx0J20OZlvkhlf4N00/CpMW3WberVnmHvbMF727NF6N1L0J1kxEfkj6zuP3Cq9rJC28X82Yk0DilBjUN8/WtRsCcNaC+ZP/h/mKoFs9/WF/6UuzeerR6XSXTaZ8ZJQ8sZj5zxZzlkeoCcZ5KZw7+pb68l92ZqYWpbrcmvZWePNXOsdEYtkEzG6DkGRyO19ZxWugHL7TfC1Pfh29MbXB/8g29QWtuts+aSWuVSylsb0beh/QWvOM0Rx1emdldCalQTe9ayGsjmTyImuU4gWkVt96B9br1u/Our+rX+1L8qX4cc2BXNj6ZHnvnXWvSu1HUBsL0qyc3Gple0zzfN7P39eLaTyUfK1Vf8/lwd8MUeiB9TfqegPou/03e79twoZom1WoPWS16yRYZSuPSauHLPJU9NfUhNM2crm9RGdkyN9/89U3LXkR7dmJgQI6O65CXF9yEvbwJ8sLXAg3j1fa27zl9q+o0bI/CVfJtnSXP4Eg7y0IX0//sOF3PPoPB0XVgNhDJ8HF0SSSLow/65fTHMYGRX2vWcQaHOZsn2fXw1dQG5vxP6lMmU2dcJPc4vla8A6hpZxSZbjD1mozqwHaezJkrzueYLMlur9SZN+Y9SbXgzeudaumnPx+7pILxtVSXoRT9usveYO6wzfN9S3YNpbonh9d39NI+n2av1qvhloej+9tQE7FDXRqUkjGSN/bQbmDWIK4al4f0LaqXr8K+e99v0NgA1NerLVUMGJCj350R9B4LIxEPWZWNqJxP9A4iMTiKX7eZlooKyL9xt96TLYVUi6X6SWvKfc75SA7izsUNXzMH9ozCunysVr/pAtNkw5e+cZMD3u76jvLgpYvUI/XDOG2UxztKQboP3V170lVTUGtYmXfDV4f95sBqcOTq29fye9/s+rpf15HUNyO19zHsffPsvszPYN8RNKq8kcZkdADo7Qrh2KEwhvpV3khjU5VwTPqV+/Utqlcouuug5z6AezfBTMswnoiroZyOJEM1rYaTTj3BWj4au379ZXS1P4ApE8PoOhpRrfwIpp74R+jt60fHrhcwZ1YCM6fFEamvQf3JH0Joys36liMkB6RMC8fJfSaDF3Nbj3XleIC0RL0+5NJ9kFdXjQTPCD/ARJSf3977Hpw4awB9PSpzusKoGz8F9VMX4OCeVoQSnVigvoC10puwYBbCszfrW5Xf0VfeVHsfYYRCaiNkDWWvw54WMjTjwjlu+Crsu/dvxQsPfwJNNSE0TDwOJ120DrUTTrKWRXt3ofWxT6Iu/gZOOqUGdaf+C0Lj/sRaVhEjDHsi8o8/PPQXGDq8A/W19Zh5+qWY+dab9BJgb8tXsGfbgzjxuH5MWXQ6InO+o5eUX9nD3swrVdiLgWM7MXjkFUw48QI9J1206yWEa8Yh3FicxyOiYDu8/XuYfPKfIFw/Wc9JScR6Ee18HrXTztVzKiNT2AsT9EUPe+ufNV6asCcionReYW8FvPyToS6Gc9zw1QFaIiIqDYY9EVEAMOyJiAKAYU9EFAAMeyKiAGDYExEFgC9OveztG0D/4CBiMfv+iIjGAjkFMiJXzayrw7jGej23cFV/6qWE++GjXeju7UM0GmPQE9GYIpkm2SYZJ1knmVcpFQ37o9091gtBRDTWSdZJ5lVKxcJeum4Y9EQUJJJ5kn2VULGwlz56IqKgqVT2VSzsK9l3RURUKZXKvoqFPQ/GElEQVSr7KnqAloiIyoNhT0QUAAx7IqIAqFjYe/3Ci4horKtU9lUs7OUnxEREQVOp7KtY4sq1IoiIgqZS2VexsJeLAtXURPQUEdHYJ5k3mguijUZF+1ImNY1n4BNRIEjWSeZVSkXDXvqupk6agKZxjdYLwYO2RDSWSKZJtknGSdZV8lilL65nT0REmVX99eyJiKg8GPZERAHAsCciCgDf9tnL/RIRVSOvPvPRGHN99skNCoOeiKqYH7Os4i17uX0+8l2PiKjcvFrSXvJdz62qW/b2BsM7wM0yZyEi8qt8MyvbslKrSMtebuPFPT/TekREfuVuVXu1skWm+V6K0bIve9jL+k7Zpt3L3HItJyIqNq8gdcoWurmmM6mqsJf13Mw85zIZD3UeRuiVVoR2voHQ4YNAT49awD9QTkQ+FQoD48cjMXU6EvNOROLUZiQmT/UMYM8g9pjnVNVhb6adQyvkf/kMwi+/aM0jIqpW8becjsS5700LfffQ8Apnp6oJe1nHcI+b6dALLYj86HE1ky14IhojVIs/dsElSJyxxJ7MEspeAW1Uxdk4znA3TMibEnru54j83xYGPRGNLSrTJNsk49y55+Y1r5hKGvbuyjunzRO2WvS//KmeS0Q09kjGSdaZ3DOc48I9XUxlO8/ePAnzZK3pI4dQ8/QT1nwiorHMyjqVeWkZqJhhqZUs7J1PwPmknCXy7M/VTHbdEFEASJeOyjx3DlqL9FA4x4up7C17YY2rLRzPuiGiILEyT7fujVKFu1tZD9DKuJkOv/qSNSQiChKTfc48FM7xUihJ2GertHmC4V1v6jlERMEh2WdyMJNsy0aqLN045omZJyBD65exREQBI9nnzEJnNpZSScPe/QScTyzU26vnEhEFh2SfMwud3NPFVPSwz1RZMz+5nGfhEFEQ6ewblokumeaPVFkO0LorXewnQURUTbwysdS5WJY+e4MhT0SUUs5MLFvYmydVji0YEZGfOXOwXHlYsrBnoBMRFa5U2Vn0SxzLtHto1nGuP/4/1lnLiyXa3YHBHa8gHK5D/SmLEGps0ktyi7/1IsSm1espl643UPuruRj85JnqmR9C5GvfQo1eZJl1MuK1BxHedVTPuAiDN6p1+99Aza7JiC6aBux6GvUP/lovz9c7MPTx8xGv93jMrEZ6OyIql56/WZ12yWIzbi5N7B5WxSWOvZgNQbEMoA8DO3YgEqpDXaQWoa5uxPu79NLcEicuQvy0073Lwrl6LbdJiP3p32HgI1di6PK/xsDKpbCPsat4rVOlPlfMno2hj67GwI3Dy+Dys/U6Ht7xIQyu/JhH+RBiehUi8rdiZ2A+yhL2zidW7CfZXxdC69kX49CFf4ZIbb3a6tWqzWAnsGefXiO38K8fQ+2Tj6jyB7WrI3OiCP9eplX5+e+sdYZ5xwcRPWG82i3ol60NMO1MRC8+0V42UjV6Q2HdYQbjJyMxYVJ6mTZNlelqz4OIqkUpc9FLRVr2xRJL9GHfhHEIT5mHgbcvw5Hl19qBF41iKJT/ixfa9TLCL72I0GQVmFaDvAbxWdMQUvPC7futddyiJ82U/yP8239D/WPqtmoqMeds3brPx1bU/vc61N+ZKpEOa0sD9Ga5QNyPv512m/o7t1uPjcEsGwgiCryqDXsJ+r7edsx49oeYsfUxNNSNR3zJJdh9+acx0FCP+vmn6jXzNP98RM88To2owB1Ug9nvwNBFp2doLZ+IxDjZKhxF6Fk1eHM/QpK1TdMRPy1D339O70BiitxnD0K77Tl5eadu0fd3VfeWm4hKqqT5ILsmpdg9iUEF/WAbwod2I1QHTPzN/Rj/q/vRfUzNj4xD/YJCgv5kxJZ9DAPL3oF4g5rc9QzqfvOGGqlB4rTlGPyrjyF6urWiwyzAK9PD0xC76C0j6k5JvPM0xOU+e/chknZBUHWfn7wZAx+/yqNPfhKiJ8gehto72b+VYU9UxUqVl0bV5UMspAI91oaaY3sQbgoj3BhCKJJA+BcPWIF/yraH5VXTa+fjIBLjJ6lXIorQrl+j9sFfI/S7+1D3hArPbtXK79mN8LBeFTXf8yF6EH5pj92tUojJ79B7FSq0X/+1601R9Tp0SBW1F6HnGIm3LkVsttobiO9H+FeygSIi8lZVYR8L9WIAbajr34PIhFqE66T6ccTC9Yg0zcHsrkL6P4yjqHnyAdR+91uoeWE/cNrJVo6HXn4StfesQ/3GLepFehGRZ3+JyK9/p1+wrQj1yLBBtf7toZXE/QcRfrLAq3lOPh1Dy99r71Ucexk1/+cO7aMIb/wW6r4n9UhJvGU5hs6xDwiHXnkGNZ3WKBGRp6oJ+3hYBX34ddRF96lgr1dBL+kaRzwWRqjxeEyYfZK94kh0voHw/rcgdr4K0IvO9+gumYX4knMRe8dbkwdgwwflvPrxiP/RRYguOx3xOjV5+A1ErKX5SbzlfAx9eDni0lc/sB+Rnz6UxxsyCfHzrsXghafbB5N3PYPaJ1+zFxERZVAVYS9B31fTjvr4XkQa6xGqUdWOx5AYGkK89gQ0zTxZr1kMuo88rciPlPRiLfycauX3q5FZZyN28iQgegiR3/3SXpgHK7Avfgfi49REr9pTefLbUE8xh3Mx9Fd/jaEzZqkKRBF64xnUPfjLwruNiChwqiLse+ZNRmNctXzHNQI1qu0cjyI+OKRa4AvQNP0UvVaxSL/7i67yGkJyho5T569R+8MnEdm1H6E9LyPyo/vzCOuUcIu6395+hF56EnV3bcjztr9EZKfao+jdj/BP70XdDxn0RJSfqgj7vfFa9J6wFIjUALFBxAf6VcN+PsZNKfD0ymLbvxU1D34bdd97CDUvm8sl5Ek2Fnf9G+qe3FpQYIcf+ybq7/o2an/vff4/EZGXqgj7RBR480ANuiaej3h/P2ID81E/oVRBP374JRPkoK30yeelM+PZM0RElVLSC6G5i7kYmpSmb6631svHPzy2G9d8YDHCfSEcP/EQmoZKEaOTED9lrtp70JOepNvltfxDXC6SNqUB6N7luFBavkx9CnzMEd+OiMql+69XJS+A5rwImrMIMyzGhdBKHvbCuZ4phYQ9EdFY4hX2MhTO4DZD31/10usBiYjIWykzsyr67ImIaHQqF/YhbmeIKIAqlH1leVSvXZPEOPk1ERFRsHhlXzm6vMu+iZEnJSU+ZZqeQ0QUHJJ9JgfLqaxh73xy0eMy/bk/IqKxy5l95Qz8koV9ricRPbnCv34lIqqAXNlXqg1A2Vr25gnIUEpi8lQMLbSuD0xEFAiSeZJ9JgeFGZZaxbpxxMDb3qlmlv2wARFR+amsszLPoVxBL0qetM4tmGHmyRau7z3n67lERGOXZJ27VW94zSu2ood9pgqb+c6hlKHmM9D/9nOteUREY5FknGSdyT3hHrplmj9SJW3Zuysr015lYMk70PueC9QK7NIhojFEZZpkm2ScV/ZJcXJPF1NZ0tX9xJxDKXJhH9nqHbvyLzB48lusZURE1UyyTDJNss1cxCxTBprpUir6VS8Nme8eOovzts6hlPDRI6htexU1e3Yh0nkY4b4+dQfmr78SEfmMasHHGxsRmzzVOo9+aMEpiE+akgzy9CtWpobOYt2Na2j48hLHhsw3zG3NuDPY3dNm3KzrHM8k2zIiomLwClDDLHOGrgydoe4OeDNt1jXjwjkuqirszTBTcW8ApJjbOIfCOU5EVAle4eocOos76N3F3MZwjgtfh72QZYYZt2+bfzG3cXJPExGVmztQzbQJ3nyLuY3hHDd8H/ZClhtm3L69d3EvN9NO7mkionJzB6qZNsHrNe0uZrnhHHeq6rA3Q1Pc0+75Tu5pIqJycweqmTbB6yzu+WbaORTOcaeqCHsh6xjucTNt7seMew2dvOYREZWDZ5jqee6hCWkhQzMuMo27VU3YC1nPcI57BbzXuu4hEVGlmVB1D4WMu+dLUBvudbOpqrAXsq5h7s+MG2a+e142uZYTEY2WV4A6ucPWFMOMZ5qfTTHCvqzXJzAVMOFspr3mu7eAzkJEVGmZcsmEssgn68qlrC17Ye7HMOPu+cJ08Ti51yEiqhSvsHY2VIWs4w574ZyfS1V34wgT5s751njvHoT2/xLhI9sQ6tmJ0NAxtYCXSyAinwqFkaidiMT4eYhPWYzErHOBccd5BrDXxiCXMXeANtS3F+HXvovw/p9Z84iIqlV81nsQP/kjSDTOSYavM+hzhbNT1fTZZwp653ho91Oo+dUnGfRENCZIlkmmSbYZ+WRhqZQ87L2ehMxzllD791Dz0p1qAbtqiGgMUZkm2SYZ5849N695xVSWlr3hfDLmCctWL/LaJj2XiGjskYyTrDO5ZzjHS62kYe/1pMyTtaZ796Dm5f+y5hMRjWVW1qnMS8tAxQyFc7zYShb2Xk9Ahs4SabtfzWTXDREFgMo6yTx3DlqL9FA4x4upbN04w56M2sLxYCwRBYmVebp1b5Qq3N3KeoBWxs10uONX1pCIKEhM9jnzUDjHS6EkYe+utPsJSZEfTBERBY1kn8lBwzku3NPFUNZuHPMEZCi/jCUiChrJPmcWmvFSK2nYu5+EeWJSrEsgEBEFjGSfMwud3NPFVPSwz1RZMz+5nGfhEFEQ6ewblokumeaPVFkO0LorXewnQURUTbwysdS5WLY+e8GQJyJKKWcmlvUArRky9IkoyJw5WK48LFnYM9CJiApXquws+vXsZdo9NOs41x//s6us5cUSbQ9j8OfdCIfrUX9xDULTPZ/WCC3H0LuvQbx2FyI//nvU6LnxE65HrGm8nsog2o7IK48M26pG37oRsfGdCLd9Auputb/G4HnnIzG0DTU//ydE9Nyc5n0eAwsXA71Po/65b+qZRORXPe+5L+369GbcXIfePay6v0FrmA1BsQwcGYeBn/ciEqpHXaQWod/PQfygXpgPCcvzHvAu7/48Yno1t8S099h/oCBbmXm22jx6qKkDImpDMfw9GSa2+F8x+A6PsvgKvQYRVZNiZ2A+yh72xX6S/X1T0Trz4zh04UcQqa1XW71atRk8Cvxigl6jAIkehHp2pZfejox5HG7/Jmq3f827vPmKXislek5qIxIbJ3PGI77QzPtvDM2zVhsmUT8TiQZHaZyLxHgpM/UaRFRtyh34ZQn7Uj2pWHcE+442IzxlHgbevgxHll9rt6KjUQzVDlrrFCR+BKHu9rQSPvizjC9SqPM568JGnmVQP/5QR7I7JnTAYz1n6dYrutT8biXqn3GUfbrfJ3rEHhJRVStH8FekG6cYJOj7Xgpjxi8fxYytj6GhTrWSl1yC3Zd/GgMTwqhfOqDXLEBk7rBumNi0+XphgaSbxiXSJq1+6b+fhcTUcxCffjYSTeMROvS/av7diOSZ3dEmu0Uf6uf1hYgoPyUN+5K16HtU0L8aUq3h/QipTJ34m/sx/lf3o/tYH/pq61XQ9+s1CyQHRn98JeqdpeURvdBpJuIz0zcK7hLTgYzooJpWwd4oEzMRW/J5RGedioR1lLcWifFnI3baPyA6Xaa12sWIvncjBt71D8OPFzT+ubqNbEg6ENrDsCcaS0rZwi95y77YlY/1qqBvC6HmSAfCTWGEG0MIRRII/+IBjN+6AackviAPqtcukISsOTBriucB2nMQO/WTGFqUuUSnT7ZXnXiJmv5rxCTMG69AbPJ49SReQeQ5u0umtqNDvQtzETshn4OtamNx2iWIS79Q11b1Gthziaj6lborp6q6cWK9YQy8EUJdTwciE2oRrpPqxxEL1yNy3DjMnvOkvWKhBtWGwxyQNck+kO0AbTvCHR597tmK9MdPm2kfUxjcj0ifjKg3oEuFvah1HGyVPQzpm//VFx2nX6q9iUVqD0A2FglV39fvzudEHiIiS9WEfbxPBf2bNagbOIhIU70Keom6OOKxMEIzmzDhnKi94kjs/yZqf/33qFMlbHX19yC8056u2/p9hKwuGKdtiLzyNdQetoM61NeSfibOsKL743e1IyTXQGo8G9GT5qvhexCdeap9H71ZumRkvbeuxdCsuWpC1e31dagt5NRSIgq8qgh7Cfq+XRHUR1WLvrEeoRpV7XgMiaEhxKdOQtM7RrP7cwWGHOeux+tl3njEF2zEwPukK+cbGDxNQtbDlHPs/vnJussmpw2o6ZAzadT9z1+LgXd+ErEJdaqlrzYeO35mr+J24ucxcI5ab6Jq0cdVi779n1D7erteSESUn6oI+57wH6Exqlr041QTuyaiQi+K+OCQCsCpaHrbaDszBtV9Os5hl+mYKkMdqsW+C+FDP0PkUPE6x8Otam9h+/fVfb6C0LFtCO+6G3W/+Kdkt84wbzyCcP+gWvdnqGn5BIOeiEakpJdLcBdzyQQpTT9fYa2Xj1eOvhvHNQyhad8vkRjoQ6xHlbrJqD+9Vq9Rat6XS0Dzv2Jgtmr1925FuKtHz3TrQXhvvqdV8nIJREHQ/e5NycskOC+V4CzCDKv2cgmFSgyF8ebeBnRNfQ/i/f2IjZtYxqDPw7izk6dcepYmvR4RUYWUvGUvnOuZUkjL/h/WzsY1y09FeCiG4497E03Ty/33a+W8+reoV6sHof1bS3gWzHy1cVB7CokjCHVsy/9xGhcjPnEKENuF8EF28xD5nVfLXobC2Uo3w2K07Mty1UvneqYUEvZERGNJprA3Ie0eBqYbh4iIRqcsYe+1lUGI2xkiCiCP7PPMyCIre+KaJ5WonWgNiYiCxGRfOQLeqSLNa3mS8XEZfqhERDSGSfaVO+hFWcPe+QSjkxbpMSKi4HBmXzlDv2Rhn+tJRKefo8eIiIIjV/aVagNQtpa9eQIylJJonIOh6eda84iIgkAyT7LP5KAww1KrWDeOGDjhcjWzIocNiIjKS2WdlXkO5Qp6UfKkdW7BDDNPtnB9C67Vc4mIxi7JOner3vCaV2xFD/tMFTbznUMpQ7POQ/8JV1rziIjGIsk4yTqTe8I9dMs0f6RK2rJ3V1amvcrA8Zehd8F1agV26RDRGKIyTbJNMs4r+6Q4uaeLqWzp6nxizqEUudaDbPWO/dGXMDjtXdYyIqJqJlkmmSbZZq5rkykDy6HoF0IzZL576CzO2zqHUsL9+1B76NeoObodkb7dCEe71B3I3/MjIvIh1YKP10xArPF46zz6oWnvQLxhdjLM0y9ilho6i3U3rqHhy6teGjLfMLc1485gd0+bcbOuc9zNax4RUSl5Bqme5wxdGTpD3R3wZtqsa8aFc1xUVdibYabi3gBIcd7GcI4TEVWSO2DNtBk3xR307mJuYzjHha/DXsgyw4zbt82/mNsYznEiokryClgTvPkWcxvDOW74PuyFLDfMuH177+JebqYN5zgRUSV5BawJXq9pdzHLDee4U9WFvTD34xz3mnbPN5zjRESV5BWwJnidxT3fOe3knjaqIuyFrGO4x820uR8z7l7PyT1NRFRu7kB1h62ZNiEtnPNFpnG3qgl7IesZznFnwJuh17ru+UREfuAMWnfguudLUBvudbOpqrAXsq5h7s+MG2a+ex4RkZ+5wzZTAGean00xwr6s1ycwFTDhbaZNRZ3z3VtAU4iI/MIrm0woC8k053LnfOG8XamVtWUvzP0YZtw9FKaLJxOv2xARlYI7sDNxN1S9hkLGc92XUbV99sLcnxk3rPHBPQh3P4tQ7zaEBnciFD+mFvByCUTkU6EwEuGJSNTNQ2LcYsSb3gnUHecZwO5gFl7h7FT1YS9M612mQ0N7ET50P8JdP7fmERFVq/iEdyM+7c+QqLWvYS9Mq98dxl7h7FQ1ffbOoJdxM+2cHz76f6h549MMeiIaEyTLrExT2WY4s8+Zf87xUil52Hs9CfNETQkd+j4iHf+pFrCrhojGEJVpkm2Sce7cc/OaV0wlDXt35Z3T5gmHOp9C5NB9ei4R0dgjGSdZZ3LPcI4L93QxlaUbR5gnYZ6sNT24BzUH77LmExGNZVbWqcxLy0DFDEutZGHvfALOJ+UskcMPqJnsuiGiAJAuHZV57hy0FumhcI4XU9lb9sIal9MreTCWiALEyjzdujdKFe5uZT1AK+NmWs6jJyIKGpN9zjwUzvFSKEnYZ6u0eYLhvhf1HCKi4JDsMzmYSbZlI1WWbhzzxMwTkKH8MpaIKGgk+5xZ6MzGUipp2LufgPOJWZdAICIKGMk+ZxY6uaeLqehhn6myZn5yOc/CIaIg0tk3LBNdMs0fqbIcoHVXuthPgoiomnhlYqlzsSx99gZDnogopZyZWLawN0+qHFswIiI/c+ZgufKwZGHPQCciKlypsnPMdONEfx9C7790o/9LQ0js1jMrLDrvuxg4+R4MTdYzLNdhcP69GJj/WcT0nFGb/Fn1OOqx5t2oZxBRNShno7jof7xEpt1Ds45ZPxaLoenNv7CWF8PArkZEv3MINaFa1NbUIjxjNuIX7UP4eL1CHiSYY3V6IpPBH6N+553WaOy4exBtHG+Np+m7F/V7HrVG7fvsQfjQdajttGYpN2Lw5POQiG1Dzev/jIiem01s9lcQq9UTTkM/R92+B+2wn7Y4rX5E5F/dJ/wPIpGI9UdG5I+RmD9MYv7oiHtYtX+8pJj6D01Fa81f4dCFH0Gktl69ECoVjx4FHvII4nwM7UZoMEMZ6tArqRdzaE/6suigXlJ8icgMJGocpfZ4JOpUqZ2p1yCialPKXPRSlpa9cz1TitGyjx0KY2fbOTh2xhVorG/C5Jd/g+mPblDbOtXanwzU3zBkr5gH71Z4AWZ+BQMT1K5Evi17PeUtRz1mqMeaqB5r4EHU7/ouW/ZEVUZa9qZFn95it1vk7mHVtOxLQYK+72chzPjFo5ix9TE01I1HfMkl2H35p1XQhwsK+pGIT74OQ7P+LlXU4xvxpndbJTH89VY60vcIPIvaa4jq1T1E62dYw9AQry9ERPkpadhLa9608IspdlgF/S/VFm7vfoTqgIm/uR/jf3U/uo/1oa++XgV96bpUjMQ4O9CTpd4chZ2L2HR7AxB39bPHZ9yGwXlqI6CnMxuH+JSvYGjGu/W0Q+1HkKiVgwtqo3Fsmz2PiKpeqfLSqLqWfeyICvrngJpD+xFuUrtAjWr3JZJA+BcPYPwfNuCU429Ta430BVN7B9PkDJoMxetsF+m2ee0jqbLnQUQOfh21+7+OsGvnIlF7nN3XnmeJ16adxqPMRGzGxYjLuzbQgpo+ey4RUS5VFfaxIyEM/Bao6+pAZEItwnVS/Thi4XpEFozH7Lem/op7oULZDsya4jhAm1kHwt0/t0rItc2J7LlObRButjYEtfv/GXVq41DT12MtC3XJxuLv9LIvWctM379tJuKzbrbPAEqoxzhyj3VsgogoH1UT9vFOFfS/i6Cu7yAiTfUq6CXq4ojHwgidOAETlo/urPXIvs+gbmeOIqc5ukUWp/rt50g3zVcwOOtivdDLxYjKutM/pGovGxl9Vo/VR/8O3QV0dfo5+LXvRvT4L2GoSc4l7UG48yuotbcRRER5qYqwl6DvawmjflC16BvrEapR1Y7HkBgaQvz4yWhapleshLolqX77cafYXTDDul88qI1EdP69KsBPtE6njE+SH1p9BHH3ifdTPouBeX+HWINp0f8zag+364VERPkp6amX7jLSUy+72v8I41/5CcL1Dep+QkgMDCDWNYChKVMx7k9q9FojJb9ozXUqpNNuRNpvVhudc5CIuI7ARn+OcL8eV7KeepnoUa1697mVtfa58yH1GK99BvYzW4KhEz6DROzXiBz6OiKO+0/iqZdEVcXr1Et3EWYYmFMv9/aOR+/Ci1RrWMVfbBDxgX7EZ00uQtCLTrXFO1BA6bD6ykN9zyX75pPFK4gzSajHHWx3ld3D+vmBFtS+eTXqdmcIeiKiPFRFy/7lre9GrDuEeTOHMG7Hw4hOnYj6cxv0Uv8a+Y+qnC37PLBlT1RVKtGyr4qw/4e/nYlrPnQqwrE4jj/pDTSd6pMrneWQGC8/rBoCBtReQPI0zPmIWwdas+lBqLvF2oPIS+1i+zz/xG6Ee9ifT+R3YzLshXM9U4p5ITQiomqS6XIJwhncZuj7PnuvByQiIm+lzMyqOEBLRESjU7mwD3E7Q0QBVKHsK8ujeu2aJMIT9RgRUXB4ZV85urzLvomRJyUlXjtXzyEiCg7JPpOD5VTWsHc+uWh9sx4jIgoOZ/aVM/BLFva5nkR03Dv0GBFRcOTKvlJtAMrWsjdPQIZSErVzMDTuXdY8IqIgkMyT7DM5KMyw1CrWjSMGJn5IzSz7YQMiovJTWWdlnkO5gl4UnLRqe6TH8uPcghlmnmzh+ib9pZ5LRDR2Sda5W/WG17xcCs3igsI+n8pkWsfMdw6lDDWdh/6JH7bmERGNRZJxknUm94R76JZpvlM+6xgl7UNxV0SmvcrAhOXonfRRtQK7dIhoDFGZJtkmGeeVfVKc3NPFNKp0zbdi7ifmHEqRC/vIVu/YjNsx2PhOaxkRUTWTLJNMk2wzFzHLlIFmOpd81/NS0FUvzXg8IVex1OP6KpYTF85VG7HUtsO5vhk6i9zGayglHN2H2r7foGagFZHoboQTXeoO5C+2EhH5kGrBx0MTEKs53jqPfqjx7YjXzE4GefoVK1NDZ7HuxjUUCZWNx3bssm6Tup1qqavHdK7vvI1z3Cha2DedNAeRutSf6ct6e0ewu6fNuFnXOZ5JtmVERMXgFaCGV+jK0Bnq7oA302ZdMy6c47HBIXS/vrd8YW+GVlH/4vH0cG6cMw21TeOs9YS5jTDj1m0zFPcGQIq5jXMonONERJXgFa7OobO4g95dzG0M5/hQdy/69h6y5pn7CYfV7eSfGjfrOm/jHDeKFvZ1UyagYfpkaz3D3E6Ycev2BRRzGyf3NBFRubkD1Rm6hRRzG8M5LvoPdmLwSJc1vyJhL0Nn4Ifra9F0wmxrPSdzW2HGrfvIUNzLzbSTe5qIqNzcgeoMXVPc0+5ilhvOcaP7zX2IDwylB73cvlJhL8MJC45DuCb9z2TLfMOMO4emZJp2Dg33NBFRubkD1R26MjQl07RzKJzjIh6NoqttjzW/omEvs03Qy7B+2iQ0qOJmbi/c42baPe41dPKaR0RUDp5h6gpd59BrXGQaN/oPHcWAKqmgl6G+n3KEvfA6IydUG8HE+cdby9287k+Ycecw07rCPU1EVCnuUHUHrpl2D0Wmcadj7buRGIpZIW8CX1aVM3GEPZ39vo28wl44Q9gaV/9MN44UE/iNs6aifvIEaz03c3vDeX9GtnlERH7lFba55gn3tDHQ2YW+/YddQZ9+cFaY+U7uaZEx7EWmELaK7spx99urTQ4mLjg+7QdWTtY6Ds7pbMucMs0nIioXr0AV2YI3n1AW1g+p2nZLF4q1jgn7kfbXi1GHvcyWoWnZy3jtpPEYP3u6tb4XWcct33lERH7mFbb5zjN69h3E0NEeax13F441LGXYC5k286xx9c/dlWOG42ZLd072Pypu7sst03wiomqRMXQzzDcGOo+hd5/dfSPrFqMLRxR8IbThd5ya5xxKZQe7eqzpTDJVSua7CxGRX+WbWZnmG5KZkp1mPefQfdNc9+WWtWUvnK1sMy5DM+48K0eKs3UvLf+m42eibsJ4a91szP0REY01+QSzBH337g6r5e7Vqpe7GMlZOEZBLXuvO5WhjNpDV1H/pPL9R45Z62bjvi0RUbUqNM8kI03Qu29rl/TMNZzjueRs2Qtnq9uMy9CMu1v3UkwL3yrqX92kJoyfNS3jWTpEREEjZ9307D+EwaPdaUGf3qKXMrpWvSg47IWZdoa5PZ6alxb2UtS/UCSMxulT0DAl+4FbIqKxTlrzfQePIBGLD2vRu7tvrKFjHWGGhnvabdRhb4bWPxnmCHwZhmtrrMCvn9hkjRMRBUF8KIqBY91W0Mu4O8SlZAt64R4a7mm3vMJeSEg7mWkT5NZ4HoGfvl4CteMaUDOuETWN9dYfP4nU1Fh7AERE1Uxa7LFo1PrjI9G+AUR7+zDU22+HtxT1TySnVckU9M71zLiTe9rLqMNemOCWf6lpx3yv4ljXORTOcbdsy4iIyilbyDqXuUPainA1nrl4r2s4x4V72kveYS/cQesOahk6Q1xm28P0klqux13Bb7iniYj8LlMQS2hbQzWdnKfH00v6bZLjrqHhns6koLAXmQLZOXSGt8y2h8556dPOoWHug4io2khIO3kFtinp0451ihj0ouCwF8OCOUNwS2DLuFndHk+t4xw3nONOmeYTEVVaptB1zncGtve4ntYbCuc6zqHhns5lRGEv3OHrDu7kUAe+Na5vknFds4LmniYi8rtMoZx5aA2s6VIFvRhx2Its4ewO8GyhL5zjwj1NRFQtsoVzKsCtgTWdKeSFc1y4p/NV1LAXXgGeNk/9s4bJZdbA4nV/RrZlRESVlC2A04PbDO0RE/IiOS9t/dS44TUvH6MKe+EVwu55qWBPzTehL4avr0eIiKqUO5PTQjxHyItiBr0YddgbuUJ/eKC7ph3hb3jdJxGRn3mGtCPcRbZgL3bIG0ULe5EpnHMGfQGh7rVRICKqBHeIZ5Mt4EWmQC9G0Iuihr3IFtxeywoJerfR3JaIaCRGE75et812f8UKelH0sDdyBXE+Qc0wJ6Jqk09A51qnmCFvlCzsRSFhzWAnorGqkPAuRdCLkl1e0h3eMp2tEBGNVV6Z5yxO7uliKUrYuyvuVVnZWplCRBR02TIxn0wt1Ii7cbI9eKEVK8YTISLys0IbutnWL/S+RMFh7xXM7nm5pomIKJ07wHNNi0JCP++wzxbyw4aOc+Hdt/O4GyKiQHJntTO8zTn8Zp576JRP6OcV9sMD256WoTPg7en05c6hcI4TEQVZWrh7hLqMWkNH8LvXM9zTbjnD3iuoZWgVV8AP+wPjUtQ/cxsn9zQRUVBkCmor1tW4s6T+Lq29nvVPL7Nuo4fCOe6WNeydgZwMbymOkJeAT5ZE3P6j4fJHxBvqValDpLaWf0CciCgH6w+UDw0h2j+oygBivf3WHysPh8JW4Jsiee4O/XwC3zPsnSEv3EEfj9uteCmxWMwK+doJ49EwZSLqxjfqWxER0WgM9vSh/8gxDHX1WKEfiUQcwZ858MWwaXfYZwp6CXRrqILeCngJ+njMasU3zZpmteSJiKj4pKXfvf+Q1dqPhO3At4PfDnnZEOQK/Kxh7wx605qXoJeQj0ajaJozA+OmTdZrExFRKfUe6kT33gOoqamxQj/V0vcO/Ixhny3orZBXJRqLIqFuP3HeHNQ3jdNrExFROQx09+LYzr0IqbiuiajQV4FvWvnZAj955DSfoB+KDiGOBCafdDyDnoioAiR7JYMliyWTTT5bvS+6u92d58IKe/cCU9xBPzQUtVr0tY0Nem0iIio3yWDJYslkd+A7M9yQ8bRzIp0r2a16u4/eBP2E42agYcJ4vTYREVWKZLFksjPwrbMkHa17KUbYOSGsFfTplXJj6aOPRmOoaWrEhJnT9FpERFRpksmSzZLRktXJ1r38c2V7Wp+9O+jts25iGBwaxOTjZuo1iYjILySbJaMlqyWz3YFvQt+zG8faFVBFTq+U3YOGyRNRN44/liIi8hvJZsloyWrJbJPfzqAXyQO0VtGtelnRtOqHhobUrsJUa2UiIvIfyWjJatO6twPfznST78O7cVSx+urVFkL6gMK1NRg3cYJei4iI/EYyWrLaPsZq9907M11YB2jNhAysLUJCzsKxu3EaJjZZy4j8rKunFzd/+Zu44eYv4sjRLj135A53HsP1N9+Om9d+07pvIr+TrLaD3s5wuyvHXiYZHxp8s0MNE8mAl10B6ewfGBxEX38/Ziw4AVNmz7BvUQWODHTj9wfetIZx80yzaKptwOJp83B8U/5dVYmE2nr2H0RsqBPxWL/9i7XIONTUTUFNvZyxlPr1GpXHgcOd+OvP3oFOFfQb1n8Ox82arpeMzJ79B3HNqi9g8qQJ+OY/r8aMqVP0EiJ/OrLvAA60vYnGhgbU19WhrrYOtbW1iETC9i9rJexNa97qo4+qsB8cQv9AP3r7+jB/yelonFAdrXsJ+IfbfodBtStTCPUy4OKTzsLcXIGvXqOhgQ4Mdr+uAn9Iz0wXqRmHuqaTEamdpKYY+kUTj0F9QO3dTw8dR47ixn/8V3R29eDeL92M40d5mvDujkO4+uYvYfKE8bjzH/8eM6fI++lBfopeU6M+RBE9g4pK3vchtac21JPxvR81eQ9rx6syoarfx76ubrS3vIhxjY1oqG9AXV0tamtq1cczkh72MVVkF0DCvn9gAP2qVd/b14tF7zlHBZj6MFeBn+x6Ea927tNThZlUPw4fXniO9aJ4ScSjGOzdiaH+PVboZxMK16F+/EmoaZDTVRn4RfHiVuDxB4Be7y/9gaEEPv5mCEfU8N75Ccyt934f87VrII6r20OYUhvCf56QwAw1HEZCYpwKiQ/8GbBoiZ5JRSPfswMvAF2vq9AvrAGXSe9AFIc6+zB9ciMa6x25FlbjE08Cpi9W72t1Bn5M5ff2nz2nwn4cGlTrvqG+Xoe9XDRNte6tPnvHEVv7KK4d/tLJXy1BL44MqCAYoWMDfWqPQLUiMogO7Ee0f2/OoBeJ+CAGel5HdPConkOj9sBdKoHVl/7wAfVGHxxejh5Rn/aYtWkNdanX3WudAorchxXv8pmQ+/ZYx6qL1On+b8maVGw9quF2tK1oQb/rQDe+8O1ncct//Qzr//d3am/QcSxGHkMeq2e/nlF9JKvt30fZGS7F5Lr8y3qevfThV5N8+uizUc9cj6WTPnpp1ScSmTcGbhL4Qz2vyZg9g0bnWKce8SE/162a9R9S/ytOBh062ocv3vtr1Cb24F8/FsLRo6/j3x/8PYaijvuXhpz1mNXLOjjrCnpj2KmX1rmZ1tC+AUEF/S71OfDuo88mFu1VewSH9RSNiuND60m6VDJ0wY2K3Kfcdza56kYj0zCtKO/pka5+fPF/foPB/v34+8snYvrECG5c1oRtO9rQ3Teo11Kk+6axun9T5Ax6k+VShPVKmgk1W6+ktw55dFkEQXRA7a6PUGzoiB6jklFhHJk6TX1Pp6KxsQGRhc3qkz2KkJC/ArRwkXVf46ZNQ2TK9NyBT8U3fjYwaYF6P2r1jMJJ182t3/olnjlahyORiXh1z5DKNTX/YAyNDY3WNeAtkTr1WPPVYx5nT1cpc8qlCXz5J2Q8+Y0wgS+slXQJvERM/TegJwoXj/bpMSqlpsZG/MXS81R5PyZPznDmTAEmT5mEq5fZ9zdhHP/kZkVIq37aIuD4dwNz3jW8TD8DqJugVx5uz8Fu3Pbfz6F1xslYcvPHMXDOBbjlvgHc/0wPvvk4cOWH/xwTFrzXvq/j/th+rCo/ocIru8142lUv01di2NvUazCq9597RyWnPqd1B/fgA2/+Flf1tKNh++9kf1YvHAF124YXf4s/72nDJW/8FrUH5cA8vwsVIa36hqlqa65a3O4y5VQV1OcA9cM37p3dA1j7v1vx8syTceanr0X95AmYfe5ZSJz1dnzhvj4svfQKXHbZpQhPnIv4uDnoitbjqLqNXC64mtmZbX9W0/NcvZR6mMas5FwxsEI1ag9+5LuRoTBbhWUxNAS0tgDPPwsM9OuZoyD30aLuS+5T7pv8qU4FvavrRc6y+eKmrXi+aS5Ou+4Kqwdu4NgxHNn+GoZa2/GZv/kLrLxSBX04pLbrCTz82NO48W8/jWuv/yhuW/ctdByo3uNs2bJb99nbK1njeqsgGPa2SN3ID9pE6vgH2cvG+iAXcU9K7ovfAf+rTV2Rd/eBbvzjPc/hubrZOO3aK9ROwWQM9fbi8Asv4/CWZ/CJj1yKa1d80PpVqZy5cu93H8H/3ncvPv4nQ7jj+ono2/tT/NeG76Ovf+Rdt5XkzGyT5TJPZqe17FOBn36joKsbN9fuPyxQSO2C1tZXz6Um/CzaMN7XhSpENsi9B63RA519uP3e3+ClmQtw5t9djcbpUxEbHETnK23Yee8juGHZ+fjw8j+xgl5a9Pduehhf/tp38KFzhvDuxfU4eU4tbvpwE15+ZQcOHqreEyuscHeMG4Un2BgWytA5H440orZhthrLv/M+FIqgfvx8NcKf0RdD35Gjvi5UDCqY4oP5lZgqcvKD/BCqd5/V377+e7/Hi1NPxKKPX4VIQ71abRAHtr6A7bd/E9e/7yR85PxTUINBRAf78OAPnsQj934P1zXV4d4tPfjNKwM43BXHV3/QjblzZmL6pHHej2udgl2dDeFQ/+v7EuZSCeYCaHJNnN7eHnR1d+PdH/yAXtX/nnzzD3jj2MhOk2ysqcNVb/ljRDK04BPxAfR3tanPmPzoIsebrQK+tvE41I87QY1ze1oMXe079Jg/TZi/UI/RiMgZb1277B81yfVwcpF2V1TdZrATezqOYe2m3+H5iXNx2kevQOOMqSqTh7D/2Rbsv/9hXPuO2Vh50WmqRV+DWO1EfO8nr+Ox7/4EH6sL448aavGdg534zcQoaiaFUd84B7d8bCmOn+Vx4Tvp/JfLKoybCYw/XlqBeoF//PyHj2FCUxPGjRtvXSPHXBBNLpkwpsJ+d/dhPP7684iPYMt77pxTcfq0eXrKmwT+UN9uDPZlvmyC1XUzbp7aE5ilPhvVc6kJv+vqGv1li0tpwoTMpwBSDhLuna8AR1Qp8NIIew724LbvPIft0+Zj0Q1Xon7KJHUXUdWi34Y933kAf/3eufjw+09BRB+M3bB5O777wxfwualNWNJYj8MDfdg1OIQvH+jBSeechFuufjumTcrxV/nknPwZZ6k3PXteVEK2sB9TzU65TLFcvVIuaiZdMvn8a6ipxbnH5Q56IWfW1I1fgPFT32p168gFz6ytvdxTpFEtOwHjpr4NdY3HM+grSLop5dIZMfXldhfnJTWyrWNWk3EJiWzr0CjF+oAe1YAqMOil60Za9BL0S266wQp66aM/tK0VrV/+T3z0nNm40hH09//fy7j7+8/jazMn4e3j6jEQi6IvFsOmzn7MPut43PqX78gd9EK6kI68qieqx5hq2RvyKzK5qJn6Suo53iTsa9WuXaaum3zIdXOse2LffEkV0rKXg1K7D3arz/Pw8JDLvZ4wc6I1/qba/Y9Gh3cZ1NXW4PjpTeo9DeHQsT4c7RmwtyAOsuy46RNQX2u/72zZj8JgN7D/10B//gdF5WCs9NE/WzMTzTf8GeomjMdgVzcOPv8idt/7EK599zxct+x0K+jl8/DQj3fgoQd/j0+Ob7Ba9FGVETt6+/Bfh7oxcNpsfPaj52DuzALeQzm3/4Q/0RP+EZiWvSGXKZYWe2NNfdbSUFM3qqAX0oJn0PuLxHLGVrsqhleL3VpH3VbWsu5HplVjaNg6qvCMtSKpaSjoOjj26ZXP4leRmThlxXLrZn2HD1sHYw899AT+7sIFyaCX92nTEy/h+6pF/zEV8mc21Fvv6+v9gyroexA5cy4+d907Cwt6eUC5tEKVGZNhT0RVRA56Tn2LCtCT1Xj2HzDKD6b+ZcNvsG3SXCz8yMUqeNVefHc3et7cgz0bf4iPvWt2qo9ebYw3bNmOb9z3O6xqGod3qlZ9JAQcGhrENw8cQ+MSFfTXv8vai8ubbJjksgoTTtQzqgfDnogqL6JCdMaZwMmXAadcocrlwIl/AjTOkN1naxXrEgjfbcHvG2diwZUXISTny0djOPbaTrwop1e+5wR85IJTUVsTRjQWx4NPv4qHHtmGbx83FWc21kHupWNwEGv3HcVA8yz8/cq3YcoE/Qt3eQx5LHlMeWyrDh5l/jJgitowyQaqyjDsacyRL7Vq2Fk/hx9W7NywyHimdWQ1KWEVAlZxrWP93WEdQlQK6rWVSyHMeitQPxV7D/XgC9/5DX4Vm4gFH7oAkfo6JOJxdL7Uho7/fQSf/tPF+OjSRdZ7JS36H/xkBx79wQtYM3E8Tq6vtea19w3gy/s60aeC/v/7y3Mwe6rjx3By/Z1Zb7Mf03rnx54xeYDWOpUr2odcf2wkFAojEalXLYQ6PSe7hHptEr3y122y99WGIhGE5M/VqSEVR0EHaFWRn8J7dalLPteoFqGQ1l+mdeRXlvKVN/3zw8j96NAXPEBbIok49rz8a/zzv92L3zfMwMkfvti6qJmQFv2BBzbjxvccb511Ixthea+k60Za9BL0bxsnffQJvN7Xj28e7ELj2fPwGdWinzllnHUfSXJRNfmThFUe9IE5z17EO17AwIsbkeizf0KdU+141C28FDXzL9QzvPU/8gP0PfgA4j3dek52kZkzMf6Gv0btWWfrOTQazrC3A9ojgNUX1c5etcz6HYT3OvKjN5H7fvJbRzDsS6Pz6DF89ravY6vKp9Ouuzy5ce3rOITWL/4nPn3ZIvsHUyro5YC5HIyVPvp7jpuKk+tq0RMbwpGBAfzroV4kFs/BP3/sjzHZdN04TT4FmHGGGnG8qVUoMGEfO6CC/rdfs1v2BQmhbtGfZwz8PhX0vd+523zz8xepwcRbPq8Cn3+MerRM2EejcRzqUntt1lSKfEXHqd31CePUXloiirrOxxGODv8Tc4nIBAxMvdwaP3i0F1GPVnutatVPndBohXlXr/o+DAx5Pt40tU5Njb2XwLAvviOdx/Dlb9yLnx04gIUf+QBqJ4y3um6OvvoGdn/nIVz3/hPTzrqRrpsHvvc8PjW+AafVR9AzFEWHKt/u7MPgabNw67XvxNwZGQ7GyqmUM1XDTLpzqlhgTr2MvvHjEQS9SGBox6PqtsMvZStdN9KiLzjoRSyK/sfV/VLRRNWXXf6UXFfPQHpRoTwwaJ9XH0IMNX0vorb7N8NKTe8frHVET9/Q8PtRpadfwt1+v+U+5b7d60gdpC40QvLDpL4DQPdu9UbsGV7U/A3/81384Ee/wJz3vNUKevkOHn35dRz+wRP45CULcb0j6L/71Mv47vda8JGaEGaHYjisWvO7h4ZwzxG7RZ816MXAUbX1V5+Nzh2OOu0FBqWRMYLvvg+NqbCP9438jwUnhnqsfn63hNrLSeTZdeMldqBDj1HReH73UufGp/4nYewuqRunxrzJcnsdjzVz3Zgyk+vgdGwF9j4H7FfDfb8bVuL7f4cHH30ai46bhN0/eg6Dx3pUBu/H/vsfxY3vmYsPn5fqo//O5hfx9U2/xV9EQjhdtejlYGyvmn/vkT6Mf+sJVtdN1qA3JD8OvWjXTeqx/7eqjs+q3budeoXqNqbCfrS9bZ4/kslwDZx8hRgKROnkGjjSepbQ97yy5CDadh7AoaN9+PKqy3BWzQBevvt7eHntt3DdH8u1bhYmT6/83tOv4L4f/AFfnNKA0xtqIEdj+tX3+J7OfkRPn2MdjPXso89ELtkgex1SDxkOHrPra7Xwq9uYCnsa+0KySZf/3EX+WUO1fZYR+drL9YncxYoDm6yVdh+m2ItTy+WfWaaLLLTqQoXr2adHvEn76Lcv7ce4xjo88HgLhgYHcVLfYXzqg4vxlx9InV75w5/al0D463G1mKcvW3FIbQDuPNSL3tNm4pZr3jH8rJuRkKCPFeGvn1UYw56qSo3aVZ82cdzwMqkR4xvMKbRhDE18LwamLB9WBiddoNcBpkxo8LyvSU0NyRiX+5T79lpP6kIjUJs9gI8c68evtu3FhW+bh1OnhfFXS0/FHX/zHhX0zcmum3s3b8d3/ncrPqymF9fLRlzdTgX9hiN91umV/3j9uzCvkEsgZGNd8NB+jGo2ps7G6f/Z5xE/NsL+tVAYjResR8j1x4vjnUdw5K8+qrbsIznwq8LpxPmY9JWv6ykaqcIvcSztQ68+NN0sLzKejVOA/sPA7l/YXSUepNUuB88b6mqs30RYe1KadLXKefTfvP93+BfVaj9JtehlsXS2/tuhHtT9kX0JhMlNRfrbz/LgkxYA089Q46m9Qr8K3IXQaOySwyoSBtK6cxdzzMWKeVkvLq3A9KJXscj6me7HsRoVW8MU4Pg/tkN0wvFA03FpJazmTZhxEmrHT1P5mn6tnJ0d3djy6zewUEX8lLD9w7ej6j37mgr6aPNsrJY++pEGvVyXR069lD9gLnWR69XLdeurJOhzYdhTVRmKxtQX/hje7DiaVnaqcqRL96uqsN57uHvYOlJ2H0ztIci41zpy27StAhWZimgJ1ZlLgNnvBOa8a3g5TpV57wOmNsP6YyHavsM9mDCxCRPedgr+43AvXuiP4m41jC8+Drd+9J04rpCLmjnJY8hjHf9e+7GlDrPfYW+QxshVbbOGPa/9QX4jrXr5YdWQu8TsyxBbrXpVorHE8HVUkflGtnUY9T4gITvpJGCc/P1ne/v75v4unHziLPz9teeh84SZ+JcD3Zj4djm98tz8Tq/MRB5DHsuHf2qwENkyO2fL3vN0RCKicpCrS9bZIS6nWra8egAPPfU8Lv+b/8KBzqNY+eGzcNPV51gH20dFHqMKr2TplCur08LebBXk/2Y8Fi3sT4VVVJ5//CAjj901uajZaCT0RbeIaCRUDtVKENeifzCK7r4hrPqzJfjhF5fjx1/9MD714SWpyxSPlHTh1MkB9syt4mpgslqy2zwTZ0vfSiKZTgV9aqHM6+8d/qtSv5IDOyMVGjcDoZrhf39Srl4pFzUbqZoT1K4hFY31QVYf0eSlh3Wx59ufXqt4rGOvZ92NRcYzreNYjSpt/Cyri2V8Yx0+f+05+LMLTsXJx0+23qtRkwbiRPUdbRz5d9wvJKtNjgv72yCfc/2ZllMv5W+2yt/itE69HBhEX38fevt60d3Tg/lnLsLsE+ZaN/K7RPde9P3iNs/LHmSldt8a3v4phKefrmekG3p+K47d/gXZdOo5+QmNH49JX1qPyHHV8fr5mTn1UvrspV/dvcsqH2y5TopcmEyWyIFcObPGTQKiTv8AZ3BIreOx6yvnctfW2Kf05YunXpaYXK5c/lZtsX/JKi166cIZAwdh9725C+1/2I4mlTvjGsehsaER9fXm1Ev1eR54Y38iFo9ZYT8UHbLCXoJezrXv6e3BlONm4S1LztR3538S+EOvbUG8a5eayH6pA/mehxunoWb+BYhkCHpj6PkW66Jmcq2bXJdAkK4badGP+/CfITxn5HsblNLd3e3b40fScmpqGsXBQaIieLnlDziyZz/G63PsJfAl7GtratPDXv7YQ3rL3g77uGrlvOuS1K8OiSphcHDQKn4LfAn6OvnhiipElfSrx3+EsNqbNWHvbNlbf4xHwt504wwNqZa9+kL1D/TbYd/Tg24V+H/0nndi6swZ+i6JiMhPDnccwO9/9iyaVNCPt7pxGtFQ32D9gra21m7ZJ08VsTvxQ8m/rxkOh+0SCmPnjna9FhER+Y1ktGS1yW1nlksRaecFmgXmBtL0l7L39Tdx7EinXouIiPxCslky2uS1M/BN0IuwNUP+uYPeCvuIdQEdKS+1pP7CDxER+YNks8lpyWzJbnfgyz9HN06qZR8JqxvIjSJy1Tn7Tg7s2YvXWl/WaxMRUaVJJks2W2Gvsloy2w78SCrodeNe/6jKnmltDax+HxX4yVZ9BLVqKKfv/OFXv8GBvdn/8AAREZWeZLFksmSzZLRktWndS4abPvxkvuvbJbtyrC4cvWWosQK/1jp1xz69rBbPPv0MOg8d1rciIqJykwyWLJZMtrLZ+uFUrZXZpmcmGfTqn7D77FURMjCte+nol62EnLZTW1uj7qwW9XX1iA9F8dMtT6JD7ToQEVF5SfZKBksWSyZLNktG26dYSsve9NBI2Nu3SW/Z69CXkuzCiUj3jdxJnXWncs5mQ70d+P/3g814+YUX9a2JiKjUJHMleyWDJYslkyWbJaOtrhx9jFUy3JnpIjS084D1k0T5ZWI8Hof8wEp+Tev8M4X9AwPo7+9DX38/+vr60dvfaw1l/pwT5uKPznkbps6Ybt0hEREV1+EDB/H7536LvW/uskK+sbEB4xrGWcPGhgY0NMiPqOzwN3+GML2Fr0LfGfZW4KuwlwtISdhHYyrwB+VXtSrsVbAPDKiwl8C3Sp/aAKh5aplsEOa/5RScenozZs/ltWCIiIph367deOXFVrS//GqyFd/QoMJehbuEvJT6ehX2VtDXW334pnVvDtImW/gm7IVp3cvf6TGte7k42pDaZXAGvt3Sl2l7XPYAZKMg646fOAHHnTAPM+fMxtTp09CkputURcyuBBERpZPsHVRZ2n2sC4cPHkLH3n3Y8+ZO9KhpOdvGOhCrWuwS6nIZBAl8K+AdQW/128tBWt2qV/GebNWLUHTXQfU4dt7L0BRnd44z8KUVP5gMfnvoDHtZz76wml3s+7Lv0zyGm9c8IqKxxKvBmwxiNbT/loJ9zNScEWkC3Bn29VbgSyve7rbxCvq0Fr0q1mM4w17IuCkx1co3oW2C3PTjm6sQygZgcGjIGjfrSPeP3MY6BhC3NxzmPg3nOBFRkJgAFiaQ7f51uzVunSQjJ8gkw1764u0zIs1VVk3/vFkntZEYHvTCCnsZcQexFNN/7wx880dOkgGvxs1GYEj6+XUxl022uoX0/Vn/XI9DRBQkaQEsgSz/dDDbQa+K/M5JtdKlyFk2yVBXQxP89oFY+dFrKujd/fSGNW3CXriDWIo78KXVbv7QiVwSWQJehlG9IbCXS8te3c66bXrgm/smIgoyE8YmmCXoraLCWgLfCnvrYKv941brN08S/tZQumzs1n8+QW8NnWEvnEFsAtoEvoS2FfrWX7ayQ9+Ee1Q2BFbI2104plXv7MIxxck9TUQ0VjlDWJhgNsXuytGteyvE7da9fTUDZ/irkHf8UjZX0IusYS9MQJvQNq18K/h16Euwm3F7fqpFL8W+T++wJyIKqlQ467A3rXsJfD1MBXtq3FquW/PW7TyCXjinh4W9cAeyCWmrqH+mlW8FuwS/2hDYGwA5qGsOzJqNgwn71P0y7oko6EwMm0C2QluFuBnagW8HuhXsVveOaclLUeHu6O8392MMm/YKe8OEs7CC3pRkKx3JYLdKsvWf2guQYfL2jHkiojQmsK1xNUy21k3w664dU2RVmW9uZ4rhHHcKrfrbTyX+9i+vx7w5x+lZ6UxYi7Tg1uFtj9vzTMinFR3wMu7kniYiCgp3IJtpd4BLMaGv/rOHjnWs2+ihcI6nA/5/55JR7sgT+p0AAAAASUVORK5CYII=;" vertex="1" parent="Fj4VQZkK3p1aDtsN9PMZ-7">
          <mxGeometry x="5.43" y="10" width="289.15" height="560" as="geometry" />
        </mxCell>
        <mxCell id="Fj4VQZkK3p1aDtsN9PMZ-9" value="&lt;font style=&quot;font-size: 14px;&quot;&gt;CalendarPage.jsx&lt;/font&gt;" style="text;html=1;align=center;verticalAlign=middle;resizable=0;points=[];autosize=1;strokeColor=none;fillColor=none;" vertex="1" parent="1">
          <mxGeometry x="535" y="410" width="130" height="30" as="geometry" />
        </mxCell>
        <mxCell id="Fj4VQZkK3p1aDtsN9PMZ-11" value="&lt;font style=&quot;font-size: 14px;&quot;&gt;PlanPage.jsx&lt;/font&gt;" style="rounded=0;whiteSpace=wrap;html=1;" vertex="1" parent="1">
          <mxGeometry x="1100" y="375" width="190" height="100" as="geometry" />
        </mxCell>
        <mxCell id="Fj4VQZkK3p1aDtsN9PMZ-12" value="" style="swimlane;startSize=0;" vertex="1" parent="1">
          <mxGeometry x="840" y="600" width="301.47" height="580" as="geometry" />
        </mxCell>
        <mxCell id="Fj4VQZkK3p1aDtsN9PMZ-19" value="" style="shape=image;verticalLabelPosition=bottom;labelBackgroundColor=default;verticalAlign=top;aspect=fixed;imageAspect=0;image=data:image/png,iVBORw0KGgoAAAANSUhEUgAAAX0AAALcCAYAAAAL0WCHAAAAAXNSR0IArs4c6QAAAARnQU1BAACxjwv8YQUAAAAJcEhZcwAAGdYAABnWARjRyu0AAHJnSURBVHhe7d0JYBblnT/w73slbxIC4Q6XJXggeLTgVWy1K/bE6m7x6Crbbiv0WqxdC+32YNuti+3Wgv7X6tpVabdSqErFrlS0h7RbFbQqsRVBRAmVKxCOF8jx5j3/z2+OZDKZ98z7hkzm+4mP88wz8877hiTfeeaZeef1JfYcSoOIiDzBb0yJiMgDGPpERB7C0Cci8hCGPhGRhzD0iYg8xJVX76TTvOCIiAYGn89n1NxhwPb0JdgzFSKigcIpo8wyEA2I0HfLPxYRUSEGYqad1NBnwBORV1h3ACcz907KmH4pvuGT+Y9GRCRKMZ7f3+cE+rWnX8gezlw3UyEiOtmcssla8lHIuqXQbz39fL6pQr/x/vyHIiKyK6SXns+6/dHr75eefrZwlmVmsbMucypERCeTUy6ZxS7bMlO2ZaVS1p5+Md9coe1ERANFtp6607JM65ezx1+20C8k8J3WzRj+6ouIaCDxqa9M7AGea95UruAvS+hnDOwcYS/zvlAA/uow/OEKVQ/CFxiw7x8jInKUTqaQjieQisaQao+qerKo8C9H8Jc89IsJfDPsg8OGwF8TNlqJiAaHVFsUiWOtvcL/ZAR/v4S+PeBNZj0wpArBkUO1OhHRYJU4fBzJ1g6tnin8yx38JR07KSrwh1Uz8InIEyTrJPNErmy0cmorVslCP9cLdar7pYdfV6vViYi8QDJPsk8uSsmVkeXQ79fpS127AicUQIg9fCLyIMk+uVDFDH4zI7OFfbZlhShJ6Du9mExtWuArwWE12pSIyIvMDDQz0S7fXC1UWXr61hdm1nu82GAAgZoqY4aIyHu0DFRZKLTusENW9sjNEinr8I79mzC/sUA1L8skIpIsdAp5a5tdtmX56HPo219Aphdk3ZPJG6+IiLzOzELJRvly0teQtytbT998ofYXLLP+iqAxR0TkXZKF1oi0do5LHfamsg7vmMxvRL4HmfoC+jgWEZGXSRZaszET+7Js6+bSp9DP9UL68sKIiLzKzM5yZGhZevrWF2rv5ZfjmyAiciszF7syUn2VU78M7xAR0cBQ9hO5RESUWaaszJWhxWZsyULffAHWF6IdqKh5adKneiEiom7d+WjULUM8ZmaWKjuLDv1SvQDyhsgr67H2pWZjzq4ZjWvWOi9vjaC5OYJowpgvWpbnIPKQfh/T587CK5qw/BwffDes1eorPnEFrr5rs76ol81Ydt3Vjsub7r0Y48ZdjHt2GQ1Fy/wcPexpxFq1c9jwetRoyCwaaVY7pNwlkntT5GH9nYn9GvoM/EGmeT1u++wCLLCV25609KaDGW65sW6e9sEQerkCq6Vt5RWWtulY/qa2Zk7rP2k+xl7y30aXxmW4Wu0cblq332jIbMPN49QOKXdZ+FvjAUQZZMrGcmRmWUKf4e4R0SZsfPIJPGGWdauw4v4VWLVF/2SgrD5wD/bv36/KTmz9zSrcfdfdqjyARzftNNo3YuFkY90cZt78KB59pGe5+/p6Y2mBjGGkpt35DgPNxSrt9WYu93zAWJUoC8nN/sjOfuvpc0cwCE1eiCd2q2Azy7pFkKita5EhkvXYfEhfzVG4DvWRJzB/xhRMn7MQS29fqspiXD1rCsZ9bBWOjqpDOM+7ddSfPxdzr+1Z5swYbiwtRASrf6IdcyB6/ypsyOs8Qhh19fWoz1Lq+np/wcgmLJ97NZa/bszToFfOvOyX0Gfge0Nz4yZI/3jTD67G1dfdhNU5Osvrb1+A9c1z8EDLUWPHcRTpTWrH8fxiLF7T/wPhkXULsXAdMPvTN6Aheg+uvnG92g3kshrzJo3DOGsZbh1imof1xppFG1IH7F6LxbPUtnK/IHIZez6as9YreDIpJlvLGvryguyviTuAwaoZj/54g+p2fxObtZ/7Tiw721iUwcwZs9T/N2L9zxvRJCc9dzVixX1r1ZbqMK0h/+6x05j+lK9uM5bmI4ptP7wcDVetRuT8Zbj7vlV44vYZiKy8AtOuW4GmrPufWZh/xz24x1rusw41LcZMY82iBadh0TNbsezM1bii4Wqs3mO0k+eUIj/LFvr57KVoEHnpbix/Hmj4zDzMMJpyqf/iemy8aw6abr0YU+SkZ8PFWPLqLNz9TBOWvdtYKW/1uOEua9hKuRtzsg3tt27DhnsX4/JJVZh+s9phfeBubH1mEaYFgWlf2YCN/zoLzWsWYErtdMz7wVo0NjulfwNm24aWepYZ2pCXsybcM8d2lJCpnD4by3apHWFkrTqymIIFa5rUrooGi1xhXsrOsi+x51BRW7O+CHtdK/Kl1S1tqqRSKQw74xRjbRoUEo1YcvpM3BaZjydenIvG29eqODuKzStVUF77BNIPTsPyc6Zg8Qypz9EeEj3UjEjXmPkGLBw3D2uvXYX9t0/D5hcl0Pbj6JCrMXvLbNVrB5bt2IpFpxmr20hP/4qV07Kuo9bCPLlK6BPdrwF7VqjAX4ANE2dj0R0PYOm1DbAfX0TfXIubrp2HFa9EMWf1UTxxfZ2xxHxeFfqfma2iP7OGjy3FNz/iFP3NWP/vS7B2tzGby6GNWPGYOoKpn4O7f/soFp7d15MFNBAce+Nt7ejU7/dbjlZVOMtUvmRGsU9N9vlcGPrUN9FtuO2S6VjyUh1ueLwJqy7YiNu+lSv0o1h9VRXmrdM3YReWk591qnd9xyosLGfoK9HWKMJD8ghPtV5UrWddc8OXx2HeGmMmi5nf2IgnvpBtt5CHQ6qHf/rVWH3aN7Hxt0sxq3vfQy7H0CfXiL65AvMuWYC1zSrw16rA/5g1ieTNWWbQO/T0I9Y3LckVMHW9etmi+cnbsOQxYO6t38w4VKOHfhgzVI98ZtdL6EDTMxuwVYV1c90S7Hx1GpY4hL4rRNQOq0G99tOWYesmffiJBo/+Dv1+u2STBp+mx+7B2uhsLNtkD/zcwnVyOWMHHr1xBmZcMA0NTuPYqsz47N144smNWU+mhkepbU2sw/5NlvcMPNkIzLgCV1y7BKvumINxxrquNORi3HTr3Xj6twx86jv29KkPoohGwwg7jo5k7+nrmtH4mAr0LNfD739sIW76+fAcQzf5sA/vGPP6wrzd8Hgaq8KLMe7GVUZLvuZh1e5lmG3MEZk4vEODRD6hn1vTD6bnHNPPjz305QZsaoejL8xbw6y5mHFoBRb81yajJV+zsPC++Xlf2UTewdCnQcK4MqV+IR74TN0ADH2igYGhT4NQFNt+ux7bhl+Muednu3C+t+jrG7D+VWDaR2Zj2hCjsShGz76h8NdAVE4MfSIiD+HVO0REVDYMfSIiD2HoExF5SElCv5AxpULHn4iIBrtcuVjK3CxbT988AeH0WlOJpFEjIvKuk5GF/TK8Y99LpWJxo0ZE5F2ShZl68dJxtrOvW8wRQL+N6VtfXKKddwInInLKQonKYsI8X2UJ/Yx7LqM93tquTYmIvMyahZKP5Qx7U7/19K1SsQRix9uMOSIi75EMlCwUuTrKpdTvoW9+E9HDx7QpEZEXmRnYH717q6JDvy97JlknHU+gvfmw0UJE5B2SfdlO4pZTyXr6Ti/eetmmPu05ZhU71oqOlqPGHBHR4CeZJ9lnz8weWWm5csdcz75+sco2vJPtBerfnL5cDnHamg9pdSKiwUyyzjqsYy12Tm1WuZZnclJO5JrMbzYWacWxnXvQebzVWEJENHhItknGSdaZuXeyFH1rZSG3Srayzpu3UtbqGW6z3KuoL38oiIraGoRqqhCoDMEfCKpXqW2GiGjgUzmXSiaQ7Iwj3taB2Ik2pOIJy3B3pmJ0hI3Ak7rT1GSfz1efQl9IWFuZ89ap9iVT1WRtl3vr91hPirGutc1krdtlW0ZEVArZgta6TOrmvFY3Ar9r3rE4r2uy1oV9Pl/9Evra1Bb89qKtY86rL3PeOhXWej4KXZ+IqNBAdQrnrmkBga+t4xD65tRkny9E2UJfmHWZal9d80abrejLLHVb+AtrnYhoILCGcFdQqy9tqua72ox6z6It0usOgS+sdWGfL0TJQ190hbZ9agS/+RC93l2sbWbdpFqNWjfrciKi/tYrjI2gF9bwttd7thntxmO723tOrZza8tXn0BdO4WsP7q5pluA3552mwlp3ItsmIioXM5idWIPYKbid68Z8hsAX1rqwzxeq7KEvrAFuBrNWN1bR693tTlOTfZ6I6GTLFMxO0+66pV2+LOuYrHWTU1shShL6wimMrW3WELcGvz7tudw6Fda6yamNiKg/5Qpls26dmou72jL08s2plVNbofo99IVZ1+LfrBuLcz0mk1zLiYj6Ip/Ata7jVDebuuYtPXyRqS7s88UqWegLp+DNFeJOvX6TfXv2eSKigSJbSJtVs83euxeZ6iantmKUNPSFUzBb2zLWbeEvHDbVYzkR0UDgHNJGRTGXm2EvMoW887Z6txWr5KEvnILZ3tYz3C11I/xFpoDP0ExE1O8y5XGPIM8j7EW5A1/0W+iLbMEves1bdgB2mZ6DiKi/ZAtka9CLXAGfaVuuCH2RLZRzhb3IFerZdghERP3BHux2ToF9ssLeVLbQF4UEv6mYxxARnWzZQrqYYC9X6Jf1fvryorN9s9mWCwl5ayEiGqgKyat8srFcytrTt8r2j2Auy/UPlY9SbIOIyK6vQWw+Ptt2yhn2pn4LfWEN5FzhzPAmIrfLFeLW5f0R+OKkhH4pA10+iIWIqD/5/aUbGTfDflCFfraQd1rGXj4RDRaZwrzQ9lIp+wej5wpw6zco6zLwiWgwMXPNzDbJvGzBXu4MPGmXbIpsyzlsQ0Ruly3gswW/yLW8WGXp6Vv3anbmMvtya7sU8x+rXN84EVE52LPLmmtWmdpN2Zb1RVl6+tm+CSun9XJ9k+qfwagREQ0MKuKNmjOnzqu9zWkdkam9WCUN/WyBbV3mFP6+UAD+6jD84QpVD8IXKPvpBiKiskonU0jHE0hFY0i1R1U9mTXsswV8qcK/7KHvFPAmM+yDw4bAXxM2WomIBqdUWxSJY629wj/bjsA04EI/V+A71QNDqhAcOVSrExF5ReLwcSRbO7R6pvAvV/CXZAylqMAfVs3AJyJPkuyTDBS5stLKqa1QfQ79XC/C6ZvwSw+/rlarExF5kWSgZKFwyslMci3PpWyXbFqnQuralTehAELs4RMR6VmoMlFLR1teWqel1KfQd3pBmdq0wFeCw2q0KRERdWeiPfhN+bblq6Q9fesLMes9XlwwgECNfjhDRETQM1Flo8kpO3vkaB8VHfrZXoT9RZt7sEA1L8skIrKTbJSMlC9hz1An2ZZlU5YxfSsz8IW88YqIiHoys9Ea/OVSstC375nseyGZ9VcEjTkiIjJJNtoiM2emFqusPX2zly+vVaa+QPe4FRER6SQbrVkpX+VSVOjb9zi55omIqHDlyNqS9vStL0DbV6l5adKnhb84IiKvMHOyKzMtvf1S5mfZT+QSEdHAUXDo59rjlHKPRETkdaXO3D739J2eUDswUe2ySJ/qhYiInFmzUuJSm1qGeEx9zdKSDe/09YUQEVFmpcrYfhvT506BiCiz/spInsglIvKQfgl99vKJiHLrj6wsaeg7vWAGPhFR/sqdo2Xt6TPwiYgKV87sLHnoaxcZqRfMvCciKp5kqJalDpdt9kW/nchlr5+IKLP+ysh+C32ibk1Yfo4PPp+UeVhvtJbFm8sxXXseVT5Zjmcq/nuJRprR3KyXSKvRmE3Zvxfygj6FPnvvHtW6DRvWrMXaAsuG16PGBvpiPeaZwVfGHcaGL4/DuElSrsA9u4zGUkhEsOmH8zCzyoeq4Wr74/QyvFZ9P5Mux+I1TSjFvxINbn3JXvb0qXDN63HTdVfj6gLLTev2GxsY+KKHVA98jxQVwgmjsa8i67Fg0nBcfPNqNDol+54NWH7dFFTNWo5tpXpOIhuGPlF/SGzD8g9cgRXNxvyZ8/HAizuxf/9+VXZi8yPfxJx6Y9nzi3HxjesRMWaJSqlfQp/DQIPMaYuwVf1M5efaXXZi2dnGckzDsh325Wls/UqDsbxUmrHfDNGSasK2bUZV1ZtK8BzRNUuw+CW9Hr7+URx99QHMP78B9fX1qjRgxrVL8UTTRiyarK8TWXkTlm3R6+Qd8ndSbuzpUxlsw7YdRrXUXtqIDUYVqrbhRaNaUs1o6grcqNoB9D31Nzy51qjVY9GX56LO6eOiw7Ow9LtzjJkmrP9tk1EnKh2GPpVG6yZssPRMN27JN7A2YflnF2CBWe5vNNqdbXt8tYrkbqvvX136YZCXnsCjljH3DT9+tMdzZrYaV3SdZFal6wqbqOXqnNm4+Hyj6iA8pM6oqUdxXJ/KgKFPJRFd92iPK2m2/dcKNOYVWk3YcP8KrDDLM1lO9kZWY/G/23Ym6xZi4brSxv6GHy/vGfLPL8HSZ416UcKo68ryDdhoDPM4ibZ2fy9hp6MBoj5i6FPfJRqx9Bvm8IVh122Yf2fXwHhWdRPrUW+WUWGj1UY7EWpeohnGDXctU31mEcHqq2Zj+evaTN+9tAQL7jW6+ZfN7nqOe65Uz51z3zILix55FI+a5eaZRrvq339grlFrxm1fyHB1TmQ95v+TuetswJwPlPocCBFDn/osgvU3zsZtxrXss+5YhYVGr7bxqxdjXs5e+A1YtXs/9pvlDj1me0g0Y/V1F3edCMVld2P5FxfhgTtmGA2NWHzOxVjybB97/Cp0533gNnXsIRrwzduf7n4OdZRxxQU3YUPWp2jA7GvnYq5Zzjcvx1G7qeuXYZk5rPPSYkyfdjWWr2lEk7w5a1cj1t+7ANNHX4HVxvbrPn03lnSdGCcqHYY+9UEEm74xG1esNJNqoQrjG7D0wRug5770wqfh6p8U/4aj6OtrsWDaOMx7zHyOG/DE2vmQOG24ZQOe+ISxh0lswm2XDMe4OUuwvog3gUW33IPLGyyh+8VVWKpCukFNu8L6TbXO6OlYUNQbqBqw6Lcb8c13G7NvrsXi62Ziirw5q2EmrvinFV29//prV2HbfXPU8QxR6TH0qSjR5g1Y/sEGXPw988TrDCzbdDdmBVVgXrkKG283e+HNWHvjFFRNW4AVLzXnH5bRRtx2QZV63NVY8abRVjcbD2xahTld4+N1mPNgEzb+6yxjXj3bk7fhio8szfN8gnwfjVjx2emoOsfSiz9/GTbeYWwzOA2LntmKZWZYJ7ZhhbyBavgCrC80+etmYekzHdj6yCLMPq13pNedfwPu3rAfTY/cgHqO51OZMPSpQM1YfcM4VI27HIt/a6ZkAxZu2IBFZxqzyrSvbMTWu2YbPX7l9RVY8IVVaMr3ipTwDMyd2z2mXf8RFcRNT2O+5Tl0dZh160Z07HgU898lQVqHhSuXYkZeoRnBhq/OxoL7u8891H3gbmx9ZhGmWR8fluA/iidumWY0AHP+axnmFNMVD4Yx7dpleHpHB9LpDhyVN2e1SD2Noy+uwsLL6jP38NVjG3Kd+yDKgaFPBarHDV+er2LecOZ8PLp7J+6+rCveDSrcvvg09neF8TQsXWkL0xymfWUVHvjMN/Hotg7sX78Is+xPYRE+bS4eaOxAx4n9uPu9RmNO6kjhv1ZhvmxX9ejnP7IT+3+zENOc8jSo1r1jKzr2b8YDP34aq67P8mLyFkadvDkr3wCfvBBPZDv3QZQHX2LPoYLeAmZ9x5i9rhXL/fTNtlQqpU2HnXGKsTa53aY7F2Dzu5ZifraeqUW0NYrwEHNNuTPlFCzWruu/AU+kV8F8S1LJyc3hntym+vRKw8U9Tq6a5D47Kn2LvESyGev/fQnW7pb6LCy8bz7Mga3M5KZxV2C1MVeUTzyB9INl+1ejk+DYG29r7+/w+/3d7/XwqZCWqXwZbaZM9VwY+nRSSNBGtKEe6e3W5bHjiGLbb9djmzmiVIwMod8lEUXkUKTok875fy8MfeqNoU+u0Hj/AtzTp1sh5Ns7th4dFClXUMr96k9fjPzeXeAk36MWtXNpLmLnsutuzJ51m/76GPqDDkOfXGH9J324YqUxU5R8g3IwhX6RrK+PoT/oMPTJFeTDRuatMWYKENljXr5ZTOgXEK6FBKV13bOXYeeri7pPWGdUzOuyngcoQGQzVq1p1P/dGPqDDkOfBrFignIwhb71MUVi6A86/RX6vGST6KSy3a8n32K5rw9RIRj6RCeV7X49+ZZsVyERZcHhHToJ+jokIr3jxbhYa8+h+VEsvNm4B38hwzv1N+Duu67GOG1BNvtVr/smrNaeoMzfi03dOXMw+8w839hFAx7H9GkQG6Dj4NbQL0o/fi/KtNt3luEjKOlk4Zg+ERGVHHv6dFIU/o5cosGNPX0a1MKj6lEvNxtj4BP1K4Y+EZGHMPSJiDyEoU9E5CEMfSIiD2HoExF5CEOfiMhDGPpERB7C0Cci8hCGPhGRhzD0iYg8hKFPROQhDH0iIg9h6BMReQhDn4jIQxj6REQewtAnIvIQhj4RkYe4+uMS//CHPxg1IqL+9Td/8zdGrTT66+MS+Rm5REQDAD8jl4iISo6hT0TkIQx9IiIPYegTEXkIQ5+IyEMY+kREHsLQJyLyEIY+EZGHMPSJiDyEoU9E5CEMfSIiD2HoExF5CEOfiMhDGPpERB7C0Cci8pBBfT99eU4iomIUco/6UuD99Itk7mgY+ETUF4M1SwZFT1+2nY981yMibymkp1zIuoVgTz8P5k7FibnMWoiInDjlhRQn2Za5gat7+rJNO3ub0zpERNnYe85OPelCetf54Aej50G2aZ2arPP2ZXa5lhPR4JJPQGYLVHO+kKDNB0M/D+b2zbpJ6r7IEfje2Abf7r/Cd+QQ0NamFqSMNYiIbHx+oKYG6RGjkJ70DqTPmIZ03QjHcJVpIUGbD4Z+HmS7QrZtTrWw3/hH+Le/prURERUrNfUspC++tEf4m1MJ51Liidw8mTsWLfBfbUTgf/6bgU9EJSFZIpki2WLNGjcbFFfvSPG98CwCv1uvGjmEQ0QlpDJFskUyxpo5bjUoQl/r4W/8P6OViKj0JGOsPX63cn3o4+hhBDf82mghIiofLWtU5jD0TxL5hw88/yyHdIiof8hQj8ochv7Jova4PGlLRP1JyxyVPW7l6tD373jdqBER9R83Z4+7Q3/P20aNiKj/uDl7XB362jttiYj6mZuzx92h395u1IiI+o+bs8fdJ3J51Q4RnQwuzh53hz4RERWEoU9E5CEMfSIiD2HoExF5CENfOba9Dc0rDyOy4bjRUpz0xAuRmPtpxOZ9RpVPIv7us9D1Zu33fwadN38NnXMvNBryMQcxecznrkfSaClUcu4/a88be7/RkKfEJ9Tz3vzPiM8wGohoUGDoKy3bD6Mj0YbE3na0P9cGFHFiPn3e9Yj/3WwkJ45FetgwpEeOR+rCK1X4z8m8uRnX6zuCT8wxGsywzT+kk1d+AZ2fX9y7fOrazDuKM+cgru2Y7OWTSJxprENEgxJDX0mMr8CR2AnEUzHE9x5HbHPUWJKvdyBx1juQ9ifg27oGlf+1DJUP/xH+TrVo5BlIWnvLo87TAjZeSIe/EP4gUKGK+i/jZ+lU1iBdq3ZM1jJ8pNpRjUC6yliHiAYlz4f+63/Zjx0HWnBiTBAtna1IxTqR3H8M8RcLefPFWEALyzb4XnpLa8GBjfAdTahKGOkRepMmLEcBKmCHGvN9FFh3Lyp/pHYyZtm8T1/Q0Zb5h/vnNaiwPuZHG+CPyQK1l3LvfaSIKA+eC/1j+5PY8ccY9j+dwI4XDmL77kOoToUQDgSRGFmFA53tSJ84gdT+o0hsyjcB/wRfRAJ+GFIf/CCSZ56F5PuuR2qU6m7jGHw7tJV0ezag8q7/QMXvjHkxbHrXsExymNFWpOR4fQ/jO/5XbZqXU9RRSlhNY2qnxdsZEQ1qngv9PX84gup9KQQPJTCyZSjGJWtRo0JfK/5KtA+tRnNnJ3ytx4Gjx4xH5Rb89R/hl4OD+plIfPBKJN4pwz1R+P78G4T6GqSV70AinxO6dZciNUbSW4X3jp63nE5Pz3xiNnVWvX7C+cguGRUiokHMc6FfOzSAjvYI0qkYwrUVeOfYBozFEFSmA+hMpxCpCiD83olInjsawQ9ONh6Vh8ifEHrgXoSe3ojA66/B/+c/IrTm/6Hi/4zhnuOH4Dt8GP5jbfq81bGtXUMtAaf9TEw9Trb5xluZx+nVUUZy9kykKlT16FvqNeitXVoPq+c/Al+HMW9qmINEgxxetMG/5Y96GxENWp4L/VOuGIHqcSG0drSi83gbgjUhTJ46GZXBII5UpDD9vBEYf/owVJ09SnXfC/zneecHkbjkQiSnTEVq2sWIf8xyNc3MU/UTptWVxsoFSLfC/5t1CP3+Txl+YDKsdB0SE6WXfwz+Z9f3Ws/39v2oWPUggtadwVj1Gj9wLtLSvd/zAoJb9WYiGrw8F/pi/EdG4vC4SkRaImj760Ht5O2E8aPwrilDUT+uxlirCJ1t8J045lzkRGlFEOmQwwBK5SjEP3ilVtKF7hPqzkLimk8ifuZINWMMJzXpi7JJX3gtYldfipTsJ46+htCGP2U5iiCiwcKTob8mWoFXPng22iZW48jBCFrffBup1uOoLfYdUH1VPR6pM8/SS7XRlo/xH0TshiuRHK92VKk2+F9e1z2clNFUJOYtRuzd6shD9j8HNiO0bh38EX0pEQ1ungv9J3016BgxAZfED+HsD45EzalDEInEEG9VqRfs4+1Sq4YhJZdjDrdc/24WGWuPJeCLy1U+hqaNCMmwjUMJvmqsk82+FxBobgMOv4bgmh8i9FyuwBfbEXjroDoqOQx/o9pJPPwbBj6Rh3gq9J+tHIZjdZNw6bG9ODMc19pGXzoKQ6bWosNfAf+UPl4vaYoehH/ndsfi6xzSfQVO5K/6CVqncsBYJ6tjCKz9ISpXrUMgr/V1vucfROV/34/QM69xSIfIYzwT+i9W1mLv0Im47MguTA5p70TqMvI9ozHqIxPgqwwYLX1kHa7pVaZ234+HiKif+RJ7DhWUQel09+r2ulbkS6t3t6VSKW067IxTjLVL5AffMSq5rU7V4xJfBJN8hd5ioQB170Cqfogxk0kUvtezXXppNVbtJEYByVb4dvy1qF55eqLayQwJaidr8zt60KUbzkK6MgE0qyMUDv8Q9faVbxuV0jj2xtvw+Xzw+/3aVC8qpGUqX0abKVM9F8+EPhFRSbk09D159Q4RkVcx9ImIPMTdoe/jPouITgIXZ4+rUzNdXcg7mYiISsPN2ePq0E8Nl1sPEBH1Lzdnj6tDPzF+olEjIuo/bs4ed4f+qWcYNSKi/uPm7HH3mH7dCMRP4yd5E1H/kcyR7HErV4e+6Dz/3byKh4j6h8oaLXNczNVpKe9Ckz1uxyWzjRYiovKRrJHMKeQdsAON60NfSnzaOYhecLHRSkRUepIxkjVm7rjVoAh9KbGZF6H9kss51ENEpaUyRbJFMsaaOW7l+oS0/hBkL3z82n9A7NSpxlIiouJJlkimWHv4UtzM1XfZjEajPbZvTqX4jx1FaOcOBPftQSByBP6ODvWC+vjJWEQ0eKkefaqqCsm6Edp1+PEppyM1bHhX0Jt3vzSn4bB8wHTp8NbKeejs7Oz1HPa6sE+dZFtGRINDtnA0l8nUrPcM4J6BXFlZqa1TKgz9PMRisa7nsD6PtQhr3cqpjYi8wSkorcFq1s1i3wFUVMgHX5cOQz8P8Xi86zmyFWFOTfZ5IvIee1ia8zLNVUKhkLZuqTD085BIJLqew1qE07yVfZ6IvMcelua8TM1inzdLMBjUlpUKQz8PyWSy6zmkCOu8vd3KPk9E3mMPS3NepvZibw8EAlpbqTD082Adwxfmc5l1s11Y6yanNiLyBqegtAepOW8GsTDbpa2UGPp5MAPeGvTm1KwLa7t1SkSUK0zNeXNqhj1DX9W1chJ6+sKcCvN5rW3CPk9EZLIHpxmyTuEqU7eG/qB4R645lWIGu9TtPxRzHSlERJkywQxeIZliXce+rtu4PvStzB9OPqw/RCLyDvNvv5CsGEyjBK4e3jG3bdZNWr19H/wHN8F35FX42nbDFz+uFvA2DESUgc+PdGgo0jWTkB5xDlJjZgHV43vsHMy69UigVDimnwcz8K3B7+vYD/9bD8N/4BmtjYioWKmxlyB16seRrhrXFazmsLF9+LivOKafJwl6k2/vbxHcdDMDn4hKQrJEMkWyxWTNHDdydejLP75ZfE2/QPD1H6lGDuEQUQmpTJFskYyxZo5bDYrQl71w4K3VRisRUelJxkjWMPRPIu0fvn0fgtvvM1qIiMpHyxqVOQz9k0T+4QM7H+GQDhH1D5U1kjkM/ZNFLsvkSVsi6kda5qjscStXh75ch09E1N/cnD3uDv2jW4waEVH/cXP2uDr05Z22RET9zc3Z4+7Ql1srEBH1Mzdnj7tP5PKqHSI6GVycPe4OfSIiKghDn4jIQxj6REQewtAnIvIQV99PH09dZVT65tjz1ehYOwbhqe2om3/QaC29xEVrkKxug//NTyFkXvE1/EokxjWof7Vs1GP2r0DgqDFrSJ5zDxLD6+BrnoeKN4xGXIn4ez+JVGgPAr+/BUGjNbdiH0fkUR9+3KiUBu+n349ank+hI9GGxPYQ2n86SaVzMf8sX0DssjXodCx3ImGs1cuQmUjKBzXkKkOM9a2CNUCgQhVjPpvJixG78E6HshhJYxUiGvwY+kpiMnAkdhzxVAzxN5OIPdJgLClGDL62PbayV+2nMzj0KEJb78pQ1sEfN9YzDgWSM/6na2eSqFOhr6Tru3cwsWlaU28VY5AO20rNRFUm5DjKIKLBxPOh//qTFdjxehInxoTQ0nkCqVgnkrs6EV9VbPC3w9fa1LMc2py5M96xRbuBk3Mxx3OOwrdHr/kOO61nKbYhoC5vfBWVf5xnKc/qO6Jku7aYiLzBc6F/bGsddtw/Fft/dDp2rKnF9j8D1akKhANBJEZW40BnO9InVPjv6kDiZ6OMRxWirvfQzOipxrJCqZ687Sfkf3uFOgJ4CIFYDdJ1M5EadRFSw8YCx9dpRwfBZmPFXBpUL1+m8aPc8xN5iOf+3vf8bCiqdwUR3FOBkW9OwrhkLWpSIb34K9E+tBrNnZ2qh34cOFRML1hOhF6LSmt54V5jWU/pOhXY9h2EtUxsQFoOEaQ3LvN1Y7THpaZ9HfFJM5GuCGnzCJ+B1OnfRvwUfbluIpKXrkLnpbc7nE8Yg8SIyVrNd/wphj6Rh3ju7712XBQd7RGkUzGEayvxzrENGIshqFTp2plOIVLtR/gaH5IfjCH4Tx3GowqhwtYYX+8uzidyUw1fQHz6zZnL6SrYZcXAGUjKfMNFauZKJEdOVNOD8G/Rh2oqdsmlOzVIjf975PPm8PQpX0ByaIWqNMG/k3cqJfISz4X+KV88iOrTomjtaEXn8TYEa0KYPHUyKoNBHKlMYvrfHcf4iztQdZmK6YpCTnEe7D5xa558jZttzidyc47P20rgcJN61ESkpYOvtu0/pG0GvuYD+vaDwy0nZdURhzZ2/9Uel1+mx8rO42yt7jv4EILF7NeIyLU8eWQ/fuFhHB4fQqQlgra/HtRO3k4YPwrvmplA/ZmdxlqFehShP92CClUCbW1ai+/wQm2+4k/L4K+yDr3o9PH5LXpgpw8i0OvqnZ4l+Lb0ytX68hJD0vu/RIV8A5Knn6OHfbQpy9WbY5A643bEpqnHyE898pDa5mZ9ERF5hidDf82Wd+KVD5yLtil+HDkYQeubbyPVehy1x50uhs/HJUjM7L72PVljXEo5ZhU632dcSnnu1Vpbb1P18fuRUy299GyeQXCPCv50hdZrj112OxIj64CU6tnvetBYx+5qxN97D+ITGtSeKKZ2Rg+hovHRzJeREtGg5bnQf3LXO9FRdRouqX8RZ3+xGTXndSISiSHeGgHCxfbyt6t/Scv17/4YkJQSga9jD3yRF+BvUeuUiO/t76Bi8woEDqrwb3sD/n36UUbQGO7p7VEEjh4EYk3w71iCir8w8Im8ylO3YXi25Z3YEzsL7676LSaPaDFagcMPVyPdXIGR81vhG5LxvbN95ngbBu2dvLORTu6B/5CM2TvztW4whndy4W0YiPoFb8MwsL149EzsTZ6Ly4b9ukfgi5Efb8eoL6leeRkDP6fAxJ6Xa9pKcmRf3iVMRKTzTE9/9euX45Lxr2LS0PLdUC2X9KhLkA7EgOMvwF+2q2bGIDVmqvrJtsF3YHMBwzjFPo7Io1za0+ddNomIisHhHSIiGugY+kREHuLu0Pdxn0VEJ4GLs8fVqZkODTVqRET9x83Z4+rQT1XLjceIiPqXm7PH1aGfGDbdqBER9R83Z4+7Q3+U3GqYiKh/uTl73D2mXzUO8VEXG3NEROUnmSPZ41auDn3RecpcXsVDRP1DZY2WOS7m6rSUd6HJHrdjyqeNFiKi8pGskcwp5B2wA43rQ19KfOxliJ5yrdFKRFR6kjGSNWbuuNWgCH0psYl/i/YpN3Koh4hKS2WKZItkjDVz3Mr1CWn9Iche+Pg7/wOxkbOMpURExZMskUyx9vCluJmr77IZjUZ7bN+cSvFHmxE6/CcEj21FoGMv/IkT6gWljEcSEdmoHn0qWItk1QTtOvz4yAuRCtd3Bb1590tzGg6HjQeWBm+tnIfOzs5ez2GvC/vUSbZlRDQ4ZAtHc5lMzXrPAO4ZyJWVldo6pcLQz0MsFut6DuvzWIuw1q2c2ojIG5yC0hqsZt0s9h1ARUWFtl6pMPTzEI/Hu54jWxHm1GSfJyLvsYelOS/TXCUUCmnrlgpDPw+JRKLrOaxFOM1b2eeJyHvsYWnOy9Qs9nmzBINBbVmpMPTzkEwmu55DirDO29ut7PNE5D32sDTnZWov9vZAIKC1lQpDPw/WMXxhPpdZN9uFtW5yaiMib3AKSnuQmvNmEAuzXdpKiaGfBzPgrUFvTs26sLZbp0REZmDap0Lq9nYz7Bn6qq6Vk9DTF+ZUmM9rbRP2eatsy4ho8MgUkPZ2mTeLyazL1K2hPyjekWudmuEt8/YfirSZhYgoUyaYwSusmWKdutWgGN6RbTtNhbmOlXU5EXmbU4hn6jCadeHWnr6rQ9/ctlk3afXYPvhObIK/4zX4YrvhSx1XC3rvAIiIND4/0v6hSFdMQqrqLKRrZwEV4x3D1XokUCoM/TyYgW8Nfl98P/yHH4H/xLNaGxFRsVK170Vq5HVIh7rvoW/28N3a0y/tqz4JJOhNvshvEfzrPzPwiagkJEskUyRbTNbMcSNXh77845vFd/hRBFvuU40cwiGiElKZItkiGWPNHLcaFKEve+HA4Z8brUREpScZI1nD0D+JtH/42D4EDz1gtBARlY+WNSpzGPonifzDB46s4ZAOEfUPlTWSOQz9k0XtcXnSloj6k5Y5KnvcytWh72993qgREfUfN2ePu0O/4zWjRkTUf9ycPa4OfXmnLRFRf3Nz9rg79OXWCkRE/czN2ePuE7m8aoeITgYXZ4+7Q5+IiArC0Cci8hCGPhGRhzD0iYg8hKGvHPtdFZr//hRE/mO00TKAjLkDnac+jM7xHzUaxIcQf8dKdE65Awmjpe8+ivhk9TynlnKbRDTQuPpDVLD174xK37z59UoEdgxBbbAC1TP8qP7yfiBU+Nn55PgfI1FVY8xlkNyC4K5/R0Dqdf+KzpFna809WNeR0K+dAHSsROW+X2mL9YD+BFKBvQi89WUEjdasRnwZsZqJxozVHgR236Geq4htEnnZ9F8aldLgh6j0o8RpwJHYccRTMcS3JhG76x3GkiIl9sIXy1DiLerHZ0i0wN9jecRYUAaBMUgHR/csFRNUmah200TkFZ7v6b++KoQdz6VQG6vEiJYEJlXXIDysCsHTQggt/quxVn7Mnr7vxMdRcdBoLMjnETv1MqTz7ukbsxlkfx3Gc6V2INC0RPXs2dMnKgh7+u5w7MU67Pi307H/307Fjv+qwfbn0qhOVSAcCCIxshoHYu1InziB1I4OJJaPNB5VJlUfRWLsFxHvKpbhl6qLkBryXqR8IaPBKqKOGKxHCBlKtsH54UYPP3WEh3tEHuK5v/c9dw1B9VtBBHdWYOSrkzAuWYuaVEgv/kq011ajOdYJX+tx4ECb8agyqZyBpAR7Vzm9a6glPfxz+o5gyBijxSBj85PmIpXHTy5dcwdi9XONOasxSNToQ1i+6G8Y+kQe4rm/99pTouhojyCdiiFcW4l3jm3AWAxBZTqAznQKkRo/wvP9SF4XR/DWTuNRhUnXylUwGcrkf0XSWK+LDOe89XFUmkWGdo7+N0IHfohQq218Jqh66NpYfJ4lZNtpKOm6zyFZWaEqTfAf2WK0EpEXeC70T7ntEKrPjqK1oxWdx9sQrAlh8tTJqAwGcSScxPQbT2D8h6Oo+lsVzeHucxb58MX3OQ+zWIv1RG4Wvo4X4G99Fv503GgxHPyy2jF8Ud8hHPgPVMhO4sRefZmM+6v5imZZdgdCb6tlu3+kLzOka9XRwwj9iiFf28MI2jZPRIObZ0/kvviliRi1J4qRY2tRM2kE0vE4Wk//K+quP2as0Q/MSzZTe+FvbzIaa4CKMerfaw8Ce+5AIJ9LNo3LMX3RtQi1PIvEpIeRrGiD//CNCHVdEDQGqdFfRry2Qf3U1WzHw6jYt9ayA+KJXKKC8ESue6z53Tl45f3nom1qAEcORtD65ttItR5HbUuOa+zLxT/BMq4/AyltWEbtiIzFmU1AsmElOofN0C7BTA35HDrVfLLXud+5iDf8EPGhEvgx+NrtgU9EXuG5nv6TL56LlrZTceEpz+HMKQfRclcN2v8viFFjfQifH0DgxsPGmoWQd8j+Q14nV3UR+I98EaH2s5GqrDPaDGnV628ze/1K1p6+CvBYi9FmEVQ7DX/Pnn5qrAr9KtUm5wqOWbbfhT19ooKwpz/wPbv9HBxLTMelpz+rBb4YfXMbhrw/ho7aFPxzi31zVJvae7YUUI7BJ2dz41v0cXtrsQZ+Tu0q9Jt6F4fduP/AF1G562sZAp+IvMIzPf0Xm6Zi56Hz8TenPoWxI4rpzZ8kRb85yz6mnwt7+kQFcWlP3zOhv/r3l+GSs17DpDFFvVX25AnPQCpYAyTfgL/DfO1jkBpyhlHPJA50vgB/3lfnmNtURy2tjRzvJ8qFoW+E/QANfSKikuKYPhERDXTuDn0f91lEdBK4OHtcnZpp/1CjRkTUf9ycPa4O/VTI6UNBiIjKy83Z4+rQT1ROM2pERP3Hzdnj7tCvvtCoERH1Hzdnj7vH9EPjEK+eZcwREZWfZI5kj1u5OvRF59CP8SoeIuofKmu0zHExV6elvCFB9rgdw/7RaCEiKh/JGsmcQt4MNdC4PvSlxIdchujQa4xWIqLSk4yRrDFzx60GRehLiQ29Cu3DPsWhHiIqLZUpki2SMdbMcSvXJ6T1hyB74eOjv4tY1buNpURExZMskUyx9vCluJmrb7gWjUZ7bN+cSvEnmhHqeBHBzm0IJPbCnz6hXlDKeCQRkY3q0ad8tUgGJ2jX4cerLkAqWN8V9OaN0MxpOBw2HlgavMtmHjo7O3s9h70u7FMrpzYiGtycQtJsk2mmYg3kyspKbf1SYejnIRaLdT2H9XmsRVjrwlonIm+zh6c5b9bN0jOMfaioqNDWKxWGfh7i8XjXc2QrwpwKa52IvM0pPGWaq4RCIW3dUmHo5yGRSHQ9h7UIp3mTtU5E3uYUnjI1i33eLMFgaT9UlKGfh2Qy2fUcwqzb26xTYa0Tkbc5had1ai3WtkAg64dUF4yhnwfrGL7IVBfWurDPE5H32MPSHqTmvFNdwrmUGPp5kO0K2bZ9atZFpjoRkT0w7WFqztunDH1V10o/hr65fbNuytZGRJSJU5BmarO2lwJDPw+yTevUZJ23LxNObUTkTU6BaW9zCthCgjYfDP08yDat7PPCqc1JvusRkbvlE5BO69jbCgnafDD08yDbzCTbMieFrk9E7lRQQGZZt5Dt5IOhXwDZdj7yXY+IvCff4CwkYAvB0C+SPA8RUSkVEqrF6q/QH3Q3nzf/YQr5RyAishusWTLoevpERG7Enj4REZUcQ5+IyEMY+kREHsLQJyLyEIY+EZGHMPSJiDyEoU9E5CEMfSIiD2HoExF5CEOfiMhDGPpERB7C0Cci8hCGPhGRhzD0iYg8hKFPROQhDH0iIg9h6BMReQhDn4jIQxj6REQewtAnIvIQhj4RkYcw9ImIPIShT0TkIQx9IiIPYegTEXkIQ5+IyEMY+kREHsLQJyLyEIY+EZGHMPSJiDyEoU9E5CEMfSIiD2HoExF5CEOfiMhDGPpERB7C0Cci8hCGPhGRhzD0iYg8hKFPROQhDH0iIg9h6BMReQhDn4jIQxj6REQewtAnIvIQhj4RkYcw9ImIPIShT0TkIQx9IiIPYegTEXkIQ5+IyEMY+kREHsLQJyLyEIY+EZGHMPSJiDyEoU9E5CEMfSIiD2HoExF5CEOfiMhDGPpERB7C0Cci8hCGPhGRhzD0iYg8hKFPROQhDH0iIg9h6BMReQhDn4jIQxj6REQewtAnIvIQhj4RkYcw9ImIPIShT0TkIQx9IiIPYegTEXkIQ5+IyEMY+kREHsLQJyLyEIY+EZGHMPSJiDyEoU9E5CEMfSIiD2HoExF5CEOfiMhDGPpERB7C0Cci8hCGPhGRhzD0iYg8hKFPROQhDH0iIg9h6BMReQhDn4jIQxj6REQewtAnIvIQhj4RkYcw9ImIPIShT0TkIQx9IiIPYegTEXkIQ5+IyEMY+kREHsLQJyLyEIY+EZGHMPSJiDyEoU9E5CEMfSIiD2HoExF5CEOfiMhDGPpERB7C0Cci8hCGPhGRhzD0iYg8hKFPROQhDH0iIg9h6BMReQhDn4jIQxj6REQewtAnIvIQhj4RkYcw9ImIPIShT0TkIQx9IiIPYegTEXkIQ5+IyEMY+kREHsLQJyLyEIY+EZGHMPSJiDyEoU9E5CEMfSIiD2HoExF5CEOfiMhDGPpERB7C0Cci8hCGPhGRhzD0iYg8hKFPROQhDH0iIg9h6BMReQhDn4jIQxj6REQewtAnIvIQhj4RkYcw9ImIPIShT0TkIQx9IiIP8SX2HEob9byk092r2+takS+t3t2WSqW06bAzTjHWLr0DBw7gyJEj6Ojo0J6LBjefz4eqqiqMGDECY8eONVqJ3OvYG29rv9d+v1+b6kX/Xde+jDZTpnourg/9zs5O7Ny5E+FwGKNHj0ZNTU1B/wDkTvL71NbWhpaWFkSjUUyZMgWVlZXGUiL36a/Qd/3wjgS+9PYaGhowZMiQgr55ci/5OcvPW37u8vOX3wMiys3VoS9DOtLD5+G9t8nPX34P5PeBiLJzdejLGL4M6RDJ74H8PhBRdq4OfTlpK2P4RPJ7IL8PRJSdq0NfTuZxDJ+E/B7I70PBknHs/cuzePY5Vf6yF/Gk0W4VaUKjLH+5CRH78hyPj7dFEIn0LG1RY2E22Z5TE0dkR6PxvAfVXJ6ibYic6L120a+TXMfVV++8/PLLOO+884w58rqCfx/atmDF12/FhsAMXHIGsH1TI/bW/z3u/N5cTAjoq8Rf/hEWLnsGNedegjGHnsGWExfh5jtvxkVygJnH41/4z+uw/OU61FkOSCdetRTf+sgYY663rM8p2t7Ayu8swbrmCZgxawwiL23BnlM+iXu+/SHUGavYRV5+CPf+4tfY8lYb4pPUa1yuXqOxTBTzOqm0eMlmHhj6ZFXo70N811qseHkG5l/dgJA0JLfgRwtuxZ7r7sPSj0h8NuGhhf+Cpmt+gq9fpqU8Nnzv01g7+fu4+/qGPB6vh+lDE+/EnVdbIzab7M8ptjzwadz6xpXdO5ek6pmfUIGdKfGV+O5GvPB2G47+6UGs3PNhx9Av7HVSqfGSTaIyC02ei8+bgS0CZ2PGu1Ts7mrS5996FhtaZuCiWWb3twaXvHsGDv7xWRXNeTwee7H3bfWoakv3OZccz4nos1j3dAhXfq77aAKB7IEvQpNm4L3veS9mnuL0Wop4neRaDH0aZOI4+JcN2PD0Fhy0Dl07jovbNaHpDaBhst6jxuGjiExowNSwPitCpzVgwuGDOOi4PdvjDTU4iMan1Wt6rhFvHM4x+p7rOd/ajjeSZ+OMU9V3aozDt+U9oJ9dQa+TXIuhT/3uiSeewPr16425nrItyy2JxrsXYsnDKrT+tAK3LFyODbsiaiewAv/yrV+rSMuubdNa/PrIDMy+VO82792t+tb+Cq3eRZvfg73N+qyV/fFADEiF0PTsBjRFI2j644P4zk0Lcdef2ozlveV8zrY2tE1S8fyTW7Dwlq/iq1+/BZ/95GezbjO3wl8nuRdDn/qVjLvff//9WvnDH/7Qq5jLNm/ebDyiEAGc8dGv4/bbFuHzX78T93ypAS/851ex5OfA33/lQ8h6SrLtBax44AVM+OQXMNsY5QiFbOHbpQIhc2jF5PB41efH3GWrcN9tn8fcK+ZivnpNS6+owLM/XacN1cjJ1R/d+yOjPITGSJ7PuftZNJ35bdx33324796f4L7PNuBZ9fgtapHTNnPL/jppcPFM6EebG7F+zVqsXbMejc1O16JF0fR7Wb4WG97svTzr4xNRRJqb0dyjRNQWc8n+nJrWbdhgPu8hoy0n/fVEnDbZtT31nK/nfoWl9OKLL+L888/H//7v/+KXv/wlLrvssl7FXCYnZP/yl78Yj8xfzeSGritY6s6ai6/fqYLxe/MxI9uYd7wJD31nORrPXYSvGydgxZj6CcCRozhqzGsiRxHBBLXMmBcZHq+x7RwazjgDaDmoHXXUjJmKs8892yhTMSacx3PK9mrei9mzup+nZtZFmNG2BW/sdd5mXrK8ThpcPBH62+6/HOPGzcHSx9bj0XvnY+a4cZi3ztoFasI9s6ow5YZlePSxezBvWhUuvnObsSyPx++6BxertmkXzMCMrrIUG43FzrI/p2j++dUYXjsd8+59VD3vTdpzLP59tqBuxIobLseUqioMV+su/K3RbNh2/xUYN3wmFq9cj/Url+IK9ZxTvtVoLC2/pqbC+o3bt283amWU3Iu13/wX/LpmPpbedBF6nMo8YyrOaGtC02FjXonsakLbmVMx1ZjP+ngH8bY2LWClP2+eXNXLDEyQgM71nKfKcj3gu0TjaDOOBBy3WQTr66TBZfCHfiKCbdtmYEXLfmxc/QBWbdiP/XdNw+rrlmCTsUr054txU/M3sXn3Rqxa/TT2b/ommr+8BKtb1cI8Hq+7Aat2q2VdZRlmG0ucZH1OsWcF5t2wAXMeP4r9G1ap592Jo7sbseSybH/F4zDzYwux7MFFmGW0WI07bT5W7O/A5scfwAOPb8b+1XPQ9O+LscJhfLoc5LKy6upqvO9978tZZL1CLkMrigrsdUu+ioegjgi+pAL7hPnGpDb9TVZ1qkc94w2s/dkLKlSVthfw4No3cIbqWWv97ByP3/vwv+Bffr4FEeOcaPzws7j3Z42ouXw2ZuhNveV6zrrZuPI9Eax75FnjTVtxND35FN6YdBFmWo8+ClDU6yTX8uZ1+m8ux/TTH8VCFbgLJ0ax+qoqLDpbheB3zV9xFa7jZqLxjg48cb1DyPZ4vJpfNw++64ZjY8fdjmHbW+7n3PatKZj+ylJ0PH4DCu+srcc83xXA42msutJocvL6bZg+7VHMb9qMRZONtjJ65JFH8J3vfAevvfaa0ZLZ9OnTtXWvvfZaoyW3Qn8fDj7+L7jpZ05HHxPw93feiblyybrxBqxfR2oQireh5j2LcKfRo8/5+JotWHvvj/Boo/mO2RDGvGc+vnXTbIyxDaf0kOU5NfEmrPv+97ByWxx14RgigZn4/G2LMDvjbajU0ciiW/DQbmPWZL5JK1Lk66SS4puz8lBs6Ed/fjWqbhxnhHQTlp8zBZtvVQH5MWMFZe0NPiw5Zyu2fn2a0dKt5+MVCf2vNuCJ/5qOyJ4wwhOnYc4l0xAOaqs7yPWcw7Fi9jgs/8hObL1lHCKHIogG61A/Kt/4zyP0o01YccNMLIgsU0cS81FkJ7EgAy30CxFXvfhYqA41xQyXqOCOtMURqlGP77qoP7dczymXbLalalBXW8BGsynydVJp8M1Z5ZLYhuXfXYuGW+YbvfJt2CyXPdgCWgJ72zaHXlyvx0u/XXlzLe75/VEc3fEolt0wHVWXLMe2hLbYQa7n7ECkBZiR2IArpjXo5womVcE3K9s287TrHlwxTm2ragoWB+/B/t/0T+C7Xai2yMAXIRXMdYUHaa7nlHAuWeCLIl8nuYvnQn/bnfOwZM9CrLq1e7Syypj24tBTd3p8+MpVSHdsxRO3LsTCW1dh47ZVmPP8YixZI7uDRqz47AIsMMv9+onTfJ5z9dpmLHvVOEdwYjO+2bwYN/1EBuCdt5mXifOxqrEJWzfcjfm7F2Jc1p0TEQ02ngr9yGPzcPFXgWWb7sasrnCdhmlnQ7vMslsz9u9RS6b1HNpxfrzBOl83C7PVNrft2a9mxmHmB+ZgjllmjFNteTyn6uHN/ux8TDN7esEZuPr6emx4Rq5fd9pmnoJh1NXXY9plC7HsmUex8BVzR0JEXuCZ0I+sm4eGuZswb8MGLDrTaNQ04OLLwtjYuNWYVxJb0bgpjNmzut9On/nxTiI4ekgfrgHqMePauZhrlvNlMCXXc6rls8JGwHeLtkaMnYvTNvNg79EHx2HcZGB/hPehJ/IKT4R+ZN0CTLtqPeY88jSWTIt2v4HKePfSrE8uwrh7F2P569ostt25GPeE52Peu/X5rI+PrMW8aVdjhflGp0QUjd+bj9uaZ2PhtT3vwWKV6zln3bwU01Yuxm1bjO0eWou77wdu+Fi2C0GzaF2PBedcjuXPmu8vUN/HmqVY9nod5lyS+XUS0eDigat3VNj5rsAKY66HTzyB9INztKq8Aeviz26AXAwdaZ2FZa9uNHr0uR4/G01rbsLVn1yBRiOfEZ6Fb/5+PZa+2/buTJvMz6mLPLkYF1+1HE2jVE9e7WRm/OtGrL91ln69thO5iuiq1cZMtxuMq3iaH1uAOTdYXmewHjc82IhV1/fPqdynn34aV111FS644AKjJTN59+6TTz6JSy+91GjJrZxX7xCVGy/ZzEPJ/8ijEdV7VxlcX1fEtfHq4YeaEVGRnP+llUqu55RbPBzSVkBdMS/KgfY6EzK2X9z32Rdyi4VXXnnFmMvswgsvxJw5+g45Xwx9cjOGfh74R05W/H0gN+N1+kREVHIMfSIiD2HoExF5iKtDX8ax5FwBkfweFDKuSeRVrg79qqoqtMl9v8nz5PdAfh+IKDtXh/6IESPQ0tJizJGXye+B/D4QUXauDv2xY8ciGo3iwIEDRgt5kfz85fdAfh+IKDvXn8idMmUKjhw5on0UX2trK8f4PUJ+zvLzlp+7/Pzl94CIcnP1m7OspLcnf/wdHR3ac9HgJidtZQxfhnTYw6fBgO/IJSLyEL4jl4iISo6hT0TkIQx9IiIPYegTEXkIr94hoozkBCGvkuofvHonT52dndi5cyfC4TBGjx6Nmpqagv4BiCgz+buVW1zIO57lDXDyfojKykpjaRbP/Q7Ysln1xvYBSfuHM7tMIAiMHQ+cPRN4z/uNxtJj6Odp27Zt7IUQ9QPzaHratGlGi4Mjh4A1Pwb2vW00DDLjVYZdeyMwYpTRUDq8ZDMP8ksoPXwGPlH5yd+Z/L3J311GgznwhXxv8j26mKtDX3odMqRDRP1D/t7k786RDOkM5sA3yfco36tLuTr05aStjOETUf+Qvzf5u3MkY/he4eLv1dWhL+cJChnLIqK+kb83+btzJCdtvcLF36urQ5+IBhC3X6VTCBd/rwx9IiIPYegTEXkIQ5+IyEMY+kREHsLQJ6IB7HLg63cD31lizBdjnnq82sbXbzbmvc3Vt2F4+eWXcd555xlzRNQfMv7dffsmo9IX5wPzPwyEjVmEgFEjVfc0Dhw8bLSJZuCeB4z6dcA3Zxl1mz/fAvxKQl8tj74BfO8uY0EJyI6khHgbBiLyoGHAmHpLkcCXdhX+PdpVySao1q9QxUNXkeaLoU9EA8jTqjeujhjkqEHK6leMduWFb3e3f3up0SgeAW5TPfquci9wXNo7gKPaCmTB0Ceigemc64C57zJmlPMWAe+baMxkMeICoE5NU4fVjkJvom4MfSIaOMZfqoL+C8AtPwCuUXUZ239b9f4bm4HgUGD214B/WQJcN0/tFEbqj7F7/xn69OB2fWoKq3YZh/+ieqyHMfSJaOCI1qswP0v11KuAdhX0m/4HWPEY8MulwC9U+B/qAKrVOmepI4Ah1hO7hqkq0KfKzkCt94p6nFVKtR1U22w5ZDR4E0OfiAaOI48ADz0A/OdNwPdV0D/1krFAeVWF+A+/opbdBTxyv9ohGO2m8R8C/m6WOiJQ9T1/7L08thu4R23zoV8bDd7ESzaJqCDlu2RTrsn/mOVyzVxUz/0ptROQcL9oAfBB1fuXwD/+GvCTe9UORFtJ4SWbVuzpE9EAoXrir6qe/Z+tRQV4TJYdt7VLeRE4qBbd8F1gjhH4R16xBT7ZMfSJaIBQPfFf/Q+w1lpUW0qWtdvapTwCvKUWvax2DO2H9fH//3yAgZ8DQ5+I3G37KuD73+45/k8ZMfSJiDyEoU9EA9grwOMylGO7/LIg/6cPBz3+lDHvbQx9IhrADgOvyUnb14z5YuzRT/y+9oYx720MfSIiD2HoExF5iKtDX96QIG/6IqL+IX9vhbwRiAYeV4d+VVUV2trajDkiKjf5e5O/O0cBeXeUR7j4e3V16I8YMQItLS3GHBGVm/y9yd+do7HjjYoHuPh7dXXojx07FtFoFAcOHDBaiKhc5O9M/t7k787R2TONige4+Ht1/YncKVOm4MiRI2hqakJrayvH+IlKSP6e5O9K/r7k70z+3jJ6z/uB8aW9qeKAJN+jfK8u5eq7bFpJL0R+KTs6OrTnIqK+k5O2MoYvQzoZe/hWRw4Ba34M7HvbaBhkJPCvvREYMcpoKJ3+usvmoAl9IhpAnvsdsGWz6o3tA5Iu/3RyOWkrY/gypFPGHj5Dn4jIQ3g/fSIiKjmGPhGRhzD0iYg8hKFPROQhDH0iIg9h6BMReQhDn4jIQxj6REQewtAnIvKQwfOO3MH0tm8iGjh4G4YBFvqD/QZPRDRwDIIbrrl/eIeBT0T9RbJGMsfF3B36MqTDwCei/iSZI9njUu4OfRnDJyLqby7OHneHvpy0JSLqby7OHneHPq/SIaKTwcXZ4+7QJyKigjD0iYg8hKFPROQhDH1yl/dcB8z9FPD+WUZDnnI9bsQZwDvPV+Uso8Gk2j+qHiePnWE0FWLGlfpjP3q50UB0cjH0yV1Ov0AP52lTjAbl/UYoZyoS1k6Ps5r6YWP9jxkNpknAObIzUOUdRlMh3vFO/bHn2HcmRCeHu2/D8O2bjAq53qd+ADRUGTMOom8A37ure71Dm4AfrtKXffFuINu74hvV70mdw+PGqyAebTzn2Pepo4EGVTkMrF2ntyEB7B4JfE7tCMJqVrbzS32J5nN3Zn7etx4BHlLP9XdL1E6nvvv10+DxHfV7V0K8DQN5S6xdlbheUkZbypiXElUlk9/8jwpqKSrMI0bbnqeNNlX+ZLTZXajC3Dwa0AJfqJA32+bOU0cARnO+giGgQpWoCnyiAYg9fRp4nHrzpmzLcCXwzQ+p0FXV5j8C96retsl+JCGP36x2JGOrjQYnakf0Z9Xzvy5DT7+Xy4GvG+tuUus+pabs6Q9e7OkTldgQ1esWXSdZVVGd6IzmnKUHvqi/QPXejcdbWY8enlM7BTkS+MMW9Ti17riJqqiATuw0jhLU8reMx+XjVHW0IIEvQ0Q7tBaiAYehTwOMCt9hRo88PFQFvpp2nWRVZaKlt251jlp2ngptETmu/qfWm70I+LDaUVgdeQm47Rbgv42jgKnXAZ9Tj52mAnuMCvwxahvnqbav3Kw/t9Wpqte+UJX3GfN2Mybp09bmwnYWRP2IoU8DywgV8F1hq0J4turlH3wN+LMKaymHbGP7I1So/4MK4rlqGlTzMmxz5yp9vaDaacxSgf45FeKZ/M0svXd+5BXgf74N/OJpbVQHQ9TzftC2wxgqOwVVhhvzViOuVDsQ48iiSW2DaIBi6NPAIkM04rj01pWpKkyPWk7KnrDd8+RISB+Skd9kCe5VMs6vdhI/XK52EqrHnVDb+ZNlbL+Hy1VYy3iR2kG8+oAK68Nq+hiwQ03FaNtZ3NeM19DrxLB6zfNm60NLsSZgwxt6M9EAxNCngeM9NwOnq945VFBvWAe0qmpFgwpU1Vu3D7V0UT373/0a+M1dwH+q4D6imhreBVxysarsUUGtdgQpNd/0on6ksG2n9ijdMe2qTO1EQdgy/l9tnDhISJffImYcbVhvsDjiUuBLC4BR8pgO4A9qpyCvgWiAYujTAKAC98OLgPefoc82q4BuVGG+0egxjzof+NzXgHP02V4a1Q7iObXuBWrn8C93A59SIfx+FcbayV81navmZ6vpaBXim9V2u6gA32scUZynnv869XgZKtJ2PKr33/RHfZkjec1qJ7XwOuNoQQX+cyrwnzOOEogGKIY+DQD1Kmgn6r+Nx18DHn5Mb35O9d6fa9Kv20+pwN6rNzsa8TH9pK1cgdmqevjmOQApO9S89OjHq+C/Vq1ntXqV6rmrwJbx/7PU409Xr0UCf/uvgKeyBPiczwCz1E5KziMk1Hq/+g91tKFeO9EAx9CnAUCF5XrVq97xNPCTe3sOj/xmOXC/CuZfqh1AtmGTqZP0AE6pgP+BCmDzHICUn6n5V5v19UYYV9h0Uc/9319R4a+OFmQH8fKvgf9ZquZznIxdvxY4qI4S5DXf823gRfbwyR0Y+jQwvKV69z9TxSnY921SPW+jnslBFbpyROBXRwwLv2AZ3vkQcN3NwDTpwSuR3frUbrsKe9lBPK7CX07o5vSGCvtvZH7NRAMUQ58Gh7fU0cDvVK89pupjzgIuMe6qOfdK4Kwz9MsyD6qevDl0RORRgW99+av/ZtTLRm7BIMIjh2nTkvnDeqNCnlEzHGhtAfa+CezcYzQadqtQf+YFoEUtj3ao6T79s0x3PAs8dS+w4RXtfGthQkBdADiktrNLPd4YJcpblfqd74wA+9XrfaPJaKRB4bI5RqU0Og8f026n0LOU/jYMvPcOEVExeO8dIiIa6Bj6REQe4u7QD8g1ekRE/czF2ePu0B873qgQEfUjF2ePu0P/7JlGhYioH7k4e9wd+u95PzC+xFcEERFlI5kj2eNS7j+Re+2NDH4i6h+SNZI5Lubu6/StnvsdsGWz/macpO2e60RExZKTtjKGL0M6Zezh99d1+oMn9ImIXGxQvTmrkBdERORV/ZGV7h/TJyKivDH0iYg8pE+hz2EbIqL+15fsZU+fiMhD+i30eVRARJRZf2VkyUO/+9Iio8EilUgaNSIiMjllo2SolqXqq5TK2tO377lSsbhRIyIikz0by9nrL2noO71Qa1uiPWrUiIjIZM3GXDnaV/0ypm++4HhruzYlIqJuZjaWMtwz6bcTuSIVSyB2vM2YIyIiyUTJxv7Sb6EvezAp0cPHjBYiIpJMNPOxP5Qs9PN9wel4Au3Nh405IiLvkiyUTMxHqXYKfQ59pxeiXWSk7bm6e/jW9WLHWtHRctSYIyLyHslAyUKTNSslLrWpw+Wa1iwtRsGhn+sJsy3Xvxm9yCFNW/MhYwkRkXdI9lmHdaRkkm2ZyLXcrl9P5FrJC41FWnFs5x50Hu/e2xERDVaSdZJ5kn2FhnWpFPwhKkI+EMXKOm9+cIpWd/hAFceivvyhICpqaxCqqUKgMgS/fFrNyfk3ISLqO5V7qWQCyc444m0diJ1oQyqesAx/Zyp6p1i+hNlustaFfT6XokJfSFhbmfPWqfYlU9VkbZdP0jLrXcVY12x3mmaSazkRUankCllzudNU+5KpUYT5SVlCb++5rtlunZrs8/koa+hrU1vw24u2jjmvvsx561RY60REA5E1hHsFtiXwtXmj3rMY7erLXMdparLP56NkoS/sYS1T7atr3mizFL3dNm8Lf2GtExENRNYQ7gpqS4CbxT6vF61Zr8uX0WCfWjm15VL20NemRvCbD9Hr3cVsM6dmXag5o9bNupyI6GRyDGMj6IUstwe32dZzmdFuPLa7vefUyqktl6JDX9jDt0dYG/WuaYbgd6pbp8JadyLbJiLqD2YoZ2INYqfgdq4b8xkCX1jrwj6fr5KGvnAKa5mawazVjVV6LLfUTZnqREQDUaaQNusytdb1qaUuX7blwlo3ObXlo0+hL5zCOFOAW4Nfn2Ze1zq1y9RORNTfMoVvtvCWqdnc1WYJfGFd186pLV9lCX3hFNxdbfLVtVybOK4nrPVM8lmHiKgU8glcp/AWZt1sknn5Muum7vW626wyteejz6EvnEI3V4g79fpN9u3Z54mIBip7IPcMc3OqV7IFvrBvSzi1FaIkoS+cgtnalrFuC3/hsCmN03MQEQ0EmcLY2myuY4a9yBTyTtvL9ByFKFnoC6dQtrf1DHdL3Qh/kS3csywiIjopsmVxjyDPI+xFuQJflD30TZnCXvSat+wA7LI9BxHRyZAtkK1BL7IFfNbtDMTQN2UK5lxhL3KFerYdAhHRyWAPdjunwM4W/lalCntTv4a+yHeHYJVrR0BENFBkC+ligt0VoW/K2Wtn0BPRINaXMC912JvKGvoin/BmwBORV+QT5uUKfFH2T87K9xu0FiKiwaLQfCt3Bpa9p29Vjh49jxKIqL+VI5jLHfamkzamz7AmIq/LFvTl2gmUbHhHQtxespFvyCxERF6Rb/YVmqn56lNPP9uLKPYFluobIyIaKIrt3GZ7XNHbLCb0nYLZ3pZrnoiIerIHea55UWj4FxT62cK+19Tyzln74xw2Q0TkSfbMtoa4z3inr9lmn1rlG/55h37v4NbnZWoNen2+53LrVFjrRERe1iPkHcJdqtrUsgOwr2eyzzvJK/SdAlumWrEFfSqV6l5mFvVlPsbKPk9E5BWZAluLd1W3Fr/fb9T19bQvY5n2GGMqrHUnOUPfGsxdIS7FEvYS9F0lnUKgIoRAdRjBcKUqFQiEQvAFyv4+MCIiV0snU0jG40hEY6p0ItkeRTIWh9/n14LfLJLr9vDPN/gzhr417IU98FMpvVcvJZlMamEfqq1BePhQVNRUGY8iIqK+iLV1IHr0OOIn2rTwDwQClh1A5uAXTuHvGPqZAl+CXZuqwNeCXgI/ldR69UPGjtR69kREVHrS8289cFjr/Qf8evDrOwA97GWHkE/w5wx9a+CbvXsJfAn7RCKBIeNGo3pknbE2ERGVU/vhCFr3tyAYDGrh393zdw7+nKGfLfC1sFclkUwgrbYzdNI4VA6pNtYmIqL+0NnajuO798On4joYUOGvgt/s9ecK/h5nV/MJ/HgijhTSqJs8gYFPRHQSSPZKBksWSyab+ayNxhjD8PY8N3WFvn0Fs9gDPx5PaD38UFXYWJuIiPqbZLBksWSyPfitGW4y672uo7SurPfy9TF8M/Brx49GuLbGWJuIiE4WyWLJZGvwa1dVWnr7Uqy00Lc3aisal2XKRmQMP5FIIjikCrVjRhprERHRySaZLNksGS1Z3dXbly+HbO81pm8PfP0qnSRi8Rjqxo8x1iQiooFCslkyWrJaMtse/Nbwzzi8ox0iqCKXZcphQ7huKCqq+aYrIqKBRrJZMlqyWjLbzG974Au/2WAulC/ZQ8gDzF5+PB5XhxAjtPWIiGjgkYyWrDZ7+3rw65luDX/n4R1VtLF8tceQMSJ/KIjqobXGWkRENNBIRktW6+dg9bF9a6abuk7kmo0y0fYQablqRx/eCQ8doi0jGshOtLXja9+/Fwu+9j0cPXbCaC3ekchxzP/ad/G12+/Vtk000ElW64GvZ7g+xKMvM3PeF9/doqb6jBn0coggJwU6YzF0RKMYPeUUDK8frT/SBY52tuLPLW9r05T5HWcxJBTG2SMnYcKQ/Iew0mm1N40eQjIeQSoZ1d8BF6hGsGI4gpVyhVPPtz5T+bUcieAL//oDRFTgP7j8Wxg/dpSxpDj7DhzCJxfdirphtbj33xdj9IjhxhKigelocwtadr6NqnAYlRUVqAhVIBQKIRDwd79T1wx9s3evjeEnVOjH4oh2RtHe0YGGGWehqtYdvX0J+sd3voyYOsQphPrnwIcmvwsTcwW/+jeKdx5ErHWXCv640dhTIFiNiiGnIhAapuYY/iWTSkL9guqHow4OHj2Gz//bnYicaMPK//gaJvTx8uK9Bw/jE1/7D9TV1uBH/3YLxgyXn6cDeYt7MKh+iQJGA5WU/Nzj6sgt3pbxZ99n8jMM1ahS6+qfY8eJVjQ1vobqqiqEK8OoqAghFAypX8+AFvrabZmtoZ9URQ4NJPSjnZ2Iql5+e0c7pl9ykQoy9UvtAn/Y8xp2RJqNucIMq6zGNaddpP3jOEmnEoi170Y8uk8L/2x8/gpU1kxGMCyXuTL4S+K1zcBTa4B25z/+lngan3vbh6NqurIhjYmVzj/HfO3pTOETTT4MD/nw36ekMVpNe5GwqFZh8ZHrgOkzjEYqGfk7a3kVOLFLhX9hHblM2jsTOBzpwKi6KlRVWnLNr+pDJwOjzlY/V3cGf1Ll99ZnXlChX42w6u2HKyuN0Jebsxm3Y5bA14rlDK9+1lffCcjJALcEvjjaqQKhSMc7O9QRgupVZJDoPIBEdH/OwBfpVAydbbuQiB0zWqjP1jygklj98R9pUT/oQ73LsaPqtz6p7WJ9J9S/u9M6BRTZhhbz8jsh23ZYR3st8poeuV/WpFJrUx24YztLFvh7Wlpx60+exzfuewbLH3pZHR1aztXIc8hztR0wGtxHslp/f5We4VLsGZ/zOn0Z43eTfMbws1HfuVHrScbwpZefTmfeKdhJ8Mfb3pKa3kB9czxiVAaggfza3Cx6WP2vNBl0+FgHvrfyTwil9+HOz/hw7Ngu3L32z4gnLNuXDp32nO6lncS1Bb6V4yWb2rWd2lR/IEEF/h71++A8hp9NMtGujhCOGHPUJ7Zf3l5kqCXD0FyfyDZl29nkem1UnPDIkvxMj56I4ns/exGx6AHcMncoRg0N4PNXDMGWN3eitSNmrKXIsE6Vu9+TZA18M8ulmLr+Nc1GtdhY2dhb5DGU4QWJTnUYX6Rk/KhRo7JRoRwYMVL9vY5AVVUYgdOmqd/uPoSFemzgtOnatqpHjkRg+KjcwU+lV1MPDJuifh4ho6FwMqSz5P6N+OOxChwNDMWOfXGVa6r9UBJV4SrtHvSaQIV6rgb1nOP1eZcyL9U0g1++hJnxPf4qrHsDbWWjeF46qf7rNGYKl0p0GDUqpyFVVfiHOZep8jeoq8twpU0B6oYPwyeu0LdXW82PAj0ppJc/cjow4b3AuFm9y6hzgIpaY+Xe9h1qxdL/eQHbRp+KGV/7HDovuhzf+HknHvljG+59Crj2mr9H7ZRL9W2Nf4/+XC6/8MIpu611LfTtC7vnGfo69W/Qp98DHi2Vnfo9rTi0Dx95+yVc39aE8NaX5TjXWFgE9djway/h79t24sN/fQmhQ3ICn38LJ4X08sMj1F5d9cDtZfgZKrAvAip77+QjrZ24/aHN2D7mVJz7z59GZV0t6i9+F9LvugC3/rwDcz56Na666qPwD52IVPU4nEhU4ph6jNym2M30zNZ/V3vmuT6f8fjXXNn6AM/yBdWRffGHlz4/e4n9Ih4HtjUCrzwPdEaNxj6QbTSqbck2Zds0MFWowLcNychVOd9bvRmvDJmIM2+8WhuZ6zx+HEe3voX4tiZ8+Z/+AfOuVYHv96n9exqPP7kBn7/pn/Hp+Z/C0mX342CLe8/D5crurtCX5eZKanVtKhj6ukBF8Sd3AhX84Ph+o/0il/DISrbFv4GBL9R9B+C9La34tx+/gBcq6nHmp69WBwl1iLe348ir23Fk/R+x8OMfxadv+FvtXapypcvKh9fhoZ+vxOfeH8cP5g9Fx/7/w30PPoqOaPFDuieTNbPNLJc2s7lXT787+Hs+2Osqqifq44sF8qlD01Cle25hMZAlwjUDutBJIjvm9kNatSXSge+ufBGvj5mCc7/4CVSNGoFkLIbIGzuxe+U6LLhiNq658v1a4EsPf+Xqx/H9u36Kj10Ux3vPrsSp40L4yjVDsP2NN3HosHsvwNBC3lK3KjzFBjlfhsF7f6AKoXC9quU/uO/zBVBZ06AqfHt+KXQcPTagC5WCCqhULL+SVEUukpA3VLU3a+Pxy3/xZ7w24h2Y/rnrEQhXqtViaNn8KrZ+917Mf99kfHz26QgihkSsA2t/+RusW/kL3DikAivXt+HFNzpx5EQK//nLVkwcNwajhlU7P6926bZ7O8S+2NsH03Jpj3kLBvNGa3LPnfb2NpxobcV7//YjxuoD32/e/gv+ery4yyurghW4fup7EMjQo0+nOhE9sVP9rsmbN3L80FXQh6rGo7L6FFXnvrUUTjS9adQGptqG04waFUWukDuxR39zlNxvJxfpfyXUY2IR7Dt4HLevfhmvDJ2IMz91NapGj1DZHMeB5xtx4JHH8ekL6zHvg2eqHn4QydBQ/OIPu/Dkw3/AZyr8eGc4hJ8eiuDFoQkEh/lRWTUO3/jMHEwY63CDPTk5ILdrqB4D1EyQ3qCxYOB49n+fRO2QIaiurtHuwWPeeM28FcOgC/29rUfw1K5XkCpiT3zxuDNw1shJxpwzCf54x17EOjLfjkEb0qmepI4MxqrfEffcwmKgO3Gi77dLLqfa2syXDlIOEvKRN4CjqhR4y4V9h9qw9KcvYOvIBkxfcC0qhw9Tm0ioHv4W7PvpGnzh0om45m9OV4Gnn7R98ImtePh/X8W3RgzBjKpKHOnswJ5YHN9vacPkiybjG5+4ACOH5fiUQLmmf/S71A89e16cDLlCf9B1QeX2yHK3TLl5mgzV5PMVDoZw8fjcgS/kSpyKmimoGXGeNtwjN1bT9v6ypUCVWnYKqkecj4qqCQz8k0iGMeWWHEn1R24v1lt1ZFvHXE3qEhbZ1qE+SnYAbaojVWDgy5CO9PAl8Gd8ZYEW+DKGf3jLNmz7/n/jUxfV41pL4D/yu+1Y8egruGvMMFxQXYnOZAIdySRWR6Kof9cELPnHC3MHvpChpaM7jBl3GXQ9fZO8K01unqb+NI0WZxL6IXXIl2lIJx9yXx5tSxy7L6tCevpy8mrvoVb1+9w7ROQ2s6eMGarV3z54XP3e9x5KqAgFMWHUEPUz9eHw8Q4ca+vU9yQWsmz8qFpUhvSfO3v6fRBrBQ78CYjmf/JUTtrKGP7zwTGYtuA6VNTWIHaiFYdeeQ17Vz6GT793Em684iwt8OX34bHfv4nH1v4ZN9eEtR5+QmXEm+0duO9wKzrPrMe/fuoiTBxTwM9Q3htwyvuNmYHDcz19k9weWXrwVcHKrCUcrOhT4Avp0TPwBxaJ54y9eFVMTj14bR31WFlL247Max0j2zqq8Aq3EgmGC7rPjn5Z5vPYFBiD02+4UntYx5Ej2knbw4/9Gl/8wJSuwJef0+pfv45HVQ//Myrszw1Xaj/XXdGYCvw2BM6diG/d+O7CAl+eUG7Z4EKDNvSJyEXk5OiIqSpIT1X17G+ElDde3fbgi9gybCJO+/iHVACro/rWVrS9vQ/7Vv0vPjOrvnsMX+2UH1y/Fff8/GUsGlKNd6tefsAHHI7HcG/LcVTNUIE/f5Z2VJc32UHJ7Rpq32E0uAtDn4gGhoAK09HnAqdeBZx+tSpzgXe8H6gaLYfT2irarRUebsSfq8ZgyrUfhE+ut08kcfyt3XhNLsu85BR8/PIzEAr6kUimsHbDDjy2bgt+Mn4Ezq2qgGzlYCyG25uPoXPaWNwy73wMrzXeMS/PIc8lzynPrb0Gh9JwBTBc7aBkR+VCDH0alOSPW3X0tLfZ9yp6fmiknmkdWU2KX4WBVmzraJ83aoQRlYP6t5VbLIw9D6gcgf2H23DrT1/EpuRQTPnY5QhUViCdSiHy+k4cfGgd/vnvzsan5kzXflbSw//lH97Er375Kr46tAanVoa0tqaOTny/OYIOFfjf/MeLUD/C8qY6ub/P2PP159R+8oPToD2Rq10CluhArg898fn8SAcqVY+hwmjJLq3+bdLt8mk72cdyfYEAfPIxempKpVHQiVxV5C32TkPuktNB1UMU0hvMtI68a1P+9M3x+15kO0b4C57ILZN0Cvu2/wn//v9W4s/h0Tj1mg9pN08T0sNvWfMEPn/JBO0qHdkZy89KhnSkhy+Bf361jOGnsasjinsPnUDVzEn4surhjxlerW2ji9y8TT4q0eWB77nr9EXq4KvofG0V0h36W7NzCtWg4rSPItjwAaPBWXTdL9Gxdg1Sba1GS3aBMWNQs+ALCL1rptFCfWENfT2oHYJY/cHqGayWae+jcF5H3jwncm8nv3UEQ788IseO41+X/hCbVT6deePcrp1sx8HD2Pa9/8Y/XzVdf+OVCnw5sS4nbWUM/8fjR+DUihDaknEc7ezEnYfbkT57HP79M+9BnTmkY1V3OjD6HFWx/FBdyHOhn2xRgf/SXXpPvyA+VEz/+4zB36ECv/2nK8wEyF8giKHf+LYKfn5odl+ZoZ9IpHD4hDqK0+a6yZ9qtTqMr61WR23pBCoiT8Gf6P3Rd+lALTpHzNXqh461I+HQiw+pXv6I2iot1E+0q7+Hzrjj841U6wSD+lEDQ7/0jkaO4/v3rMQzLS047eMfQai2RhvSObbjr9j708dw49+8o8dVOjKks+YXr+BLNWGcWRlAWzyBg6r8JNKB2JljseTT78bE0RlO2solmGNUB02GeVzMc5dsJv76+yICX6QRf/NX6rG9b6ErQzrSwy848EUygehTartUMgn1Ry8fcXeirbNnUeHcGdOvy/chiWDHawi1vtirBNv/oq0j2jrivbejSltUQl7/ecs2Zdv2deQ1yGuhIskbnDpagNa96gexr3dR7Q/+7GH88unnMO6S87TAl7/BY9t34cgvf42bP3wa5lsC/+HfbsfDv2jEx4M+1PuSOKJ693vjcfz4qN7Dzxr4ovOY6gWo343Im5bXtB+ISWejiL/9AWrQhX6qo/gPNU7H27TzAHZpddSTznNIx0my5aBRo5Jx/Bvsvra++38SyvbS/eDumjNZrq/jsGauB1Nmcp+dg5uB/S8AB9S0+eVeJXXgZaz91QZMHz8Me59+AbHjbSqLD+DAI7/C5y+ZiGsu6x7D/+kTr+GHq1/CPwR8OEv18OWkbbtqX3m0AzXnnaIN6WQNfJPkx+HX9Ncmr+PAS+o1Pq8O93YbK7jfoAv9vo7GOb7ZJsM9dvLlYzgQ9ST32JHetIS/450sY9i5uwWHj3Xg+4uuwruCndi+4hfYfvv9uPE9ci+d07ouy/zFhjfw81/+Bd8bHsZZ4SDkbE1U/R3/OBJF4qxx2klbxzH8TORWEHIUIq9DprHj+uvVevzuN+hCnwY/n+za5T97kS9tqvbTUpE/f7n/kb1osaCTtXpswyz64u7l8mUuM4os1F4LFa6t2ag4k37SS68fQHVVBdY81Yh4LIbJHUfwpb89G//4ke7LMv/3//RbK3yhOoRJxu0wDqsdwY8Ot6P9zDH4xicv7H2VTjEk8JMl+DS2AYChT64TVIfwI4dW9y7DqlATNi+99SM+9FJ0Dr+yV4kNu9xYBxheG3bc1rAh4a44l23Ktp3Wk9dCRQhlD+Kjx6PYtGU/PnD+JJwx0o/PzjkDP/inS1TgT+sa0ln5xFb89KHNuEbNn10pO3P1OBX4Dx7t0C7L/Lf5szCpkFsrZKPdWFF/DrcbdFfvRJ/5NlLHixx/8/lRdfly+GwfspyKHMXRz35K7emLOUGsQuodDRh2xw+NOSpW4bdWlv6i09ia0U0vMV69U4DoEWDvc/oQigPpxctJ9nBFUHtPhXZkZZAhWLkO/95HXsZtqhc/WfXwZbEMwv6/w22oeKd+a4W6ISX6bGp58mFTgFHnqHr3UeJA5dkbrtHgJaddJBSkt2cv5jkZLe5lvZT0CnsWYxWNrJ9pO5bVqNTCw4EJ79HDtHYCMGR8j+JXbbWjJyNUM1LlbM978ew+2Ir1f/orTlNRP1yuO1dtx9TP7C4V+Ilp9VgsY/jFBr7c90cu2ZQPWpfXIvfLl/vmuyTw88HQJ9eJJ5LqD/843j54rEfZrcrRE8a4qwrt/Udae60jZe+h7iMGqTutI4/tsXegElNRLeE6ZgZQ/25g3KzeZbwqk94HjJgG7UNLDM1H2lA7dAhqzz8d/3WkHa9GE1ihpqmzx2PJp96N8YXcPM1KnkOea8Kl+nPLa6i/UN8xDaK76OYMfd5bhAYa6eXLG7Ti9pLUb3+s9fJVSSTTvddRRdpN2dZh5A8AErbDJgPV8vnU+n747QMncOo7xuKWT1+GyCljcFtLK4ZeIJdlXpzfZZmZyHPIcw3Aj0AsRK7Mzqun73gZIxFRf5C7WVboYS6XaDbuaMFjv30Fc//pPrREjmHeNe/CVz5xkXZSvk/kOVx650xTPlndK/TNvYT836wnE4V9hNlJleeHMGTkcBgnN0/ri7Rxcy8iKobKoZAEcgjRWAKtHXEsum4G/vd7V+L3/3kNvnTNjO7bIxdLhnYq5ER89l7yQGdmtWS3+Z3Ye/5daSTt3YHfvZK0Rdt7v0t1oJITQMXyVY+GL9j78zHlbply87RiBU9Rh4xUMtovtPoV7brlsVH0dv23VysO6+jraZvRSD3TOpbV6GSrGasNvdRUVeDbn74I111+Bk6dUKf9rPpMOopD1d9oVfF/4wOFZLWZ40L/a5Df8+7f+65LNuUzZeWzQrVLNjtj6Ih2oL2jHa1tbWg4dzrqT5moP2KAS7fuR8dzSx1vp5CVOqwLX/Al+EedZTT0FH9lM45/91bZlRot+fHV1GDYfyxHYLw7/v0GMvOSTRnTl3F3+6Gs/ILLfVjkBmiyRE74ypU4dhIUFcYbeWJxtY7DIbFcCx4K6pcC5ouXbJaZ3CZdPku31O+MlR6+DO0MgpO1zW/vQdNftmKIyp3qqmpUhatQWWleshlQv/vGXTbljyeZSmqhH0/EtdCXwJdr9dva2zB8/FhMnXGusdmBT4I//tZ6pE7sUTPZb6Egf+/+qpEINlyOQIbAN8VfadRunib30sl1awUZ0pEefvU118E/rvijD+rW2to6YM8vSU9qyJA+nEQkKoHtjX/B0X0HUGNcoy/BL6EfCoa00A/4VUfGGvryoRM9e/p66KdUr2fWh7vfxUh0MsRiMa0MtOCXwK+QN8CoQnQybXrqafjV0a0Z+taevnwoUI/QN4d34nHV01d/WNHOqB76bW1oVcH/zkvejRFjRhubJiKigeTIwRb8+ZnnMUQFfo02vFOFcGVYe0duKKT39GV4p8dlJfpgv6/r8z/98pZdKWrF3W82GWsREdFAIxmthbqR29Ysl2LqdS2huYL5QO2QQJX9u97G8aMRYy0iIhooJJslo828tga/NfCF32zUvox6V+BroR/QbtQj5fXG7k8cIiKigUGy2cxpyWztxmpGsWe8bXinu6cvA/7agwNylzt9Yy379uOtbduNtYmI6GSTTJZs1kJfZbVkth78ga48l2w3Wd6cZewFZO+gjQup4O/q5QcQUlO57Ocvm15Ey/7sH4BARETlJ1ksmSzZLBktWW329iXDzTF+M99Fz56+2f1XK5l7iqAW/CHtkh/9srQQnt/wR0QOHzEeRURE/U0yWLJYMlnLZu0NWCEts82Rmq7AV18mLfStewGZmL19OSEgew253CcUCqqNhlBZUYlUPIH/W/8bHFSHFERE1L8keyWDJYslkyWbJaP1SzOlp2+O2Ejo648xc942pq83Suka2gnIsI5srELbuFzzGa7Ug/93v3wC2199zXg0ERGVm2SuZK9ksGSxZLJks2S0NsRjnIOVDLdmusmX2HNIe3OW0N6kZdyHR96da/34xGhnJ6LRDnREo+joiKI92q5NpX3cKRPxzovOx4jRo7TtEBFRaR1pOYQ/v/AS9r+9Rwv7qqowqsPV2rQqHEY4LG/G0ncCXR+P2KPHb4zm2ENfC34V+nKjKgn9RFIFf0zepatCXwV8Z6cKfQl+rXSoHYFqU8tkx9Aw9XSccdY01E/kvWaIiEqhec9evPHaNjRt39HVqw+HVeirkJewl1JZqUJfC/xKbYzf7O2bJ3Otvf0eoS+00Fe9ffncILO3Lzdhi6tDCWvw6z1/mdfrckQgOwdZt2ZoLcafMgljxtVjxKiRGKLmK9QLsh5iEBFRN8nemMrS1uMncOTQYRzc34x9b+9Gm5qXq3O0E7aqBy/hLrdXkODXgt4S+Nq4vpzMNXr5Kup79PKFFvpSMYNfpmaxDvNYg1969bGuHYA+tYa+rKffwE0v+rb0bZrPYefURkQ0mDh1fLt64Gqqf5aDfk7VvILSDHJr6FdqwS+9en04xynwrT1863P0Cn0hdbMkVa/fDG8z0M1xfvOuh7IjiMXjWt1cR4aF5DHaOYKUvgMxt2my1omIvMQMYmEGsz7+rvfOtYtp5EKartCXsXr9Ckrzrq7m+L25TvfOonfgC23eDH1hD2Qp5vi+NfjND1vpCnpVN3cGcTkPYBTzds3acJGxPe3L9jxERF7SK4jlywhoPfBVkfdJqV67FLkqpyvc1dTcAegnbOXNs92B7zSOL8x6j9AX9kCWYg9+6cWbH7git2KWoJdpwtgh6Mulp68epz22Z/Cb2yYi8rKuIDYCWgJfKyq0Jfi10NdOyupvktXeMyU7AW0qQzn60UC+gS96hb6wBrIZ1GbwS3hr4a990pYe/mbIJ2SHoIW9PrRj9vKtQztmsbLPExENVtYAFmZAm0Uf4jF6+1qY6719/e4I1p2ACnvLO2/zCXyRM/SFGdRmeJu9fm0HYIS/BLxZ19u7e/hS9G06hz4RkVd1h7QR+mZvX4LfmHYHfHddW2707rXHOQS+6DXf9OJf0pPGjTdmu9mD2Qxrragvs9evBbzsANQOQd8RyMlf8wSuuZMwQ797u4x9IvI6M47NYNbCW4W5OdWDXw92LeC1YR+zZy9FhbzlfIC5HZN9HgD+PzaCYnFTIpNwAAAAAElFTkSuQmCC;" vertex="1" parent="Fj4VQZkK3p1aDtsN9PMZ-12">
          <mxGeometry x="5" y="9" width="291.47" height="560" as="geometry" />
        </mxCell>
        <mxCell id="Fj4VQZkK3p1aDtsN9PMZ-14" value="&lt;font style=&quot;font-size: 14px;&quot;&gt;SetPlanPage.jsx&lt;/font&gt;" style="text;html=1;align=center;verticalAlign=middle;resizable=0;points=[];autosize=1;strokeColor=none;fillColor=none;" vertex="1" parent="1">
          <mxGeometry x="925" y="570" width="130" height="30" as="geometry" />
        </mxCell>
        <mxCell id="Fj4VQZkK3p1aDtsN9PMZ-15" value="" style="swimlane;startSize=0;" vertex="1" parent="1">
          <mxGeometry x="1241" y="600" width="300.6" height="580" as="geometry" />
        </mxCell>
        <mxCell id="Fj4VQZkK3p1aDtsN9PMZ-20" value="" style="shape=image;verticalLabelPosition=bottom;labelBackgroundColor=default;verticalAlign=top;aspect=fixed;imageAspect=0;image=data:image/png,iVBORw0KGgoAAAANSUhEUgAAAX0AAALdCAYAAADAjbMiAAAAAXNSR0IArs4c6QAAAARnQU1BAACxjwv8YQUAAAAJcEhZcwAAGdYAABnWARjRyu0AAGsWSURBVHhe7d0HnB1V3T7w57btu+m9kARCqkCQFjARgvSm1NegvpCggEhRyoc/xgovagBRFBGkKJAgREBAmkhAkBJAQktCSCAQUjbZTbaX2//nN2V3dnZu3bvl3nm+4TBnzsyde7c9c+bM3LmeyJbaOIiIyBW8xpSIiFyAoU9E5CIMfSIiF2HoExG5CEOfiMhFGPpERC7C0CcichGGPhGRizD0iYhchKFPROQiDH0iIhdh6BMRuQhDn4jIRRj6REQuwtAnInIRhj4RkYsMvA9R8fvgKS2CpzgAj6rDx/0SEeWZaAzxSBTxYBjxthCg6gPFwAl9FfDeylJ4yoqNBiKiwhBvDSLW1DYgwn9AhL6nvATeweXGHBFRYYrVtyDe0m7M9Y9+HzvxqN49A5+I3ECyTjKvP/Vr6Gs9/KoyY46IqPBJ5kn29Zf+C30Zw2cPn4hcSMs+uVClH/Rb6MtJWyIit+qvDOyf0JfLMnmVDhG5mJaB/dDb75fQl+vwiYjcrj+ysH9Cvzhg1IiI3Ks/srB/Qr+fTmAQEQ0k/ZGF/TOmz1srEBH1SxYyfYmIXIShT0TkIgx9IiIXYegTEbkIQ5+IyEUY+jSwtdejuroa9f17N1r1MqrV66hHj1/GltV4ZMVKrGs25vuC9pyPYPUWY55cjaFP/SdSj9X3XIEjZ4zBmAljMHPBebj1P/XGQsNzF2HMmDG46Dlj3tFKXKEeL9tIWX6w0nhMKptw0xc88HzrKW1u5SXqsWMuUs+UhSfOhsczEzdtVPXVN+K0M7+Hp6r1RV1E2rHuhVux5DtnG9+TmThy4XlYclsPdxLac56GG1cb8+RqDH3qBe3YtEKF+QQVmh4ppZhy6k14rdZYrNmEW+cNwf6LbsL2qSfghONOwOTtd+F70nbDOmOddM3E2b++Fbf++mxM3qJ65JPOVnWZd2hbONN4jDCCXXuNlmIEfVasAZ+JD+/CCRNK1Y7ve7j15WqMniffk0MxuvpV3HrJkZhZOQYn/Mn+fUm2s7siux0UFTyGPuXcul/sjyln3oS1kxbih3/4PX540mRsevQKHDr1e3gtYqz0xBJ873Xg+OV1WPv4nbjzjjvx5Lo6LDtJdUyvWoLlGfVsR2POGafi1DMWYLLMTl6g6jLv0HbAaJkzTMZFL2zH9u1mWYZTjSV9ax2WHHee6v0vwO83tKFu3fNYpr4f8j1ZtnIt6prW4roDqvHUdxbj1i5DNEMwQ+0sZYdpLZMjaie3JQdDUVSQGPpk047XfnwaznvUafwhPTOufBjP/1OF6MvLcN2FF+G6x9fi+QtLgPpbcZcxTLPpQxlrmIEFBw7WGzSDMXfeDDVdh+0ZPX076qstY+7GeQC92NpsJwdKho/G6NFmGYz++WiLTdj0qZp883JctJfDKyiZgcuvkt3Ra3i1yxDNHCw2dg6d5XKcIN/SA2ao7y5Rdwx96mLdDYfi0GtXos3fg/jzqzA/ytqjVn3SwdZwV33sAxaogF2HZY9ahiwi9Vj5sszPwYxJelN6VuKiMWMwZszZeERmV5ytnQfQi63tEuugh3145wQsN5Z0uO8EbdkJ9xnzKWzaKK9fhbjstJqddzTd7Y9DD1GT+5bg/z5wWLd9HW5aKl/FXBw6R29KqHk1Xv1Q7SfmHqof4RDZMPTJUI/XrtkfM6/ajsWPbMKyk7qGdE+0b7wLS25WKTj4Iiw+ymg84jo8/M3BWH3VTJTOOQHnfecE7F85BOc9MRgL7r4Ox/uN9dJyPJbF44inU+493niMxfQf4tWOIR5VbllgLFC+dDkefuhhXP4lYz6F+prt6v/t2PS5Krcdqu9ovqXtdpIYjYtWLMOpo1djyRdKUTpmf5zwnfPU9+Q8nHDgGJSWzsSSt0bj1OWP4KLxxkMSqL7n93hK7U4Xf22u0ULUFUOfVFK9hpuOnoxDf7Fa9dLb8eQlMxxODDqXK5JcVbPyB2qdIR6UTj0Pr+73Qzy54feY2xHmg3H8vdvxyVM34qIJ2/Hk09sx5sIb1Trb8fy5GfRRtROn1t56OuVsFYwW/iGWIR5V1PegvtnocRvnAhak9ZI2YeUT+rjUUysewZALX9V3IvemcaZg/EI8/Hkb1q5chuu+vj/GNG/C2xvbMGbO2bju3uextmk7Hv5616OnbpqfwpIfvwZMuhwXHWG0Edl4Iltq40a9z/jGDTNqNCC0V+OpaxbghJvXqU7nXCw+yXqFS3Jzv3snFu9nzNis/tN5uPUFFYSPrsQmlaEzvv88Xv31AhX3FjLWnmz4o70O29XywZPmYLLTwYdcg/7aJmMmXWoHd8Yc1b+W4Z0puOKDEoweP1h9G6pRb5xonrH0SSy+9wRcMedJ7ejgqW/JEM9CPBlfpo4rEnhrCaYceBNmHDcHTz0N/P7zV/WeueyYTl6NGzesxeXrLPW99IflRr16jZO1YajFT23HncdZhue051+OhY/HtRPlNLBEt+4yan2DoU8dqh84DTMWPoLJ16/Fq/9vRg5ParZj3bX7Y+aP12HBHaon/21Lj9UIpFRSBZa2g3nTmEmi605Kva7nnsK6Lm8NKMHkA/fH5OF1uGvuzPRDP7ION8n6tT/E2vdnYknl2XjkgBux9rXLMePpxKG/6YaZmHKV/VLMFGbfiE/ev7xzzD5SjeVnzsDZj9ZjztK1ePtK2ylchv6A1tehz+Ed6jD66w9j0+MLsemamTg042vlkynBjK8v1q4mWfny23qT6aRlzmPvZlGvJyc+XYm7/nQXVn5uzGvU6zpKv7TzUP26TnUEcDzmTBqNwRUZ7PLa1+HW4w/FFW8NxsJbrsCMioW49Y4Fqud/BQ5VYZvsOGTMSb/XzhnYi34OYS4ud1j28K+Pxxjt0eqpN96F0yaM0QJ/8sXPY6U98Ils2NOnbtbddxPWzb0IpzpdPpiOD1/Da8PnYu5wY1688D2ULrgV7eeqnvPdlr7yc1dgzKJlxoyDZrn6JXVPv/qtR/BqsnR980acdsNrCbfj1JNvr61GvX8wRg8uMY4k5uKiOxaj2wU0tY/g7AmnYd3Prb1sdRRxwwIs9i/Dq3stSdjTTySd4aR1N8iJdzkPMwOLH1qJO7+WYMyfPf0BjcM7lOdWY8mE/fF/1TOw8PolOG2S2nHUPoUll9yFdZHBuOjlOvzeeiWMEUiTj1qMBUku00x27kDoIQkMHj866bDU2Xdvx43mFUQWaY3ZJ9He3I6SREcH2teY+9BHZDXu+vkmLLjmVExO9kUz9Ac0hj7lvy2P4LyTzsZd71hO0JbMweLlT3XvjRqBdOq923GrQxh3KNF73In0NLT1x8twyhU41GhzMnnuqZiT4rLJbnor9NPF0B/QOKZP+W/8qbhzdRviTXX6JYs1qt72duLhB+WRb42xvKHKoXR5U1Uiy3GC4yWalpL0vjqv4aYzT9NuTpaoZHXTsgkLsPjbZ2NGhTFP1I/Y06f+leqSTVOKnr7c+jidzaTaTq/TLjGtw4zjFiTdCejnKMxLS3vIuKw1q6MU6nUc3iEichEO7xARUa9h6BMRuQhDn4jIRRj6REQu0j+hH40ZFSIiF+uHLOyX0I9HokaNiMi9+iML+yf0g2GjRkTkXv2Rhf0T+m0ho0ZE5F79kYX9M6avDmnirUFjhojIfbQMdMvwjog1tRk1IiL36a8M7LfQlz1crL7FmCEicg8t+/rpgpb+C30l3tKOWGOrMUdEVPgk8yT7+ku/hr6Iq0Mc9viJyA0k6yTz+lO/3GXTkd8Hb2UpPGXFRgMRUWGQk7baGH4/DelYDZzQN6nw95QWwVMcgEfV4ev3gxEiosxEY9obr+Q6fO2yzAEQ9qaBF/pERNRr2I0mInIRhj4RkYsw9ImIXIShT0TkIgx9IiIXYegTEbkIQ5+IyEUY+kRELsLQJyJyEYY+EZGLMPSJiFyEoU9E5CIMfSIiFxlwd9mMx3nTTyIqLB6Px6j1vwHR05egNwsRUaEZSBnXb6E/kL4JRER9pb+zr0+Hd3rji+ROg4j6Wm8M1/TVEFCfhH6mwcwgJ6JCkWmY93b49/rwTjoBLutYCxFRocg033o7A3u1p5/qxSdb3ttfOBFRb0vWa0/Vo++tHn+vhH42Yc4dABEVgmyCvic7h0z1aejb253WSxXw6gDJqBERDQwe9S8Zp+C2t2WzQ8hGTkM/WWBblzmFvyfgg7esBN6SIlX3w+Pjm4WJKL/FozHEwxHE2kOItbarejRp2CcL+FyFf6+HvlPAm8yw9w+qgLe8xGglIipMsZZ2RBqau4V/sh2BacCFfqrAd6r7KkrhH1al1YmI3CKyqxHR5jatnij8eyv4czKGklXgDypj4BORK0n2SQaKVFlp5dSWqR6HfqoX4fRFeKWHP7hSqxMRuZFkoGShcMrJRFItT6VXzpaaL8r+hWhX3gR8CLCHT0SkZ6HKRC0dbXlpneZSj0Lf6QUlatMCX/EPKtemRETUmYn24Del25aunPb0rS/ErHd5cX4ffOX64QwREUHPRJWNJqfs7JKjPZR16Cd7EfYXbe7BfGW8LJOIyE6yUTJS/gl7hjpJtiyZXhnTtzIDX8gbr4iIqCszG63B31tyFvr2PZN9LySz3iK/MUdERCbJRltkpszUbPVqT9/s5ctrlanH1zluRUREOslGa1bKv96SVejb9zip5omIKHO9kbU57elbX4C2r1Lz0qRPM39xRERuYeZkR2Zaevu5zM9eP5FLREQDR8ahn2qPk8s9EhGR2+U6c3vc03d6Qu3ARLXLIn2qFyIicmbNSolLbWoZ4jH1NEtzNrzT0xdCRESJ5Spj+2xMnzsFIqLE+iojeSKXiMhF+iT02csnIkqtL7Iyp6Hv9IIZ+ERE6evtHO3Vnj4Dn4goc72ZnTkPfe0iI/WCmfdERNmTDNWy1OGyzZ7osxO57PWTsyAaa2pRI6UuaLQRuU9fZWSfhT4VlpoPnsOzT0tZhY2tetvnd56GKXvP1MplK/W21Fbhx4fNx8FSzlmOz41WZ1tw5yn69qfsfRVeNFr7U7DO2GHVNKndF9HA16PQZ+/dvdbceykuvFTKUrxYYzQOGEFsfKX7Tik9tVijPU7KOiT/0rbgvnOMHdZh1+I1ozXXXrzK3NH1oFz1krE1KgQ9yV729KmPvITLnMJo7wvwuLEG1t2ALzutc8o9KY4A7Grw4tJsd0pr8SftcVLuwRqjlahQMPQJWHlV96B1KCfducV4APWlWd/6LW77bRblRydigrENIlOfhD6HgQrD+NEjjFo2DsbPX3kJq7Ipf17o6vAaMfsoHHNcFmX+DFQZ26D80BdZyZ4+ATPPde4pqvLLM6cYKwHFZcVGLRvFqBoxHCOMUlz7b9z700tw+olHGWPiepl/4kJceMMTWNNa2bHuiCE9eV6L1ibjpGuy0lg4J2Q/+4TDU9QNQ5+A0TOce4qq7N/RxZ6CkWWd4diYdTI24cUl87HfKT/Crc+9g89tl2kG67bg7b/fgEVHHYKjf7EKjUZ79tbh+qOMIar9Du6yg3EuV+FZ45EDXrBzJ9bodLI60vm9rapkn590DH1KIoi1731i1D/Bnd/qDMfLnjaaM1Tz0CVY9FCtVh8x/0ose2k1PvlobUdZ98xvoR9cBLHxnkvw45X50u9+DpcdcTS+nEVZtDzLcyWvXNvx8zjbYRs1tZ1nsCeMGW7UyO0Y+pTEOvx3lVHNkTVvmRs8Cj+85VzMHd116KZ4ylH45R8uxV7anDoqeGWdVsveFFz0gMN5goRlKY4xHplaExo6ethBNG7dgs+zKDUZXVKavp2fbzVqwJ5Txhs1cjuGPiX233/gMWN8perM33YJx98cp7dnqqqy0qi9jpWvNBn1rmpefx0bjfqE8T3toRZj0PDOcwmpS5V6RLoqMfuo03DmmT0rx+5dYmwvl5rwscr8CaPl+z0Ds6fprUSeyJbajE4XW88u2+tasdx7x2yLxWLadNDeE421aeAL4sWr5mPR3yWYK/HNB1bhZ1/Ulwh5w9Civ0ttBq557mGct4f+jtwvL9V75if/cS1+s0CrdvXZPTjp2BuwJiozxZhw2FE4+aijMHuIesat7+Dpp/6GZz8wdgYjTsTdTy/F4R3D0fKO3KNxvfYUatlHapnWbmddr/P1pUfeT2C+dyDZcwwAcqntBf/QqrOu+ieeOI+9+XzW8NFmeDweeL1ebaoXFdIylX9GmylRPRX29MnZZ8txkxb4yh4LcaYl8Htkj3Pxt2d+i2/uLf3pID5/5R+49af6m6EuW3pPR+BXzT4Xd//DGvguU73OeFdwkvJW5zh+49qXnNdxKK99UjDXJ1EW2NMnB7V46FvzcfXr+twxv16F2040h2V0nT39E3HbuqU4xpdmT98i2PgJ3n7lYdx06T14WxrGnYif/excHL7fFEyochpkyaanX4lZxx2NWV1ffhJb8NpDq4x3ADs9h9zi4SV83PPLihxUYc8vH4y9ylTV0ovPNR4VDEx91dNn6FM3G1V4H22EN2ZciX8/di62/OJoXP1PvUk01G4xLtvsDMZMQ19nGU6ZcSme+PNpGBmRmXbsXLcOW1rU0cA7q1D11Wtx5oxsQr8nnJ4jV9t2MgPXvPAwzhunqgx912HoU79oVGFzlAob7WI/nwqhJ1UITQGe/cFMXOiYQemFfueRQXbmXvcSlp3Znnbo33feItz5sTFr11rT+f6AquGYUJnoROpR+OULV2KuMafrzdBP9jVRoWPoU59rfE4F/kVG4GO4Cu4nVXDLuEgt1jy3Glu0Hrjuv/deijv/K7X0Qn/j7Sfi6JvMa/5TKx4yHiPLijB+zhzMmnkwjlhwFOZOqUkz9FMopBOg8i5jdTQkisuHo0qGhigvMfSp70Sb8Pbvz8fZt74D8xTfrKv+ocKw8xYMdtYx/XRCH9Xv4NnVlttdlo/HzBkj0KWP7a9MccuFdId3Uiig0Ld+zzlsk9949Q71jern8JNT5uP0jsAfjsOvSx74WRm9X9dbPMyfgQn2a+RT3mNnPM57zHz37gAYBtm6HIvMd9ael+oDYHpHY0Pnex2C0ZBRI0qMoe92ZcVoMMe3i/fDRQ89ibstN1nrFXKtvu22zR3lCwd3u02Bc7mh1z60JG2RIGrMd9bWmMdIfSi6Ds8803nZ5sa/PcEbrFFKDH23q5qP39x3JQ5fcCX+9spyXL5f2tc29o5gU7fbFDiXmo6hqA6WG5AlLZa7xQUbHJY7lezvMNdrNt65BLd+ZsyIz27H1Xemf96E3Ilj+pSVjMf0rVo/wWv//jiLO2jW4Oml1+Fx7ZYyDmP6vXiZI776R3yydL4xY5AjlqNu0HvXxqWtfXLffzkH85tzcPrt+vcas+fj8B0vGZ8QNhyH//TPuG3hlAxuJ0EDAcf0qXCVTcFc6/h+2mU+ZvfTO3Rn7d3LQ15pCaLmg4f1czBm4I84Cr/5wx9xtzpam+WThlq8+NMTsd+J1+FZvvOWHLCnT1npUU8/aymu3pHhnV4ahnG8HNLa06+agWOOnYlB2oIM7bMQvzxzhjHTVbCxFjs3r8WLzz+Mh+57Dmush0dTFuLuB5bg8CHGfPU/cNmZV+HxamNeKR6yHw5feCLOOnI+Zk0cgRGO73SmgYCXbNKANiBDv69ZQ78nnIaODG9fq3r19+mfP9CheDyOuXQpfnXufqjSevcWMvRzz5W48KaXUKPd1K7ThPMfxr8vd965UP9j6FPecV3o17yEW3/7XM8v1UzS00f1cpw+/zq87avEXoccjTPPPRffPGwKiu1hbxesxZqVT+BP99yDF9+vRSOOwm9W/RYn8wO0BiyGPuUf67tDq4ajN0YSgnUqwLR3Bstn7la64mRlsDGovp89+0pzsQ3qXQx9IiIX4dU7RESUcwx9IiIXYegTEbkIQ5+IyEUY+kRELsLQJyJyEYY+EZGLMPSJiFyEoU9E5CIMfSIiF2HoExG5CEOfiMhFGPpERC7C0CcichGGPhGRizD0iYhchKFPROQiDH0iIhdh6BMRuQhDn4jIRRj6REQuwtAnInIRhj4RkYsw9ImIXIShT0TkIp7Iltq4UU9LPN65ur2uFfmn1TvbYrGYNh2090Rj7dx4fdUbRo2IKLcOOfggo9Y3Gj7aDI/HA6/Xq031okJapvLPaDMlqqeS16FPRFQo+ir0ObxDROQiDH0iIhdh6BMRuQhDn4jIRRj6REQuwtAnInIRhj4RkYsw9ImIXIShT0TkIgx9IiIXYegTEbkIQ5+IyEUY+kRELsLQJyJyEYY+EZGLFM799MNBIBKCejI1k9GXRESu5lHdX9X/9RcBgWKjre/xfvrpkpBvawJCbaoeVQ0MfCLKhMoMyQ7JEMkSreNYuPI/9IMtRtgTEfWQZIlkSgHL79CXIR0GPhHlkmSKZEuByu/QlzF8IqJcK+Bsye/QL/CxNyLqJwWcLfl99U5LvVEhoj71xsvAhx8ANTuAaMRoHCB8fmDEKGD6bOCgeUZjFsoHG5W+0VdX7zD0iSh99buBxx8EqrcaDQPc6HHAyWcBg4caDRko0NDP/6t3iKjv5FPgC3mt8pqpA0OfiNIjQzr5FPgmec3y2knD0Cei9MgYfr7K59eeYwx9IkqPnLTNV/n82nOMoU9E6RloV+lkIp9fe44x9ImIXIShT0TkIgx9IiIXYegTUe+bvB+wryrW90gt/BnwQ1UONuYT+fJ5wEVL1PRMtf7NwPlqSllz5TtyQ7s34s33tiOIYozbZw6mDQ0YS0xhbFv9Oj5sACqnHoIDx3VdnvTx0TCaGprR9XZNAVQOrUCRMecs+XNq2jbjzVWfoUmed85BmDbIaE9KvZ7dzUDFEFTaX0DH9tRzTlHPOdHhObORxnabNr6BN7eo7+D4OThsrwqj1ZD08frX0+37O0h9f33GbAJJn1OE6rB+9QfY2pbkZ+Ag1FCHYJH6/pYaDZrsX+eAtVQFb7bOuUEFv5o+cyXwmt7UrU3CffZobVGnamCrapujymq10py5QK2a/m6ZsTwDV11nVNLE2zDoJLxN9rpWBnjob3riGlxw8wZMOfwQDGtYjZVvBbHg+ntw3WFmCFTjoe+di6XVs3HsPsB7L3+A4d+5HXefob/2lI/fugJnL7wb28YMQ6XeoszDj/56Pg405rpL/pxi1/M/w8Kfv47iA+ZhH2zEK++FcMrSe3DZnETBtBGP/fx23L9qNTapzD/2+n+p12gsUrSv45a1GH7IPEzHBqx8ZSOGf+OPWLFoL2ON7DSt/h0WXf4UcNhX1OvUtzv223dj2dfNryWMV369EJc+XYkFx+yBrS+8jtojfoa/XXGQ9v1K/fg3sOTL1+CVEaNR6TeaMBHfuPl6nDnGmO0m+XOKpjV344KLl2Pb1HlYMHIXVr6+AdMvWY7bThpirGFXh1f+cgvuevh1vNcQxrQL7lev0RpY2bzOAa7Hoa/2iq99T4W8tU1NzdA/8Wp1NDAK8KrfafmeRcJAbAewRs0w9DvaTInqqbgr9KPNWHmb+mX55vlYYPSSdz12CY65YyrufvJiFTKq1/biz3DoHROw7L5FmCY9sg/vxsnf/RyXPfkTLChK/Xg99Dfgu/++BpaMTSrpc0rvseZpXHjW3Rh2befOJbRb9S6Hqt6lNudE9VpfVL1WrMX9P1mBsbbQb1r9Mt6bMg+HGV9Hk9qpHPHzZvzo0RtwSha3KdGFsemBP+KVQy7ANyYbOyMV4kdcthmXmdvdqL6273yO7z7+ExwrX0rzSlx18t2YdMf9+O5eaTxeC9O7MX35H/GNcdoaqSV9TjUfXYulp1+Cd8+07FxU771Jjo4S9srVa33rdbVD3Y2Vf/wdNp3iFPoZvs6BLuvQV0F95dnqaFNVNz8B3PWs3mzuCCTcmz8Cbr5Nb/+qeh4t5NUO4u/WeYa+FFOieiruGtP3VWDB9zoDWwxTPedpzRvwYY3MhbHy+Zcx9oj5eviK6fNx7MiX8cyr6hcz5eOVTzdgfUVlkjC2S/GcyvonluHNwy7EjzuORoCipIEvhmDa4arXevgcjDVarCrndAa+qJw6VXW6mtDUo8+OCGDy1y/uDGwx52C18/sA6z/RZ9e/sBLbDlOvy/xSKlT9sGo888JGNZP68dj6GTapr7zrUEpyyZ9T7UBfXoGHihfixx1HE8qgZIEv1GtVP/sFhx+M6eVGk1UWr7MwDVPhfqoe+HKp/MSvAF8ery3p0LhLlUZjRqkyfzEPABarwN9TbYNyxvUnckMb1qqQnorpI2RuF2q3AftMsw5x7IXpM4FN27cb8111fbxhRLnqSa/EM/98GStXb0Yo6Yd7pXrOOnz4XjWmzZyJIjlfoHr4uxr0nUHOhKrx2F2PYtOcU3Cc09CDOkJa/6L6elZtRJP5taT7gWUbP8B7mI1pU/TZ2p3VmKy+1s7TCwFMmzYR2xJ8f+2P11UguPMN9f1diZXqNe1K8XkXqZ7zw3dXA19Qz6F2wNr3t9tYfLYye50F5wtfA76vQlt6862qJ/+Q6qFHVH3B1ZaTsW3qoEj1wO+y9NzLjT3liNlqB6ACv8zSCaAec3foRzfj/vtUL/urx+lDM9iMD6XzZ+vhFav5TZ9VG3MW3R6v8lOVoq3/wWOrm9C45WWs+L9FOPzSFdiUMCRTPWcQTU3q7ya6GpeesxBnf/diLFx4HA79XrJtpmn7Y7j09K/igKO+gT/4LsSzNx0n/TKbatz/3W9gyfOr8Z8H/h9OvvRuvLm9Dpue+hnO+O3qFOHYjJXLH8e2+cdhgTY0U41Nqsde5Ot6RrlY5tXXqvZ9NvbHK6EwQkUf4IV/fKY6iBvwzG0X45iFN+GVZmN5N6mfs6m5GdOGbcdvzl+I09X399xzzsChpyfbZhoyfp0F6H0V9PJZJDvfAv50izrkUsH+0PNqL6x69Z+pqZOhamcw0qiPVL+NN39fbcfhb4+y5urQ3/TQ9fjD7lNwneXkpYSto2JjauH0+KLDrsGrz9yNpYtOwZmLrsFtf74GX1p7O257WXrnG/HYjTfhWrM8oQ8vpPOcz7xch8vuWoHH/3o/nn38j/jG7tux9Kk6tcR5m2kZeTyuu+MerPjNxTiu+jac5LhzGo3jrr4Fy669HNf9ZjmWnd6C275/Ma56Yz8svXBO0iuSml65Bb96cSp+dMmCzqGojpOaNg7tjo+fvBArnlmB2644A2d+/Xwsvet3WFT0NH71kHzdcnLV8r34yxvqOEpJ4znXP7sG+yxdgWfV9/fxx1fguhlPY8lda9WSBNtMJenrdIs1wG9VaN/6Z2C30bT+UeB316hfaPVd3PAm8K4qO41l0uU4+UCVSupvZd0m9cc0GTjnSGMZ5YprQ7/ppetxwZ+Ay357MfbpCN2JmKx+z3apQ/xOdaitAaaN63oS2vnxBut8xUzso7a5dbtExTBMP+AgHGaWqdKvTuM5VTgdeOJxmGwmrG8vHHnEaLz53gY147TNNPnkUtIhmDznFFym/hC/usnckXQ1bPJEI9wDGHv4xbhbBeOKa0/pfD0OQpuW44IfrcaB1/4Ep3QMfY2G2hS27TQTQCfDL5i4R5dzD86PN1i/v+p7se8stc3tss0KjJ1l+V7MGq12Fmk8p9q5Vh7+Vcu5mgosOHwemt5bo44EnLaZpoSv02Uu/j3wM4dy9HxgXxXyZs/+zEv0oaBadWTw12fUVIX/5K8BEzi8k0uuDP2mV67H6T/diCNvuhHf6JLlo7HPPhX4cMOnxrwS/RTrN1RgX8v1w4kf76QZjS1qovUqzZOrRpkulwOmek61fGaFEfCdgq3NxpGA0zbTYO/R+4ZhuArXxuYencnVbV6Bcxc/iuHfv8lyKaxu+j5z0LRhg6W3XKe+9mYcuM9UY15J8vjuwmhqVxPte2GeXDXKAfrOKtVzTp+mlmsB36lJvr/az8x5m5mzvk6X+afq6T/iULa0GSsY3lW9+/qPgGUyvq+OEmT67kvA5zk+h+Vyrgv9plduwunSg/zx9Vi8R1jrYWulWf/F2ueYk1H5j9tx/2ZtFpseuh0PFR2JY2fq80kf3/wylpxzPR7bbPySRsNYf/+NuHvnHJx5eOdOwy7Vc+5z+tmY9s+7cfcmY7sNL+OhfwLHzp2jz2eq7Q1cu/ga3P++OcCsvo4X78eDm4aoIEz8OtOiAnvR4tuBRb/Ajw+r7Pz+GCefhx1xHBasvR83G4PbTa/chrvWzsGxhxg7q2SPj27G3d+7BH9YXWecS5DXfQNufmkIzjzmIK3FSarnHPaVM3Bs9TL84UXj+xHajMf+vlrbmTpd+ZRSlq+zYK1XPfd3HYrx69xhvdoR3HxL51DQbrXOIw8ZM5QrLntzlgq7BdfgMacToEdfj7d+qP9Bam9cunE1Qupwv6ltKi676xajR5/q8XOw7cU/4sobHsN6M08r5mDR0p/gu7OS91gTP6euadXtWLRkBWoHqaDa3YzJ37gJv100M/FQgzoaOeCalcZMJ/NNWrte+h0u+ZXldRaNxrFX/w7XHZnmkYKjatx//jfwmw+NWau9zsfjd52hhaj+BqzHUFtRgabmAE659h78SOvRp3585fsrcO0v7sbKrUZipPm6Ez+nLrTpMVx55e/wZmg0ituqUTTvGiz/4QIMsw/dmbT3Y9yO9casyXyTVlOWr3NA68mbs5w4vUvXiflO3Q/UkcACXqdvSlRPhR+MnkioWfXekcbtE5zJW/ObUIFhgzIYj0z1nMYtHhxvqZAl7XVG07lNRI5pX0sQxVneliDUrF53KMPXnfI51XK5ZUWp+v7m6Pr6rF7nQJXr0Jf78VSp6efvdPbukxoP7KvCv71aHRVsMdoywNDXMPSJKD25Dv2+xtDXuPs6fSIil2HoExG5CEOfiNLjS/QutzyQz689xxj6RJSeEaOMSh7K59eeYwx9IkrP9NlGJQ/l82vPMYY+EaXnoHnA6Dz8cAB5zfLaScPQJ6L0nXxWfgW/vFZ5zdSB1+kTUebeeBn48AOgZgcQlU9HGUDkpK2M4cuQTk96+Hxzlk7C22Sva6VPQ79B/S+jl09ElAYVouWWj5brA3xzVjrUN4eIKOcKOFvy+yvz5/3dTIhoICrgbMnv0A8Uq68gi7t1ERElIpki2VKg8v8YpricwU9EuSFZIplSwPI/9GXsrbQSKCo1wj/9ExpERFpmSHZIhkiWFPi5wvy+eoeIqEDw6h0iIso5hj4RkYsw9ImIXIShT0TkIgx9IiIXKeird+Q5iYicZHLFS1/g1TtZMnc0DHwiSsatWVEQPX3ZdjrSXY+ICk+6veFMes25xFsrp0G2mUiyZU4yXZ+IBp5Mwk8kWz/TbfUUQz8Nsk0r+7xwanOS7npENHClG35O66Xb1lsY+mmQbVqnwloX9nnh1EZEhckpEO1tyQI0k0DtCYZ+Gsztm3WT1D31u4H1a+Hdor6Ru2uBlha1IGasQUSu4/EC5eWIDx2O2HiVRdNmIj54qGN42kM0k1DNFkM/DbJdIds2pxL2nldfgnf9Gq2NiCiR2LRZiB86v0v45yJYs9FXoZ/3l2yaOxYt8N9fDd+fb2fgE1FaJCskMyQ7rFliSlTPZ3kd+tYfkmfVf+D711OqkUM4RJQBlRmSHZIh1kyRYufUlm8KIvS1Hv6r/zZaiYgyJxli7fGbCiHorfI+9FG3C/6VzxotRETZ07JEZYoZ/GbgW4PfWs9HeR/6vtf/oyoc0iGiHJChHpUpZuCbRVtkTIW1nm/y+0Su2iPzpC0R5ZKWKUZv35TPIW+X16Hv3fChUSMiyh0zWyTsCy388zv0t2w2akREuSPZUoiBL/I69LV32hIR5Zhkixny9vDPd/kd+q2tRo2IKHckW8ywtwd+vu8A8vtELq/aIaLeYGSLGfD5HvRW+R36RES9xKmHXwjhz9AnIkqikHr5gqFPROTA2rMvpOBn6BMRZSifdwJ5fT993PAzo9IzDetb0PZGO0rGBTB4QZXRmqGZ8xEeP8iYsQnvgO8FIHr+AsSK2+F9+TcIrDaWaUYhNrUEng2fwbwrduSsKxAd0gLva58h/uV9EA9+Bv/tD8BnLE9X9NTLEBmvtr32lyj6l9GYhsg3r1bP7/Raidyh5btXdNzbXqbW+9wLmc8l3k+/D9Ws34W2SAsiW1vR+koLkM1FQWOnITZ9lnPZe0+1K3QW/+LXEfreuQgfp6bf/TYik40FRX5VilP+hKInXYjgBVd0L+ecgaixTjfTj0f47G8j1K18C5HpxjpELicd1ULE0FciY4uwO9SEcCyE8NZGhN5uN5Zk4P2VCPzzCVVWwtusN3k+fkpvW/lqgm/0oYgcuAfisrBdPad/GKLzTspqn9PBKzsLVdR/Cff9xeWIVw7qWoYMQ3zYUMRLjXWIqCCD3/Wh/+F727FhRw2aRvpRE2xGLBREdHsDwm9m+MavHR/D++EaeIPjEK/Qm+Ij9lRPoNoswzZdHLIXYkVqWv0qiu94FN56VR88HtEMRsF8T9yG4j/e2Fne3qYvaGtJ/MN9dwWKrI/5o9pRhWRBENilrUFENoWyA3Bd6Ddsj2LDSyFsfz6CDat2Yv3ntSiLBVDi8yMyrBQ7gq2INzUhtr0OkdcyTMDB+yM8zxjKkRCtmobwqYcmHNqJDSnXpp7dL6n/f6aOEOQIQ/W6956FePpDdF1Exw7Vpp7Gz7RpWiaqo40SNQ21wMPbGREVNNeF/pYXd6NsWwz+2giG1VRhTLQS5Sr0teItRmtVGaqDQXiaG4G6BuNRqQxC9IhvIbTwaMQG+9Xj3kPg2ffgiahF4+cjdMHFCM9V7Tbx0mKj1lV85klqO8ZMJgbPR2ykpLcK7w1dbzkdn3k1gpdchvAco8EiNmu0vmPa/amMChFREvne43dd6FdW+dDWWo94LISSyiLsO2oyRqECxXEfgvEY6kt9KPnSeET3GQH/0ZOMR6XSAE9JOeKSmLvWwP/EU/BuegpFD78Eb53qvUdq4X1N9gA2CQbvPdVr4M34tkJqx7Ngf324qO5j+Ox3nW7eBc+u3fC0GfOmyccjMlmuOmqB9wM54iCiRAphiMd1oT/xhKEoGxNAc1szgo0t8JcHMGnaJBT7/dhdFMPMLw7F2KmDUDp7OOBP/9vjffoRBB65DUWvfgLP6Gl6T33Hqwjc9xsU3ymXWq6H741X9WIMu/uaWvRK6SxtElevAWiHZ/0T8AS1pjQNQuzoM7VLM2UH5P2P2unoCzp4Nv8JRcvuhd+6Mxh1KMJH7aPvrLasgn+t3kxEhct1oS/GHjcMu8YUo76mHi2f7dRO3o4bOxz7TanC6DH6OHvmdsC7pQHRL52E8NHHIWpeetmhAbHZhyJ6kCpjjaYN1doJ3vjYgxCZ+zXERqr0De2G9119cVoGz0Lk9G8hPH2YmlE7jHf/icAmfVEy8YPOQOi0+YjJfqJuDQIr30h8tQ8RFQxXhv6K9iK8c/RstIwvw+6d9WjeuBmx5kZUJrywPVMliM2TMfSuJTrEWGza/BJ8W9qB4lGIHjgNcW8Eno2vpP8GrLFHI7TwJLUTUTuqWAu8/30CRf/+2FiYyDREzr4CoUP21Hv4O95G4Ikn9CuHiKjguS70n/aUo23oOMwL12L20cNQvmcF6utDCDer1PPn6lbNKrw/W6Nfwmkt3cbpG+B75AH413wGz65t8L7xNAL/ShXaFttWwVfdop9HWPE7BF5J57Hr4ft4JxDcBe9qtZN48J8MfCIXcVXo/6d4EBoGT8D8hq2YXhLW2kbMH46KaZVo8xbBOyXBbRR61Q74nn9AG28PvL4mwyEW2Wn8DsXLnoBvh9GUBs/r96L49j8h8HKmz0dE+c41of9mcSW2Vo3HEbs/xaSA9k6kDsMOG4Hhx42DpzjTO9sk4kd8D4fbMZQZi9Pg2Z3gahsioh5wzQ3XlsdGY56nHhM8WdxiIQPxybMQd7783hABqtdnMKQySu0whgPR5i43ZEtXfPw0xCv82slabwZHA/rXkelrJSoczRde3nGjNfMmaOZN1qz1XOmrG67xLptERA4Shb4ZsFLPJd5lk4iIci6/Q9/DfRYR9QKHbMmkNz2Q5XVqxssyODNKRJQmM1sKJeit8jr0Y0PkXahERLkl2VKIgS/yOvQjY8cbNSKi3LFmS6GFf36H/p57GzUiotxJlS35vCPI7zH9wUMR3osf6kpEuSOZItkiwW6GeyH19vM69EXwgEPUTyTvvwwiGghUlmiZYsHhnQFEfhiyR26bt8BoISLKnmSJvZdvcmrLR3kf+lLCM76A9gMPNVqJiDInGSJZYg13+7QQFEToSwnOOQit845UjRzqIaIMqMyQ7JAMsWaKtVjZ5/NN3iek+UOR+1XIXrrxjG8gtOc0YykRUWKSFZIZkh3We94I69SsF4K8vuFae3t7l+2bUynehjoEPtkA/7Yt8NXvhretTb2gXH1IChHlHdWjj5WWIjp4qHYdfnjKVMQGDekIdTP07VNr0TZjm+YK77KZhmAw2O05rHVhtpl1O6c2IspvTiFotsnUWreGrD3ozXlzXbMurPVcYOinIRQKdTyH9XmsRVjrwlonosJmD0dz3qybxR749mI+xmSt5wJDPw3hcLjjOZIVYU6FtU5Ehc0pHGWaSTEfY7LWc4Whn4ZIJNLxHNYinOZN1joRFTancJSpWezz9mIuN1nrucTQT0M0Gu14DinCOm9vN1nrRFTYnMJRpvZib7fOW9nnc4WhnwbrGL4wn8usm+3CWhf2eSIqPPYwtAelOW8GrbC2i0T1XGPop8EMeGvQm1OzLhK1E5E7WAPTHpb2dgldk33d3sTQT4O5XWFOhfm89jYicjd7UJrFZNYTtfemvgr9gnhHrjmVYoa71O17bLMQkXs4/e2bwSokM6zLre3C+rhCUBDDO7Jtp6kw10nE6TFElJ/swZ2I0xCO02OlnmpbucLhnTQkG95B6zZ4d74Gz+734Wn5HJ5wo1qQfAdARAXM40U8UIV4+QTEh34BsZFzgbKxjuEpU3uQZhKs2WDop8HsxZtTeQ5P23Z4P34Q3h0va21ERInERs1DbM+zEC8d0xGc5lGAPUgzCdZscEw/TRL0Ju+2f8H/2iUMfCJKi2SFlhkqO0xmpsjUmi/Wej7L69A3fyhSPJv+Bt+621Qjh3CIKAMqMyQ7JEOsmSLFzqkt3xRE6Hu2Pgffx8uNViKizEmGSJbYA98e9Pb5fJP3oS8nbP3r7zBaiIiyp2WJyhQz+M2Az/egt8r70Pd98pCqcEiHiHJAhnpUplhD3wx8cyqs9XyT3ydy5bJMnrQlohzSMsXo7ZvyOeTt8jr05Tp8IqJcM7NFwr7Qwj+/Q7/uA6NGRJQ7ki32wC8UeR368k5bIqJck2wxA98M/0LZAeR36MutFYiIckyyJVHY53v45/eJXF61Q0S9wcgWM+DzPeit8jv0iYh6iVMPvxDCn6FPRJREIfXyBUOfiMiBtWdfSMHP0CciylA+7wTy+n76eOZko9IzDa+Xoe2RkSiZ1orBi3carbkXOXgFomUt8G48BwHzatMhJyEyZrL6riWjHrP9LvjqjFlD9Au3IjJkMDzVZ6PoI6MRJyH8pW8hFtgC3wvfh99oTS3bxxEVppZ5D3Tc216m1vvcC/O++7nC++n3oZrXY2iLtCCyPoDWv0xQ6ZzNt+VChI5YgaBjuRkRY61uKvZHVD7IIVWpMNa38pcDviJVjPlkJl2B0EE3O5QrEDVWIaJO0lEtRAx9JTIJ2B1qRDgWQnhjFKGHJhtLshGCp2WLrWxV++kEah9GYO0tCcoT8IaN9Yzfv+icP3fsTCKDVegr8dGdO5jQDK2pu6KRiJfYSvl4VcalOMogci9r8BfKTsD1of/h00XY8GEUTSMDqAk2IRYKIvppEOFl2QZ/KzzNm7qW2rcTd8bbPtBu8ORczPGcOni26DXPLqf1LMU2BNTho6tQ/NLZlvIffUcUbdUWE5E7uC70G9YOxoY/TcP2P07FhhWVWP8uUBYrQonPj8iwMuwItiLepML/0zZE7h9uPCoTg7sPzYyYZizLlOrJ235C3s13qSOAv8IXKkd88P6IDT8YsUGjgMYntKMDf7WxYiqTVS9fpuE67vmJXMR1f+9b7q9C2ad++LcUYdjGCRgTrUR5LKAXbzFaq8pQHQyqHnojUJtNL1hOhJ6BYmtZdZuxrKv4YBXY9h2EtYyfjLgcIkhvXOYHj9QeF5vx/xCesD/iRQFtHiV7Izb1JwhP1JfrxiM6fxmC85c6nE8YicjQSVrN0/gMQ58oTTLEk+/DPK77e68c04621nrEYyGUVBZj31GTMQoVKFbpGozHUF/mRcnpHkSPDsH/3TbjUZlQYWuMr3cW5xO5sckXIjzzksRlqgp2WdG3N6IyP/lgNXMSosPGq+lOeD/Qh2qKPpVLd8oRG/s/SOfGFPGJFyJaVaQqm+D9hHcqJXIT14X+xIt3omyvdjS3NSPY2AJ/eQCTpk1Csd+P3cVRzPxqI8Ye2obSI1RMF2WyR9/ZeeLWPPkaNtucT+SmHJ+3Fd+uTepR4xGXDr7atrdW2ww81Tv07fuHWE7KqiMObez+qi6XX8ZHyc5jtlb37Pwr/Nns14gob7nyyH7sRbuwa2wA9TX1aPlsp3bydtzY4dhv/whGTw8aa2XqYQTe+D6KVPG1tGgtnl0XafNFb9wIb6l16EWnj89/oAd2fCd83a7e6Vr8m6VXrtaXlxiQ3v88FfKTEZ36BT3s2zcluXpzJGJ7L0VohnqM/NTr/6q2+ba+iIhcw5Whv+KDffHOUfugZYoXu3fWo3njZsSaG1HZ6HQxfDrmIbJ/57Xv0XLjUsqRyxD8snEp5T6naW3dTdPH74dNs/TSk3kZ/i0q+ONFWq89dMRSRIYNBmKqZ//pvcY6dqch/KVbER43We2JQmpn9FcUrX448WWkRFSwXBf6T3+6L9pK98K80W9i9sXVKP9iEPX1IYSb64GSbHv569V30nL9uzcERKXUw9O2BZ76VfDWqHVyxLP5Zyh6+y74dqrwb/kI3m36UYbfGO7p7mH46nYCoU3wbliCovcY+ERu5arbMPynZl9sCc3CIaXPYdLQGqMV2PVgGeLVRRi2uBmeioTvne0xx9swaO/kXYB4dAu8tTJm78zTvNIY3kmFt2EgyoXmLy3vuP1C11sj6IW3YRjg3qybjq3RfXDEoGe7BL4YdlYrhl+qeuW9GPgp+cZ3vVzTVqLDevIuYSIinWt6+ss/PBLzxr6PCVW9d0O1VOLD5yHuCwGNq+DttatmRiI2cpr6ybbAs+PtDIZxsn0cUWEq1J4+77JJROTAKfTNoLfWc4XDO0REA1AmATsQMfSJiFwkv0Pfw30WEfWCAs6WvP7K4oEqo0ZElDtO2ZLvwzqmvA79WJnceIyIKLckWyTkCyXorfI69CODZho1IqLcsWZLoQV/fof+cLnVMBFRbqXKlnzeEeT3mH7pGISHH2rMERH1nGSKZIt1eKeQevt5HfoiOPHUgj7TTkR9SGWJlikWHN4ZQOSHIXvktinnGi1ERNmTLLH38k1Obfko70NfSnjUEWifeIbRSkSUOckQyRJruNunhaAgQl9KcNzJaJ2ySDVyqIeIMqAyQ7JDMsSaKdZiZZ/PN3mfkOYPRW5SJHvpxn1/idCwucZSIqLEJCskMyQ7rDc6E9aptT3f5fVdNtvb27ts35xK8bZXI7DrDfgb1sLXthXeSJN6QTHjkUTkOqpHH/NXIlo6TrsOPzzsIMRKRncEuhn69qm1aJuxTXOFt1ZOQzAY7PYc1row28x6IsmWEVF+SBZ+5jKZWuvWkLUHvTlvrmvWhbWeCwz9NIRCoY7nsD6PtQj7VFjrRFSYnILROrUWe+Dbi/kYk7WeCwz9NITD4Y7nSFaEOTXZ54mo8NjD0JyXaSbFfIzJWs8Vhn4aIpFIx3NYi3Cat7LPE1HhsYehOS9Ts9jn7cVcbrLWc4mhn4ZoNNrxHFKEdd7ebmWfJ6LCYw9Dc16m9mJvN+etU2Gt5xJDPw3WMXxhPpdZd5paObURUWFwCkKzzT41g1bI1KyLRPVcY+inwQx4p6A368Labp0SUeEzA9E+FVK3t0vomuzr9iaGfhrM7QpzKszntbclk2o5EQ18qcLPHpRmMZn1RO29qa9CvyDekWudmuEt8/Y9trUQUeFL9HdvBquwZoZ1am8vFAUxvCPbNqdm3WSuY2Vfh4gKl1NoWzuEQtaxh76wtvc2Du+kwdy2WTdp9dA2eJpeg7dtDTyhz+GJNaoF3XcAROQSHi/i3irEiyYgVjoL8cq5QNFYx/B02in0NoZ+GszAtwa/J7wd3l0Pwdv0H62NiCiRWOWXEBt2JuIB/R76whr42QZrNjimnyYJepOn/jn4P7uMgU9EaZGskMyQ7DBZMyVRPZ/ldejLD8Esnl0Pw19zh2rkEA4RZUBlhmSHZIg1U6TYObXlm4IIfdlL+3Y9YLQSEWVOMkSyxB74hRD0Vnkf+nLC1l97p9FCRJQ9LUtUppjBbwa+Nfit9XyU96Hv271CVTikQ0Q5oLJEMsUMfLNoi4ypsNbzTX6fyFV7ZJ60JaJc0jLF6O2b8jnk7fI69L3Nrxs1IqLcMbNFwr7Qwj+/Q79tjVEjIsodyZZCDHyR16Ev77QlIso1yRYz5O3hn+/yO/Tl1gpERDkm2WKGvT3w830HkN8ncnnVDhH1BiNbzIDP96C3yu/QJyLqJU49/EIIf4Y+EVEShdTLFwx9IiIH1p59IQU/Q5+IKEP5vBNg6CsN/ypF9f9MRP0vRxgtA8jIXyO454MIjj3RaBDHILzHfQhO+TUiRkvPnYjwJPU8e+Zym0T5r9CGd/L6Q1Sw9qtGpWc2/r9i+DZUoNJfhLI5XpT9YDsQyPzKoOjYuxEpLTfmEoh+AP+n18In9cE/QnDYbK25C+s6EvqV44C2+1C87R/aYj2gv4mYbyt8H/8AfqM1qaE/QKh8vDFjtQW+z3+tniuLbRIVsOaJ98Pn82kfUCIfbGL9cBNh/bCVXOCHqPShyF7A7lAjwrEQwmujCN2yh7EkS5Gt8IQSlHCN+vEZIjXwdllebyzoBb6RiPtHdC1F41QZr3bTROREOquFxvU9/Q+XBbDhlRgqQ8UYWhPBhLJylAwqhX+vAAJXfGaslR6zp+9pOgtFO43GjFyA0J5HIJ52T9+YTSD56zCeK7YBvk1LVM+ePX0iK+npmz18s/dtToXUc4k9/V7S8OZgbPjpVGz/6Z7Y8IdyrH8ljrJYEUp8fkSGlWFHqBXxpibENrQhctMw41G9pPREREZdjHBHsQy/lB6MWMWXEPMEjAarenXEYD1CSFCSDc4PMXr4sd083CNyEdf9vW+5pQJlH/vh/6QIw96fgDHRSpTHAnrxFqO1sgzVoSA8zY3AjhbjUb2keA6iEuwdZWrHUEt8yPn6jqBipNFikLH5CacilsZPLl7+a4RGn2rMWY1EpFwfwvK0/5OhT5QBGbXIZ677e6+c2I621nrEYyGUVBZj31GTMQoVKI77EIzHUF/uRcliL6JnhuH/edB4VGbilXIVTIIy6UeIGut1kOGcj89CsVlkaKfudgR2/A6BZtv4jF/10LWx+DRLwLbTUOKDz0e0uEhVNsG7+wOjlYhSyffAF64L/Yn/V4uy2e1obmtGsLEF/vIAJk2bhGK/H7tLopi5qAljj21H6Skqmksy+wF7wtuch1msxXoiNwlP2yp4m/8DbzxstBh2/kDtGC7Wdwg7foki2Uk0bdWXybi/mi+qlmW/RmCzWvb5H/VlhnilOnoYql8x5Gl5EH7b5omosLn2RO6bl47H8C3tGDaqEuUThiIeDqN56mcY/PUGY40+YF6yGdsKb+smo7EcKBqpvl9b4Nvya/jSuWTTuBzT0/4IAjX/QWTCg4gWtcC7axECHRcEjURsxA8Qrpysfupqtu1BFG17xLID4olcIiunE7nWwhO5eWTFv76Ad76yD1qm+bB7Zz2aN25GrLkRlTUprrHvLd5xlnH9OYhpwzJqR2QsTmwcopPvQ3DQHO0SzFjF+Qiq+Wi3c7+nIjz5dwhXSeCH4Gm1Bz4RuYXrevpPv7kPalr2xEETX8H0KTtRc0s5Wv/tx/BRHpQc4INv0S5jzUzIO2S/kdbJVV09vLsvRqB1NmLFg402Q1z1+lvMXr+StKevAjxUY7RZ+NVOw9u1px8bpUK/VLXJuYIGy/Y7sKdPZMWefgH4z/ovoCEyE/On/kcLfDHikhZUfCWEtsoYvKdm++aoFrX3rMmgNMAjZ3PDH+jj9tZiDfyUWlXob+peHHbj3h0Xo/jTqxMEPhG5hWt6+m9umoZPag/A4Xs+g1FDs+nN95Os35xlH9NPhT19IqtC7em7JvSXv3AE5s1agwkjs3qrbP8pmYOYvxyIfgRvm/naRyJWsbdRTyQMBFfBm/bVOeY21VFL82qO95PrJXpHrrDWc4Whn44c3IaBiMgJb8NARER5L79D38N9FhH1AodsyaQ3PZDldWrGvVVGjYgod8xsKZSgt8rr0I8FnD4UhIioZyRbCjHwRV6HfqR4hlEjIsoda7YUWvjnd+iXHWTUiIhyJ1W25POOIL/H9ANjEC6ba8wREfWcZIpkiwS7Ge6F1NvP69AXwaqvqZ9I3n8ZRDQQqCzRMsWCwzsDiPwwZI/cNuh/jRYiouxJlth7+SantnyU96EvJVxxBNqrTjdaiYgyJxkiWWINd/u0EBRE6EsJVp6E1kHnqEYO9RBRBlRmSHZIhlgzxVqs7PP5Ju8T0vyhyP0qZC/dOOJ6hEoPMZYSESUmWSGZIdlhveeNsE7NeiHI6xuutbe3d9m+OZXijVQj0PYm/MF18EW2whtvUi8oZjySiFxH9ehjnkpE/eO06/DDpQci5h/dEepm6Nun1qJtxjbNFd5lMw3BYLDbc1jrwmwz63ZObUSU35xC0GyTqbVuDVl70Jvz5rpmXVjrucDQT0M4HHYMe2sR1rqw1omosNnD0Zw362axB769mI+xTnOJoZ+GSCTiGPT2IsypsNaJqLA5haNMMynmY0zWeq4w9NMg241Gox3PYxbhNG+y1omosDmFo0zNYp+3F3O5yVrPJYZ+mqS3bz6PMOvWeetUWOtEVNicwtE6NUuyeSv7fK4w9NMk25YizOez14W1LuzzRFR47GFoD0pzPlFdJKrnGkM/AzLEI+Q5zKlZF4nqROQOycLSnLdPRaJ6b2DoZ8B8DpPMW6fCWicid3IKylRtwj7fGxj6GTKfS4qVfV44tRFRYXIKRHtbsgDNJFB7gqGfBfP5rOzziaS7HhENXOmGn9N66bb1FoZ+D5jPm4lM1yeigSeT8BPJ1s90Wz3F0M8BeU4r+zwRuUc6wZhJeOYaQ5+IyEX6KvR583kiIhdh6BMRuQhDn4jIRRj6REQuwtAnInIRhj4RkYsw9ImIXIShT0TkIgx9IiIXYegTEbkIQ5+IyEUY+kRELsLQJyJyEYY+EZGLMPSJiFyEoU9E5CIMfSIiF2HoExG5CEOfiMhFGPpERC7C0CcichGGPhGRizD0iYhchKFPROQiDH0iIhdh6BMRuQhDn4jIRRj6REQuwtAnInIRhj4RkYsw9ImIXIShT0TkIgx9IiIXYegTEbkIQ5+IyEUY+kRELsLQJyJyEYY+EZGLMPSJiFyEoU9E5CIMfSIiF2HoExG5CEOfiMhFGPpERC7C0CcichGGPhGRizD0iYhchKFPROQiDH0iIhdh6BMRuQhDn4jIRRj6REQuwtAnInIRhj4RkYsw9ImIXIShT0TkIgx9IiIXYegTEbkIQ5+IyEUY+kRELsLQJyJyEYY+EZGLMPSJiFyEoU9E5CIMfSIiF2HoExG5CEOfiMhFGPpERC7C0CcichGGPhGRizD0iYhchKFPROQiDH0iIhdh6BMRuQhDn4jIRRj6REQuwtAnInIRhj4RkYsw9ImIXIShT0TkIgx9IiIXYegTEbkIQ5+IyEUY+kRELsLQJyJyEYY+EZGLMPSJiFyEoU9E5CIMfSIiF2HoExG5CEOfiMhFGPpERC7C0CcichGGPhGRizD0iYhchKFPROQiDH0iIhdh6BMRuQhDn4jIRRj6REQuwtAnInIRhj4RkYsw9ImIXIShT0TkIgx9IiIXYegTEbkIQ5+IyEUY+kRELsLQJyJyEYY+EZGLMPSJiFyEoU9E5CIMfSIiF2HoExG5CEOfiMhFGPpERC7C0CcichGGPhGRizD0iYhchKFPROQiDH0iIhdh6BMRuQhDn4jIRRj6REQuwtAnInIRhj4RkYsw9ImIXIShT0TkIgx9IiIXYegTEbkIQ5+IyEUY+kRELsLQJyJyEYY+EZGLMPSJiFyEoU9E5CIMfSIiF2HoExG5CEOfiMhFGPpERC7C0CcichGGPhGRizD0iYhchKFPROQiDH0iIhdh6BMRuQhDn4jIRRj6REQuwtAnInIRhj4RkYsw9ImIXIShT0TkIgx9IiIXYegTEbkIQ5+IyEUY+kRELsLQJyJyEYY+EZGLMPSJiFyEoU9E5CIMfSIiF2HoExG5CEOfiMhFGPpERC7C0CcichGGPhGRizD0iYhchKFPROQiDH0iIhdh6BMRuQhDn4jIRRj6REQuwtAnInIRhj4RkYsw9ImIXIShT0TkIgx9IiIXYegTEbkIQ5+IyEUY+kRELsLQJyJyEYY+EZGLMPSJiFyEoU9E5CIMfSIiF2HoExG5CEOfiMhFGPpERC7C0CcichGGPhGRizD0iYhchKFPROQiDH0iIhdh6BMRuQhDn4jIRRj6REQuwtAnInIRhj4RkYsw9ImIXIShT0TkIgx9IiIXYegTEbkIQ5+IyEUY+kRELsLQJyJyEYY+EZGLMPSJiFyEoU9E5CIMfSIiF2HoExG5CEOfiMhF+iT0PR6PUSMiokT6IivZ0ycichGGPhGRi/Qo9DlsQ0TU93qSvezpExG5SJ+FPo8KiIgS66uMzHnoe+SfevFOrz8WiRo1IiIyOWWjZKiWpepfLvVqT9++54qFwkaNiIhM9mzszV5/TkPf6YVa2yKt7UaNiIhM1mxMlaM91Sdj+uYLDje3alMiIupkZmMuwz2RPjuRK2KhCEKNLcYcERFJJko29pU+C33Zg0lp39VgtBARkWSimY99IWehn+4LjocjaK3eZcwREbmXZKFkYjpytVPoceg7vRDtIiNtz9XZw7euF2poRltNnTFHROQ+koGShSZrVkpcalOHyzWtWZqNjEM/1RMmW65/MXqRQ5qW6lpjCRGRe0j2WYd1pCSSbJlItdyuT0/kWskLDdU3o+GTLQg2du7tiIgKlWSdZJ5kX6ZhnSueyJbauFFPWzze9SHWeamb86pmzHe2Oxb1zxvwo6iyHIHyUviKA/D6/OrVaZshIso/Kvdi0QiiwTDCLW0INbUgFo5Yhr8TFb1TLP+E2W6y1oV9PpWsQl9IWFuZ89ap9k+mqsnaHovFOuodxVjXbHeaJpJqORFRrqQKWXO501T7J1OjCK/X23UdVdWmxrpmu3Vqss+no1dDX5vagt9etHXMefXPnLdOhbVORDQQWUO4W2BbAl+bN+pdi9Gu/pnrOE1N9vl05Cz0hT2sZar965g32ixFb7fN28JfWOtERAORNYQ7gtoS4Gaxz+tFa9br8s9osE+tnNpS6fXQ16ZG8JsP0eudxWwzp2ZdqDmj1sm6nIioPzmGsRH0Qpbbg9ts67rMaDce29nedWrl1JZK1qEv7OHbJayNesc0QfA71a1TYa07kW0TEfUFM5QTsQaxU3A71435BIEvrHVhn09XTkNfOIW1TM1g1urGKl2WW+qmRHUiooEoUUibdZla6/rUUpd/tuXCWjc5taWjR6EvnMI4UYBbg1+fJl7XOrVL1E5E1NcShW+y8Jap2dzRZgl8YV3XzqktXb0S+sIpuDva5F/Hcm3iuJ6w1hNJZx0iolxIJ3CdwluYdbNJ5uWfWTd1rtfZZpWoPR09Dn3hFLqpQtyp12+yb88+T0Q0UNkDuWuYm1O9kizwhX1bwqktEzkJfeEUzNa2hHVb+AuHTWmcnoOIaCBIFMbWZnMdM+xFopB32l6i58hEzkJfOIWyva1ruFvqRviLZOGeZBERUb9IlsVdgjyNsBe9Ffii10PflCjsRbd5yw7ALtlzEBH1h2SBbA16kSzgk25nIIa+KVEwpwp7kSrUk+0QiIj6gz3Y7ZwCO1n4W+Uq7E19Gvoi3R2CVaodARHRQJEspLMJ9rwIfVPKXjuDnogKWE/CPNdhb+rV0BfphDcDnojcIp0w763AF73+yVnpfoHWQkRUKDLNt97OwF7v6Vv1Ro+eRwlE1Nd6I5h7O+xN/Tamz7AmIrdLFvS9tRPI2fCOhLi9JCNfkFmIiNwi3ezLNFPT1aOefrIXke0LzNUXRkQ0UGTbuU32uKy3mU3oOwWzvS3VPBERdWUP8lTzItPwzyj0k4V9t6nlnbP2xzlshojIleyZbQ1xj/FOX7PNPrVKN/zTDv3uwa3Py9Qa9Pp81+XWqbDWiYjcrEvIO4S7VLWpZQdgX89kn3eSVug7BbZMtWIL+lgs1rnMLOqf+Rgr+zwRkVskCmwt3lXdWrxer1HX19P+Gcu0xxhTYa07SRn61mDuCHEplrCXoO8o8Rh8RQH4ykrgLylWpQi+QAAeX6+/D4yIKK/FozFEw2FE2kOqBBFtbUc0FIbX49WC3yyS6/bwTzf4E4a+NeyFPfBjMb1XLyUajWphH6gsR8mQKhSVlxqPIiKingi1tKG9rhHhphYt/H0+n2UHkDj4hVP4O4Z+osCXYNemKvC1oJfAj0W1Xn3FqGFaz56IiHJPev7NO3ZpvX+fVw9+fQegh73sENIJ/pShbw18s3cvgS9hH4lEUDFmBMqGDTbWJiKi3tS6qx7N22vg9/u18O/s+TsHf8rQTxb4WtirEolGEFfbqZowBsUVZcbaRETUF4LNrWj8fDs8Kq79PhX+KvjNXn+q4O9ydjWdwA9HwoghjsGTxjHwiYj6gWSvZLBksWSymc/aaIwxDG/Pc1NH6NtXMIs98MPhiNbDD5SWGGsTEVFfkwyWLJZMtge/NcNNZr3bdZTWlfVevj6GbwZ+5dgRKKksN9YmIqL+IlksmWwNfu2qSktvX4qVFvr2Rm1F47JM2YiM4UciUfgrSlE5cpixFhER9TfJZMlmyWjJ6o7evvxzyPZuY/r2wNev0okiFA5h8NiRxppERDRQSDZLRktWS2bbg98a/gmHd7RDBFXkskw5bCgZXIWiMr7piohooJFsloyWrJbMNvPbHvjCazaYC+Wf7CHkAWYvPxwOq0OIodp6REQ08EhGS1abvX09+PVMt4a/8/COKtpYvtpjyBiRN+BHWVWlsRYREQ00ktGS1fo5WH1s35rppo4TuWajTLQ9RFyu2tGHd0qqKrRlRANZU0srrv7VbTjv6l+grqHJaM3e7vpGLL76ely99DZt20QDnWS1Hvh6hutDPPoyM+c94c9r1FSfMYNeDhHkpEAwFEJbeztGTJmIIaNH6I/MA3XBZrxbs1mbxsyvOImKQAlmD5uAcRXpD2HF42pv2l6LaLgesWi7/g44Xxn8RUPgL5YrnLq+9Zl6X83uelz4oxtQrwL/3pt+jLGjhhtLsrNtRy2+dfnPMXhQJW679gqMGDrEWEI0MNVV16Dmk80oLSlBcVERigJFCAQC8Pm8ne/UNUPf7N1rY/gRFfqhMNqD7Whta8PkObNQWpkfvX0J+sc/+S9C6hAnE+rbgWMm7YfxqYJffY/CwZ0INX+qgj9sNHbl85ehqGJP+AKD1BzDP2diUahfUP1w1MHOugZc8NObUd/Ugvt+eTXG9fDy4q07d+GbV/8SgyvL8ceffh8jh8jP04G8xd3vV79EPqOBckp+7mF15BZuSfiz7zH5GQbKVanM659jW1MzNq1eg7LSUpQUl6CoKICAP6B+PX1a6Gu3ZbaGflQVOTSQ0G8PBtGuevmtba2YOe9gFWTqlzoPvLhlDTbUVxtzmRlUXIbT9zpY++Y4icciCLV+jnD7Ni38k/F4i1BcPgn+ErnMlcGfE2veBp5ZAbQ6//HXhOM4f7MHdWp63+Q4xhc7/xzTtSUYwzc3eTAk4MHtE+MYoabdSFiUqbA47kxg5hyjkXJG/s5q3geaPlXhn1lHLpHWYAS76tswfHApSostueZV9apJwPDZ6uean8EfVfm99uVVKvTLUKJ6+yXFxUboy83ZjNsxS+BrxXKGVz/rq+8E5GRAvgS+qAuqQMhSY7BNHSGoXkUCkeAORNq3pwx8EY+FEGz5FJFQg9FCPbbiTpXE6o9/d436Qdd2Lw116rc+qu1iPU3q++60TgZFtqHFvPxOyLYd1tFei7ymh/4ka1KutagOXMMnOQv8LTXN+Pk9r+OaO17GTX/9rzo6tJyrkeeQ52rZYTTkH8lq/f1VeoZLsWd8yuv0ZYw/n6Qzhp+M+sqNWlcyhi+9/Hg88U7BToI/3PKx1PQG6pnGeqMyAA3k15bP2nep/+Umg3Y1tOEX972BQHwbbv62Bw0Nn+L3j7yLcMSyfenQac+Zv7STuLbAt3K8ZFO7tlOb6g8kqMDfon4fnMfwk4lGWtURwm5jjnrE9svbjQy1JBia6xHZpmw7mVSvjbJTMiwnP9O6pnb84v43EWrfge+fWoXhVT5ccEIFPtj4CZrbQsZaigzrlOb3e5KsgW9muRRTx3fTbFSLjZWNvUUaQxluEAmqw/gsRcN1Ro16jQpl39Bh6u91KEpLS+Dba4b67e5BWKjH+vaaqW2rbNgw+IYMTx38lHvlo4FBU9TPI2A0ZE6GdJb86VW81FCEOl8VNmwLq1xT7bVRlJaUaveg1/iK1HNNVs85Vp/PU+almmbwyz9hZnyXvwrr3kBb2SiuF4+q/4LGTOZikTajRr2porQU3zj+CFUOx+DBCa60ycDgIYPwzRP07VWW8aNA+4X08ofNBMZ9CRgzt3sZ/gWgqNJYubtttc247s+rsG7Enphz9fkIHnwkrnkgiIdeasFtzwBnnP4/qJwyX9/W2MP058rzCy+cstta10LfvrBznqGvU9+DHv0e8Gip16nf06LabThu81v4essmlKz9rxznGguzoB5bsuYt/E/LJzj2s7cQqJUT+Pxb6BfSyy8ZqvbqqgduL0P2VoF9MFDcfSdf3xzE0r++jfUj98Q+l52L4sGVGH3ofojvdyB+/kAbjj/xNJx88onwVo1HrGwMmiLFaFCPkdsU5zM9s/Xf1a55rs8nPP41V7Y+wLU8fnVkn/3hpcfLXmKfCIeBdauBd14Hgu1GYw/INlarbck2Zds0MBWpwLcNychVOb9Y/jbeqRiP6YtO00bmgo2NqFv7McLrNuEH3/0Gzj5DBb7Xo/bvcTz+9Epc8L3LcO7ic3DdjX/Czpr8PQ+XKrs7Ql+Wmyup1bWpYOjrfEXZn9zxFfGD4/uM9oucwyMr2Rb/Bga+QOcdgLfWNOOnd6/CqqLRmH7uaeogYTDCra3Y/f567H7qJVx01ok4d+Ep2rtU5UqX+x58An994D6c/5Uwblhchbbt/8Yd9z6Mtvbsh3T7kzWzzSyXNrO5W0+/M/i7PtjtisrG6+OLGfKoQ9NAcf7cwmIgi5SUD+hC/UR2zK21WrWmvg3X3/cmPhw5Bftc/E2UDh+KaCiE+o8+wef3PYHzTliA00/6ihb40sO/b/nj+NUtf8HXDg7jS7OLseeYAK48vQLrP9qI2l35ewGGFvKWulXmKVbgPAkG772+UgRKRqta+oP7Ho8PxeWTVYVvz8+FtrqGAV0oF1RAxULplagqcpGEvKGqtVobj7/pb+9izdA9MPP8r8NXUqxWC6Hm7fex9vrbsPjLk3DWgqnwI4RIqA2P/P2feOK+v2FRRRHue6oFb34UxO6mGH7792aMHzMSwweVOT+vdul2/naIPaHNO+NyaY95CwbzRmtyz53W1hY0NTfjS6ccZ6w+8P1z83v4rDG7yytL/UX4+rTD4EvQo4/Hgmhv+kT9rsmbN1L80FXQB0rHorhsoqpz35oLTZs2GrWBqXLyXkaNsiJXyDVt0d8cJffbSUX6XxH1mFA9tu1sxNLl/8U7VeMx/ZzTUDpiqMrmMHa8vho7Hnoc5x40GmcfPV318P2IBqrwtxc/xdMPvohvF3mxb0kAf6mtx5tVEfgHeVFcOgbXfPt4jBvlcIM9OTkgt2soGwmUj5PeoLFg4PjPY0+jsqICZWXl2j14zBuvmbdiKLjQ39q8G898+g5iWeyJDx2zN2YNm2DMOZPgD7dtRagt8e0YtCGdsgnqyGCU+h3Jn1tYDHRNTT2/XXJvqqxMfOkgpSAhX/8RUKdKhrdc2Fbbguv+sgprh03GzPPOQPGQQWoTEdXD/wDb/rICF84fj9MPn6oCTz9pe++Ta/HgY+/jx0MrMKe0GLuDbdgSCuNXNS2YdPAkXPPNAzFsUIpPCZRr+kfsp37oyfOiP6QK/YLrgsrtkeVumXLzNBmqSedfiT+AQ8emDnwhV+IUlU9B+dAvasM9cmM1be8vW/KVqmUTUTb0ABSVjmPg9yMZxpRbckTVH7m9WG/VkWwdczWpS1gkW4d6KNoGtKiOVIaBL0M60sOXwJ9z5Xla4MsY/q4P1mHdr27HOQePxhmWwH/oX+tx18Pv4JaRg3BgWTGC0QjaolEsr2/H6P3GYcn/HpQ68IUMLdVtMGbyS8H19E3yrjS5eZr60zRanEnoB9QhX6IhnXTIfXm0LXHsvldl0tOXk1dba5vV73P3EJHbzE4cWaXVN+9sVL/33YcSigJ+jBteoX6mHuxqbENDS1Dfk1jIsrHDK1Ec0H/u7On3QKgZ2PEG0J7+yVM5aStj+K/7R2LGeWeiqLIcoaZm1L6zBlvvexTnfmkCFp0wSwt8+X149IWNePSRd3FJeYnWw4+ojNjY2oY7djUjOH00fnTOwRg/MoOfobw3YOJXjJmBw3U9fZPcHll68KX+4qSlxF/Uo8AX0qNn4A8sEs8Je/GqmJx68No66rGylrYdmdc6RrZ1VOEVbjniL8noPjv6ZZmv4zXfSExdeJL2sLbdu7WTtrsefRYXHzWlI/Dl57T82Q/xsOrhf1uF/T4lxdrP9dP2kAr8Fvj2GY8fLzoks8CXJ5RbNuShgg19IsojcnJ06DQVpHuqevI3Qsobr/7v3jfxwaDx2OusY1QAq6P65ma0bN6Gbcsew7fnju4cw1c75XufWotbH/gvLq8owyGql+/zALvCIdxW04jSOSrwF8/VjurSJjsouV1D5R5GQ35h6BPRwOBTYTpiH2DPk4Gpp6lyKrDHV4DSEXI4ra2i3VrhwdV4t3QkppxxNDxyvX0kisaPP8cauSxz3kScdeTeCPi9iERjeGTlBjz6xAe4Z+xQ7FNaBNnKzlAIS6sbEJwxCt8/+wAMqTTeMS/PIc8lzynPrb0GhzL5BGCI2kHJjioPMfSpIMkft+roaW+z71b0/NBIPdE6spoUrwoDrdjW0T5v1Agj6g3qeyu3WBj1RaB4KLbvasHP//ImXotWYcrXjoSvuAjxWAz1H36CnX99Apd9dTbOOX6m9rOSHv7fX9yIf/z9fVxVVY49iwNa26a2IH5VXY82Ffg//N+DMXqo5U11cn+fUQfoz6n95AtTwZ7I1S4Bi7Qh1YeeeDxexH3FqsdQZLQkF1ffm3irfNpO8rFcj88Hj3yMnppSbmR0IlcVeYu905C75LRf9RCF9AYTrSPv2pQ/fXP8vhvZjhH+gidye0k8hm3r38C1v7kP75aMwJ6nH6PdPE1ID79mxZO4YN447Sod2RnLz0qGdKSHL4F/QJmM4cfxaVs7bqttQun+E/AD1cMfOaRM20YHuXmbfFRinge+667TF7Gd7yO4Zhnibfpbs1MKlKNorxPhn3yU0eCs/Ym/o+2RFYi1NBstyflGjkT5eRcisN/+Rgv1hDX09aB2CGL1B6tnsFqmvY/CeR1585xIvZ301hEM/d5R39CIH133O7yt8mn6olM7drJtO3dh3S9ux2Unz9TfeKUCX06sy0lbGcO/e+xQ7FkUQEs0jLpgEDfvakV89hhc++3DMNgc0rEaPBUY8QVVsfxQ85DrQj9aowL/rVv0nn5GPCia+T8Jg79NBX7rX+4yEyB9Pj+qrvmJCn5+aHZPmaEficSwq0kdxWlzneRPtUwdxleWqaO2eARF9c/AG+n+0XdxXyWCQ0/V6rUNrYg49OIDqpc/tLJUC/WmVvX3EAw7Pt8wtY7frx81MPRzr66+Eb+69T68XFODvc46DoHKcm1Ip2HDZ9j6l0ex6PA9ulylI0M6K/72Di4tL8H0Yh9awhHsVOWe+jaEpo/CknMPwfgRCU7ayiWYI1UHTYZ58pjrLtmMfPZCFoEv4ghv/Id6bPdb6MqQjvTwMw58EY2g/Rm1XcqZiPqjl4+4a2oJdi0qnIMh/bp8D6Lwt61BoPnNbsXf+p62jmhpC3ffjiot7RLy+s9btinbtq8jr0FeC2VJ3uDUVgM0b1U/iG3di2q/9/4H8ffnX8GYeV/UAl/+BhvWf4rdf38Wlxy7FxZbAv/B59bjwb+txll+D0Z7otitevdbw2HcXaf38JMGvgg2qF6A+t2o32h5TduBkHQ2svjbH6AKLvRjbdl/qHE83KKdB7CLq6OeeJpDOk6iNTuNGuWM499g57X1nf+TULaXzgd31pzJcn0dhzVTPZgSk/vs7Hwb2L4K2KGm1f/tVmI7/otH/rESM8cOwtbnVyHU2KKyeAd2PPQPXDBvPE4/onMM/y9PrsHvlr+Fb/g8mKV6+HLStlW131fXhvIvTtSGdJIGvknyY9ca/bXJ69jxlnqNr6vDvc+NFfJfwYV+T0fjHN9sk+AeO+nyMByIupJ77EhvWsLf8U6WIXzyeQ12NbThV5efjP38Qay/629Yv/RPWHSY3Etnr47LMv+28iM88Pf38IshJZhV4oecrWlXf8d317cjMmuMdtLWcQw/EbkVhByFyOuQaahRf71ajz//FVzoU+HzyK5d/rMX+adN1X5aKvLnL/c/shctFnSyVpdtmEVf3Llc/pnLjCILtddCmWupNirOpJ/01oc7UFZahBXPrEY4FMKktt249JTZ+N/jOi/LfOzf+q0VLiwLYIJxO4xdakfwx12taJ0+Etd866DuV+lkQwI/moNPYxsAGPqUd/zqEH5YVVn3MqgU5SXmpbdehKvmIzjkpG4lNOhIYx1gSGWJ47YGVZR0xLlsU7bttJ68FspCIHkQ1zW247UPtuOoAyZg72FefOf4vXHDd+epwJ/RMaRz35Nr8Ze/vo3T1fzsYtmZq8epwL+3rk27LPOni+diQia3VkhGu7Gi/hz5ruCu3ml/+SeINWY5/ubxovTIm+CxfchyrL4Odd85R+3pszlBrEJqj8kY9OvfGXOUrcxvrSz9RaexNaObnmO8eicD7buBra/oQygOpBcvJ9lLivzaeyq0IyuDDMHKdfi3PfRf/J/qxU9SPXxZLIOwv9nVgqJ99VsrDK7I0WdTy5MPmgIM/4Kqdx4lDlSuveEaFS457SKhIL09ezHPyWhxL+vFpFfYtRiraGT9RNuxrEa5VjIEGHeYHqaV44CKsV2KV7VVjpiEQPkwlbNd78Xz+c5mPPXGZ9hLRf0Que5ctTWon9ktKvAjM0bjChnDzzbw5b4/csmmfNC6vBa5X77cNz9PAj8dDH3KO+FIVP3hN2LzzoYu5XNV6pqMcVcV2tt3N3dbR8rW2s4jBqk7rSOP7bJ3oBxTUS3hOnIOMPoQYMzc7mWsKhO+DAydAe1DSwzVu1tQWVWBygOm4g+7W/F+ewR3qWls9lgsOecQjM3k5mlW8hzyXOPm688tr2H0QfqOqYDuopsy9HlvERpopJcvb9AK20tUv/2x1stXJRKNd19HFWk3JVuHkT8ASNgOmgSUyedT6/vhzTuasOceo/D9c49A/cSR+L+aZlQdKJdlHpreZZmJyHPIcw3Aj0DMRKrMTqun73gZIxFRX5C7WRbpYS6XaK7eUINHn3sHp373DtTUN+Ds0/fDld88WDsp3yPyHHl650xTOlndLfTNvYT836xHI5l9hFm/SvNDGBJyOIyTm6f1RNy4uRcRZUPlUEACOYD2UATNbWFcfuYcPPaLk/DCb0/HpafP6bw9crZkaKdITsQn7yUPdGZWS3abX4m959+RRtLeGfidK0lbe2v3d6kOVHICKFueshHw+Lt/PqbcLVNunpYt/0R1yEg5o/1Cq1/RjlseG0Vv1397teKwjr6ethmN1BOtY1mN+lv5KG3opby0CD8592CceeTe2HPcYO1n1WPSUaxSf6Ol2f+NDxSS1WaOC/2vQX7PO3/vOy7ZlM+Ulc8K1S7ZDIbQ1t6G1rZWNLe0YPI+MzF64nj9EQNcvHk72l65zvF2Ckmpw7qSAy+Fd/gso6Gr8Dtvo/H6n8uu1GhJj6e8HIN+eRN8Y/Pj+zeQmZdsypi+jLvbD2XlF1zuwyI3QJMlcsJXrsSxk6AoMt7IEwqrdRwOieVa8IBfvxQwXbxks5fJbdLls3Rz/c5Y6eHL0E4BnKyt3rwFm95biwqVO2WlZSgtKUVxsXnJpk/97ht32ZQ/nmgsqoV+OBLWQl8CX67Vb2ltwZCxozBtzj7GZgc+Cf7wx08h1rRFzSS/hYL8vXtLh8E/+Uj4EgS+KfzOau3maXIvnVS3VpAhHenhl51+Jrxjsj/6oE7Nzc0D9vyS9KQqKnpwEpEoB9avfg9123ag3LhGX4JfQj/gD2ih7/Oqjow19OVDJ7r29PXQj6lez9xjO9/FSNQfQqGQVgZa8EvgF8kbYFQh6k+vPfM8vOro1gx9a09fPhSoS+ibwzvhsOrpqz+s9mC7HvotLWhWwb/vvEMwdOQIY9NERDSQ7N5Zg3dffh0VKvDLteGdUpQUl2jvyA0E9J6+DO90uaxEH+z3dHz+p1fesitFrfj5xk3GWkRENNBIRmuhbuS2NculmLpdS2iuYD5QOyRQZfunm9FYV2+sRUREA4Vks2S0mdfW4LcGvvCajdo/o94R+Fro+7Qb9Uj5cHXnJw4REdHAINls5rRktnZjNaPYM942vNPZ05cBf+3BPrnLnb6xmm3b8fG69cbaRETU3ySTJZu10FdZLZmtB7+vI88l202WN2cZewHZO2jjQir4O3r5PgTUVC77ee+1N1GzPfkHIBARUe+TLJZMlmyWjJasNnv7kuHmGL+Z76JrT9/s/quVzD2FXwv+gHbJj35ZWgCvr3wJ9bt2G48iIqK+JhksWSyZrGWz9gasgJbZ5khNR+CrfyYt9K17AZmYvX05ISB7DbncJxDwq40GUFxUjFg4gn8/9U/sVIcURETUtyR7JYMliyWTJZslo/VLM6Wnb47YSOjrjzFz3jamrzdK6Rja8cmwjmysSNu4XPNZUqwH/7/+/iTWv7/GeDQREfU2yVzJXslgyWLJZMlmyWhtiMc4BysZbs10kyeypVZ7c5bQ3qRl3IdH3p1r/fjE9mAQ7e1taGtvR1tbO1rbW7WptI+ZOB77HnwAho4Yrm2HiIhya3dNLd5d9Ra2b96ihX1paQnKSsq0aWlJCUpK5M1Y+k6g4+MRu/T4jdEce+hrwa9CX25UJaEfiargD8m7dFXoq4APBlXoS/BrpU3tCFSbWiY7hsnTpmLvWTMwejzvNUNElAvVW7biozXrsGn9ho5efUmJCn0V8hL2UoqLVehrgV+sjfGbvX3zZK61t98l9IUW+qq3L58bZPb25SZsYXUoYQ1+vecv83pdjghk5yDrlldVYuzECRg5ZjSGDh+GCjVfpF6Q9RCDiIg6SfaGVJY2NzZhd+0u7NxejW2bP0eLmperc7QTtqoHL+Eut1eQ4NeC3hL42ri+nMw1evkq6rv08oUW+lIxg1+mZrEO81iDX3r1oY4dgD61hr6sp9/ATS/6tvRtms9h59RGRFRInDq+HT1wNdU/y0E/p2peQWkGuTX0i7Xgl169PpzjFPjWHr71ObqFvpC6WaKq12+Gtxno5ji/eddD2RGEwmGtbq4jw0LyGO0cQUzfgZjbNFnrRERuYgaxMINZH3/Xe+faxTRyIU1H6MtYvX4FpXlXV3P83lync2fRPfCFNm+GvrAHshRzfN8a/OaHrXQEvaqbO4OwnAcwinm7Zm24yNie9s/2PEREbtItiOWfEdB64Ksi75NSvXYpclVOR7irqbkD0E/YyptnOwPfaRxfmPUuoS/sgSzFHvzSizc/cEVuxSxBL9OIsUPQl0tPXz1Oe2zX4De3TUTkZh1BbAS0BL5WVGhL8Guhr52U1d8kq71nSnYC2lSGcvSjgXQDX3QLfWENZDOozeCX8NbCX/ukLT38zZCPyA5BC3t9aMfs5VuHdsxiZZ8nIipU1gAWZkCbRR/iMXr7WpjrvX397gjWnYAKe8s7b9MJfJEy9IUZ1GZ4m71+bQdghL8EvFnX2zt7+FL0bTqHPhGRW3WGtBH6Zm9fgt+YdgZ8Z11bbvTutcc5BL7oNv/pW+/Hx48eY8x2sgezGdZaUf/MXr8W8LIDUDsEfUcgJ3/NE7jmTsIM/c7tMvaJyO3MODaDWQtvFebmVA9+Pdi1gNeGfcyevRQV8pbzAeZ2TPZ5APj/keGDiKc0L9oAAAAASUVORK5CYII=;" vertex="1" parent="Fj4VQZkK3p1aDtsN9PMZ-15">
          <mxGeometry x="9" y="9.5" width="291.6" height="561" as="geometry" />
        </mxCell>
        <mxCell id="Fj4VQZkK3p1aDtsN9PMZ-17" value="&lt;font style=&quot;font-size: 14px;&quot;&gt;CheckPlanPage.jsx&lt;/font&gt;" style="text;html=1;align=center;verticalAlign=middle;resizable=0;points=[];autosize=1;strokeColor=none;fillColor=none;" vertex="1" parent="1">
          <mxGeometry x="1321" y="570" width="140" height="30" as="geometry" />
        </mxCell>
        <mxCell id="Fj4VQZkK3p1aDtsN9PMZ-21" value="" style="endArrow=none;html=1;rounded=0;entryX=0.5;entryY=1;entryDx=0;entryDy=0;exitX=0.501;exitY=0.014;exitDx=0;exitDy=0;exitPerimeter=0;" edge="1" parent="1" source="Fj4VQZkK3p1aDtsN9PMZ-4" target="Fj4VQZkK3p1aDtsN9PMZ-1">
          <mxGeometry width="50" height="50" relative="1" as="geometry">
            <mxPoint x="380" y="260" as="sourcePoint" />
            <mxPoint x="430" y="210" as="targetPoint" />
          </mxGeometry>
        </mxCell>
        <mxCell id="Fj4VQZkK3p1aDtsN9PMZ-22" value="" style="endArrow=none;html=1;rounded=0;entryX=0.5;entryY=1;entryDx=0;entryDy=0;" edge="1" parent="1" target="Fj4VQZkK3p1aDtsN9PMZ-1">
          <mxGeometry width="50" height="50" relative="1" as="geometry">
            <mxPoint x="600" y="400" as="sourcePoint" />
            <mxPoint x="780" y="160" as="targetPoint" />
          </mxGeometry>
        </mxCell>
        <mxCell id="Fj4VQZkK3p1aDtsN9PMZ-23" value="" style="endArrow=none;html=1;rounded=0;entryX=0.5;entryY=1;entryDx=0;entryDy=0;exitX=0.5;exitY=0;exitDx=0;exitDy=0;" edge="1" parent="1" source="Fj4VQZkK3p1aDtsN9PMZ-11" target="Fj4VQZkK3p1aDtsN9PMZ-1">
          <mxGeometry width="50" height="50" relative="1" as="geometry">
            <mxPoint x="1120" y="280" as="sourcePoint" />
            <mxPoint x="1170" y="230" as="targetPoint" />
          </mxGeometry>
        </mxCell>
        <mxCell id="Fj4VQZkK3p1aDtsN9PMZ-24" value="" style="endArrow=none;html=1;rounded=0;entryX=0.5;entryY=1;entryDx=0;entryDy=0;exitX=0.5;exitY=-0.033;exitDx=0;exitDy=0;exitPerimeter=0;" edge="1" parent="1" source="Fj4VQZkK3p1aDtsN9PMZ-14" target="Fj4VQZkK3p1aDtsN9PMZ-11">
          <mxGeometry width="50" height="50" relative="1" as="geometry">
            <mxPoint x="1000" y="510" as="sourcePoint" />
            <mxPoint x="1050" y="460" as="targetPoint" />
          </mxGeometry>
        </mxCell>
        <mxCell id="Fj4VQZkK3p1aDtsN9PMZ-25" value="" style="endArrow=none;html=1;rounded=0;entryX=0.5;entryY=1;entryDx=0;entryDy=0;exitX=0.486;exitY=-0.033;exitDx=0;exitDy=0;exitPerimeter=0;" edge="1" parent="1" source="Fj4VQZkK3p1aDtsN9PMZ-17" target="Fj4VQZkK3p1aDtsN9PMZ-11">
          <mxGeometry width="50" height="50" relative="1" as="geometry">
            <mxPoint x="1270" y="540" as="sourcePoint" />
            <mxPoint x="1320" y="490" as="targetPoint" />
          </mxGeometry>
        </mxCell>
        <mxCell id="Fj4VQZkK3p1aDtsN9PMZ-26" value="" style="swimlane;startSize=0;fillColor=#dae8fc;strokeColor=#6c8ebf;" vertex="1" parent="1">
          <mxGeometry x="550" y="1450" width="380" height="130" as="geometry" />
        </mxCell>
        <mxCell id="Fj4VQZkK3p1aDtsN9PMZ-28" value="&lt;div style=&quot;font-family: Consolas, &amp;quot;Courier New&amp;quot;, monospace; font-size: 14px; line-height: 19px; white-space: pre;&quot;&gt;&lt;div style=&quot;text-align: left;&quot;&gt;&lt;font&gt;&amp;nbsp;startDay: startDay, &amp;nbsp;  // 시작 날짜&lt;/font&gt;&lt;/div&gt;&lt;div style=&quot;text-align: left;&quot;&gt;&lt;span&gt;&lt;font&gt;&amp;nbsp;&lt;span&gt;finalDay&lt;/span&gt;&lt;span&gt;:&lt;/span&gt; &lt;span&gt;finalDay&lt;/span&gt;, &amp;nbsp; &lt;span&gt;// 끝 날짜&lt;/span&gt;&lt;/font&gt;&lt;/span&gt;&lt;/div&gt;&lt;div style=&quot;text-align: left;&quot;&gt;&lt;font&gt;&amp;nbsp;&lt;span&gt;planList&lt;/span&gt;&lt;span&gt;:&lt;/span&gt; &lt;span&gt;planList&lt;/span&gt;, &amp;nbsp; &lt;span&gt;// 계획 리스트&lt;/span&gt;&lt;/font&gt;&lt;/div&gt;&lt;div style=&quot;&quot;&gt;&lt;font style=&quot;color: rgb(0, 0, 0);&quot;&gt;&amp;nbsp; &lt;/font&gt;&lt;/div&gt;&lt;/div&gt;" style="text;html=1;align=center;verticalAlign=middle;whiteSpace=wrap;rounded=0;" vertex="1" parent="Fj4VQZkK3p1aDtsN9PMZ-26">
          <mxGeometry x="10" y="10" width="350" height="120" as="geometry" />
        </mxCell>
        <mxCell id="Fj4VQZkK3p1aDtsN9PMZ-29" value="&lt;font style=&quot;font-size: 20px; color: rgb(0, 0, 204);&quot;&gt;LocalStorage&lt;/font&gt;" style="text;html=1;align=center;verticalAlign=middle;whiteSpace=wrap;rounded=0;" vertex="1" parent="1">
          <mxGeometry x="675" y="1410" width="130" height="40" as="geometry" />
        </mxCell>
        <mxCell id="Fj4VQZkK3p1aDtsN9PMZ-30" value="" style="endArrow=classic;html=1;rounded=0;exitX=0.5;exitY=1;exitDx=0;exitDy=0;entryX=0.75;entryY=0;entryDx=0;entryDy=0;strokeColor=#0000CC;" edge="1" parent="1" source="Fj4VQZkK3p1aDtsN9PMZ-12" target="Fj4VQZkK3p1aDtsN9PMZ-29">
          <mxGeometry width="50" height="50" relative="1" as="geometry">
            <mxPoint x="1000" y="1310" as="sourcePoint" />
            <mxPoint x="980" y="1320" as="targetPoint" />
          </mxGeometry>
        </mxCell>
        <mxCell id="Fj4VQZkK3p1aDtsN9PMZ-31" value="" style="endArrow=classic;html=1;rounded=0;exitX=0.5;exitY=0;exitDx=0;exitDy=0;entryX=0.5;entryY=1;entryDx=0;entryDy=0;strokeColor=#0000CC;" edge="1" parent="1" source="Fj4VQZkK3p1aDtsN9PMZ-29" target="Fj4VQZkK3p1aDtsN9PMZ-7">
          <mxGeometry width="50" height="50" relative="1" as="geometry">
            <mxPoint x="1001" y="1190" as="sourcePoint" />
            <mxPoint x="783" y="1420" as="targetPoint" />
          </mxGeometry>
        </mxCell>
        <mxCell id="Fj4VQZkK3p1aDtsN9PMZ-32" value="" style="endArrow=classic;html=1;rounded=0;exitX=0.25;exitY=0;exitDx=0;exitDy=0;entryX=0.5;entryY=1;entryDx=0;entryDy=0;strokeColor=#0000CC;" edge="1" parent="1" source="Fj4VQZkK3p1aDtsN9PMZ-29" target="Fj4VQZkK3p1aDtsN9PMZ-3">
          <mxGeometry width="50" height="50" relative="1" as="geometry">
            <mxPoint x="350" y="1420" as="sourcePoint" />
            <mxPoint x="210" y="1030" as="targetPoint" />
          </mxGeometry>
        </mxCell>
        <mxCell id="Fj4VQZkK3p1aDtsN9PMZ-33" value="" style="endArrow=classic;html=1;rounded=0;exitX=1;exitY=0;exitDx=0;exitDy=0;entryX=0.5;entryY=1;entryDx=0;entryDy=0;strokeColor=#0000CC;" edge="1" parent="1" source="Fj4VQZkK3p1aDtsN9PMZ-29" target="Fj4VQZkK3p1aDtsN9PMZ-15">
          <mxGeometry width="50" height="50" relative="1" as="geometry">
            <mxPoint x="1170" y="1620" as="sourcePoint" />
            <mxPoint x="1030" y="1230" as="targetPoint" />
          </mxGeometry>
        </mxCell>
        <mxCell id="Fj4VQZkK3p1aDtsN9PMZ-35" value="&lt;font style=&quot;color: rgb(0, 0, 204); font-size: 15px;&quot;&gt;Save&lt;/font&gt;" style="text;html=1;align=center;verticalAlign=middle;whiteSpace=wrap;rounded=0;fillColor=default;" vertex="1" parent="1">
          <mxGeometry x="850" y="1280" width="60" height="30" as="geometry" />
        </mxCell>
        <mxCell id="Fj4VQZkK3p1aDtsN9PMZ-36" value="&lt;font style=&quot;color: rgb(0, 0, 204); font-size: 15px;&quot;&gt;Save&lt;/font&gt;" style="text;html=1;align=center;verticalAlign=middle;whiteSpace=wrap;rounded=0;fillColor=default;" vertex="1" parent="1">
          <mxGeometry x="860" y="1290" width="60" height="30" as="geometry" />
        </mxCell>
        <mxCell id="Fj4VQZkK3p1aDtsN9PMZ-38" value="&lt;font color=&quot;#0000cc&quot;&gt;&lt;span style=&quot;font-size: 15px;&quot;&gt;Load&lt;/span&gt;&lt;/font&gt;" style="text;html=1;align=center;verticalAlign=middle;whiteSpace=wrap;rounded=0;fillColor=default;" vertex="1" parent="1">
          <mxGeometry x="940" y="1330" width="60" height="30" as="geometry" />
        </mxCell>
        <mxCell id="Fj4VQZkK3p1aDtsN9PMZ-41" value="&lt;font color=&quot;#0000cc&quot;&gt;&lt;span style=&quot;font-size: 15px;&quot;&gt;Load&lt;/span&gt;&lt;/font&gt;" style="text;html=1;align=center;verticalAlign=middle;whiteSpace=wrap;rounded=0;fillColor=default;" vertex="1" parent="1">
          <mxGeometry x="535" y="1290" width="60" height="30" as="geometry" />
        </mxCell>
        <mxCell id="Fj4VQZkK3p1aDtsN9PMZ-42" value="&lt;font color=&quot;#0000cc&quot;&gt;&lt;span style=&quot;font-size: 15px;&quot;&gt;Load&lt;/span&gt;&lt;/font&gt;" style="text;html=1;align=center;verticalAlign=middle;whiteSpace=wrap;rounded=0;fillColor=default;" vertex="1" parent="1">
          <mxGeometry x="665" y="1280" width="60" height="30" as="geometry" />
        </mxCell>
      </root>
    </mxGraphModel>
  </diagram>
</mxfile>
